<svg width="596" height="286" viewBox="0 0 596 286" fill="none" xmlns="http://www.w3.org/2000/svg">
<g clip-path="url(#clip0_3648_105952)">
<rect width="286" height="286" rx="8" fill="white"/>
<rect y="278" width="286" height="8" fill="#4FB262"/>
<path fill-rule="evenodd" clip-rule="evenodd" d="M243.25 32C243.25 26.0858 248.086 21.25 254 21.25C259.914 21.25 264.75 26.0858 264.75 32C264.75 37.9142 259.914 42.75 254 42.75C248.086 42.75 243.25 37.9142 243.25 32ZM258.78 29.7008C259.073 29.4082 259.073 28.9333 258.781 28.6402C258.488 28.347 258.013 28.3466 257.72 28.6392L252.58 33.7698L250.28 31.4697C249.987 31.1768 249.513 31.1768 249.22 31.4697C248.927 31.7626 248.927 32.2374 249.22 32.5303L252.05 35.3603C252.342 35.6531 252.817 35.6533 253.11 35.3608L258.78 29.7008Z" fill="#68BE79"/>
</g>
<rect x="0.5" y="0.5" width="285" height="285" rx="7.5" stroke="#D0D6DD"/>
<g clip-path="url(#clip1_3648_105952)">
<rect x="310" width="286" height="286" rx="8" fill="white"/>
<rect x="310" y="278" width="286" height="8" fill="#C83E39"/>
<path fill-rule="evenodd" clip-rule="evenodd" d="M553.25 32C553.25 26.0858 558.086 21.25 564 21.25C569.914 21.25 574.75 26.0858 574.75 32C574.75 37.9142 569.914 42.75 564 42.75C558.086 42.75 553.25 37.9142 553.25 32ZM567.36 28.6397C567.653 28.9326 567.653 29.4075 567.36 29.7003L565.061 32L567.36 34.2997C567.653 34.5926 567.653 35.0674 567.36 35.3603C567.067 35.6532 566.592 35.6532 566.3 35.3603L564 33.0607L561.7 35.3603C561.407 35.6532 560.932 35.6532 560.64 35.3603C560.347 35.0674 560.347 34.5926 560.64 34.2997L562.939 32L560.64 29.7003C560.347 29.4075 560.347 28.9326 560.64 28.6397C560.932 28.3468 561.407 28.3468 561.7 28.6397L564 30.9394L566.3 28.6397C566.592 28.3468 567.067 28.3468 567.36 28.6397Z" fill="#DA473F"/>
</g>
<rect x="310.5" y="0.5" width="285" height="285" rx="7.5" stroke="#D0D6DD"/>
<rect x="426.5" y="111.5" width="52" height="37" rx="6.5" fill="#4B61DD"/>
<rect x="426.5" y="111.5" width="52" height="37" rx="6.5" stroke="#4B61DD"/>
<path d="M453.196 129.909C453.196 131.006 452.991 131.946 452.58 132.728C452.172 133.507 451.615 134.103 450.909 134.518C450.206 134.932 449.409 135.139 448.518 135.139C447.626 135.139 446.827 134.932 446.121 134.518C445.419 134.1 444.862 133.502 444.451 132.723C444.043 131.941 443.839 131.003 443.839 129.909C443.839 128.812 444.043 127.874 444.451 127.095C444.862 126.313 445.419 125.715 446.121 125.3C446.827 124.886 447.626 124.679 448.518 124.679C449.409 124.679 450.206 124.886 450.909 125.3C451.615 125.715 452.172 126.313 452.58 127.095C452.991 127.874 453.196 128.812 453.196 129.909ZM451.342 129.909C451.342 129.137 451.221 128.486 450.979 127.955C450.74 127.422 450.409 127.019 449.984 126.747C449.56 126.472 449.071 126.335 448.518 126.335C447.964 126.335 447.475 126.472 447.051 126.747C446.627 127.019 446.294 127.422 446.052 127.955C445.813 128.486 445.694 129.137 445.694 129.909C445.694 130.681 445.813 131.334 446.052 131.868C446.294 132.398 446.627 132.801 447.051 133.076C447.475 133.348 447.964 133.484 448.518 133.484C449.071 133.484 449.56 133.348 449.984 133.076C450.409 132.801 450.74 132.398 450.979 131.868C451.221 131.334 451.342 130.681 451.342 129.909ZM456.501 132.604L456.496 130.431H456.784L459.529 127.364H461.632L458.256 131.122H457.883L456.501 132.604ZM454.86 135V124.818H456.66V135H454.86ZM459.653 135L457.167 131.525L458.38 130.257L461.806 135H459.653Z" fill="white"/>
<rect x="102.5" y="111.5" width="95" height="37" rx="6.5" fill="#4B61DD"/>
<rect x="102.5" y="111.5" width="95" height="37" rx="6.5" stroke="#4B61DD"/>
<path d="M129.409 129.909C129.409 131.006 129.203 131.946 128.792 132.728C128.385 133.507 127.828 134.103 127.122 134.518C126.419 134.932 125.622 135.139 124.731 135.139C123.839 135.139 123.04 134.932 122.334 134.518C121.632 134.1 121.075 133.502 120.664 132.723C120.256 131.941 120.052 131.003 120.052 129.909C120.052 128.812 120.256 127.874 120.664 127.095C121.075 126.313 121.632 125.715 122.334 125.3C123.04 124.886 123.839 124.679 124.731 124.679C125.622 124.679 126.419 124.886 127.122 125.3C127.828 125.715 128.385 126.313 128.792 127.095C129.203 127.874 129.409 128.812 129.409 129.909ZM127.555 129.909C127.555 129.137 127.434 128.486 127.192 127.955C126.953 127.422 126.622 127.019 126.197 126.747C125.773 126.472 125.284 126.335 124.731 126.335C124.177 126.335 123.688 126.472 123.264 126.747C122.84 127.019 122.507 127.422 122.265 127.955C122.026 128.486 121.907 129.137 121.907 129.909C121.907 130.681 122.026 131.334 122.265 131.868C122.507 132.398 122.84 132.801 123.264 133.076C123.688 133.348 124.177 133.484 124.731 133.484C125.284 133.484 125.773 133.348 126.197 133.076C126.622 132.801 126.953 132.398 127.192 131.868C127.434 131.334 127.555 130.681 127.555 129.909ZM132.714 132.604L132.709 130.431H132.997L135.741 127.364H137.844L134.469 131.122H134.096L132.714 132.604ZM131.073 135V124.818H132.873V135H131.073ZM135.866 135L133.38 131.525L134.593 130.257L138.018 135H135.866ZM141.127 133.608L141.062 134.155C141.016 134.572 140.933 134.997 140.814 135.428C140.698 135.862 140.575 136.261 140.446 136.626C140.317 136.99 140.212 137.277 140.133 137.486H138.92C138.966 137.284 139.029 137.009 139.108 136.661C139.191 136.313 139.271 135.921 139.347 135.487C139.423 135.053 139.475 134.612 139.501 134.165L139.536 133.608H141.127ZM149.912 138.023C149.265 138.023 148.71 137.935 148.246 137.759C147.782 137.587 147.409 137.355 147.128 137.063C146.846 136.772 146.65 136.448 146.541 136.094L148.162 135.701C148.235 135.85 148.341 135.998 148.48 136.143C148.619 136.293 148.806 136.415 149.042 136.511C149.28 136.611 149.58 136.661 149.942 136.661C150.452 136.661 150.875 136.536 151.209 136.288C151.544 136.042 151.711 135.638 151.711 135.075V133.628H151.622C151.529 133.813 151.393 134.004 151.214 134.2C151.039 134.395 150.805 134.559 150.513 134.692C150.225 134.824 149.862 134.891 149.425 134.891C148.838 134.891 148.306 134.753 147.829 134.478C147.355 134.2 146.977 133.785 146.695 133.235C146.417 132.682 146.278 131.989 146.278 131.157C146.278 130.318 146.417 129.611 146.695 129.034C146.977 128.454 147.356 128.015 147.834 127.717C148.311 127.415 148.843 127.264 149.43 127.264C149.877 127.264 150.245 127.34 150.533 127.493C150.825 127.642 151.057 127.823 151.229 128.035C151.402 128.244 151.532 128.441 151.622 128.626H151.721V127.364H153.496V135.124C153.496 135.777 153.34 136.317 153.029 136.745C152.717 137.173 152.291 137.492 151.751 137.705C151.211 137.917 150.598 138.023 149.912 138.023ZM149.927 133.479C150.308 133.479 150.633 133.386 150.901 133.2C151.17 133.015 151.373 132.748 151.513 132.4C151.652 132.052 151.721 131.634 151.721 131.147C151.721 130.666 151.652 130.246 151.513 129.884C151.377 129.523 151.175 129.243 150.906 129.044C150.641 128.842 150.314 128.741 149.927 128.741C149.526 128.741 149.191 128.845 148.922 129.054C148.654 129.263 148.452 129.549 148.316 129.914C148.18 130.275 148.112 130.686 148.112 131.147C148.112 131.614 148.18 132.024 148.316 132.375C148.455 132.723 148.659 132.995 148.927 133.19C149.199 133.383 149.532 133.479 149.927 133.479ZM158.672 135.149C157.926 135.149 157.28 134.985 156.733 134.657C156.186 134.329 155.762 133.87 155.46 133.28C155.162 132.69 155.013 132 155.013 131.212C155.013 130.423 155.162 129.732 155.46 129.138C155.762 128.545 156.186 128.085 156.733 127.756C157.28 127.428 157.926 127.264 158.672 127.264C159.417 127.264 160.064 127.428 160.611 127.756C161.157 128.085 161.58 128.545 161.878 129.138C162.18 129.732 162.331 130.423 162.331 131.212C162.331 132 162.18 132.69 161.878 133.28C161.58 133.87 161.157 134.329 160.611 134.657C160.064 134.985 159.417 135.149 158.672 135.149ZM158.682 133.707C159.086 133.707 159.424 133.596 159.696 133.374C159.968 133.149 160.17 132.847 160.302 132.469C160.438 132.092 160.506 131.671 160.506 131.207C160.506 130.739 160.438 130.317 160.302 129.939C160.17 129.558 159.968 129.254 159.696 129.029C159.424 128.804 159.086 128.691 158.682 128.691C158.267 128.691 157.923 128.804 157.648 129.029C157.376 129.254 157.172 129.558 157.036 129.939C156.903 130.317 156.837 130.739 156.837 131.207C156.837 131.671 156.903 132.092 157.036 132.469C157.172 132.847 157.376 133.149 157.648 133.374C157.923 133.596 158.267 133.707 158.682 133.707ZM167.672 127.364V128.756H163.282V127.364H167.672ZM164.365 125.534H166.165V132.703C166.165 132.945 166.202 133.131 166.275 133.26C166.351 133.386 166.45 133.472 166.573 133.518C166.695 133.565 166.831 133.588 166.98 133.588C167.093 133.588 167.196 133.58 167.289 133.563C167.385 133.547 167.458 133.532 167.507 133.518L167.811 134.925C167.715 134.959 167.577 134.995 167.398 135.035C167.222 135.075 167.007 135.098 166.752 135.104C166.301 135.118 165.895 135.05 165.534 134.901C165.172 134.748 164.886 134.513 164.674 134.195C164.465 133.876 164.362 133.479 164.365 133.001V125.534ZM172.649 135V127.364H174.449V135H172.649ZM173.554 126.28C173.269 126.28 173.024 126.185 172.818 125.996C172.613 125.804 172.51 125.574 172.51 125.305C172.51 125.034 172.613 124.803 172.818 124.614C173.024 124.422 173.269 124.326 173.554 124.326C173.843 124.326 174.088 124.422 174.29 124.614C174.495 124.803 174.598 125.034 174.598 125.305C174.598 125.574 174.495 125.804 174.29 125.996C174.088 126.185 173.843 126.28 173.554 126.28ZM180.113 127.364V128.756H175.723V127.364H180.113ZM176.807 125.534H178.607V132.703C178.607 132.945 178.643 133.131 178.716 133.26C178.792 133.386 178.892 133.472 179.014 133.518C179.137 133.565 179.273 133.588 179.422 133.588C179.535 133.588 179.637 133.58 179.73 133.563C179.826 133.547 179.899 133.532 179.949 133.518L180.252 134.925C180.156 134.959 180.018 134.995 179.839 135.035C179.664 135.075 179.448 135.098 179.193 135.104C178.742 135.118 178.336 135.05 177.975 134.901C177.614 134.748 177.327 134.513 177.115 134.195C176.906 133.876 176.804 133.479 176.807 133.001V125.534Z" fill="white"/>
<defs>
<clipPath id="clip0_3648_105952">
<rect width="286" height="286" rx="8" fill="white"/>
</clipPath>
<clipPath id="clip1_3648_105952">
<rect x="310" width="286" height="286" rx="8" fill="white"/>
</clipPath>
</defs>
</svg>
