<svg width="596" height="286" viewBox="0 0 596 286" fill="none" xmlns="http://www.w3.org/2000/svg">
<g clip-path="url(#clip0_3648_108409)">
<rect width="286" height="286" rx="8" fill="white"/>
<rect y="278" width="286" height="8" fill="#4FB262"/>
<path fill-rule="evenodd" clip-rule="evenodd" d="M243.25 32C243.25 26.0858 248.086 21.25 254 21.25C259.914 21.25 264.75 26.0858 264.75 32C264.75 37.9142 259.914 42.75 254 42.75C248.086 42.75 243.25 37.9142 243.25 32ZM258.78 29.7008C259.073 29.4082 259.073 28.9333 258.781 28.6402C258.488 28.347 258.013 28.3466 257.72 28.6392L252.58 33.7698L250.28 31.4697C249.987 31.1768 249.513 31.1768 249.22 31.4697C248.927 31.7626 248.927 32.2374 249.22 32.5303L252.05 35.3603C252.342 35.6531 252.817 35.6533 253.11 35.3608L258.78 29.7008Z" fill="#68BE79"/>
</g>
<rect x="0.5" y="0.5" width="285" height="285" rx="7.5" stroke="#D0D6DD"/>
<g clip-path="url(#clip1_3648_108409)">
<rect x="310" width="286" height="286" rx="8" fill="white"/>
<rect x="310" y="278" width="286" height="8" fill="#C83E39"/>
<path fill-rule="evenodd" clip-rule="evenodd" d="M553.25 32C553.25 26.0858 558.086 21.25 564 21.25C569.914 21.25 574.75 26.0858 574.75 32C574.75 37.9142 569.914 42.75 564 42.75C558.086 42.75 553.25 37.9142 553.25 32ZM567.36 28.6397C567.653 28.9326 567.653 29.4075 567.36 29.7003L565.061 32L567.36 34.2997C567.653 34.5926 567.653 35.0674 567.36 35.3603C567.067 35.6532 566.592 35.6532 566.3 35.3603L564 33.0607L561.7 35.3603C561.407 35.6532 560.932 35.6532 560.64 35.3603C560.347 35.0674 560.347 34.5926 560.64 34.2997L562.939 32L560.64 29.7003C560.347 29.4075 560.347 28.9326 560.64 28.6397C560.932 28.3468 561.407 28.3468 561.7 28.6397L564 30.9394L566.3 28.6397C566.592 28.3468 567.067 28.3468 567.36 28.6397Z" fill="#DA473F"/>
</g>
<rect x="310.5" y="0.5" width="285" height="285" rx="7.5" stroke="#D0D6DD"/>
<rect x="73.5" y="112.5" width="140" height="37" rx="6.5" fill="#4B61DD"/>
<rect x="73.5" y="112.5" width="140" height="37" rx="6.5" stroke="#4B61DD"/>
<path d="M92.4 131H99.6M96 134.6V127.4M103.5 131C103.5 135.142 100.142 138.5 96 138.5C91.8579 138.5 88.5 135.142 88.5 131C88.5 126.858 91.8579 123.5 96 123.5C100.142 123.5 103.5 126.858 103.5 131Z" stroke="white" stroke-width="1.5" stroke-linecap="round" stroke-linejoin="round"/>
<path d="M123.371 125.818V136H121.731L116.933 129.065H116.849V136H115.004V125.818H116.655L121.447 132.759H121.537V125.818H123.371ZM128.682 136.149C127.917 136.149 127.256 135.99 126.699 135.672C126.145 135.35 125.719 134.896 125.421 134.31C125.123 133.72 124.974 133.025 124.974 132.227C124.974 131.441 125.123 130.752 125.421 130.158C125.723 129.562 126.144 129.098 126.684 128.766C127.224 128.432 127.859 128.264 128.588 128.264C129.059 128.264 129.503 128.34 129.92 128.493C130.341 128.642 130.712 128.874 131.034 129.189C131.359 129.504 131.614 129.905 131.8 130.392C131.985 130.876 132.078 131.453 132.078 132.122V132.674H125.819V131.461H130.353C130.349 131.116 130.275 130.81 130.129 130.541C129.983 130.269 129.779 130.056 129.518 129.9C129.259 129.744 128.957 129.666 128.613 129.666C128.245 129.666 127.922 129.756 127.643 129.935C127.365 130.11 127.148 130.342 126.992 130.631C126.84 130.916 126.762 131.229 126.758 131.57V132.629C126.758 133.073 126.84 133.455 127.002 133.773C127.164 134.088 127.391 134.33 127.683 134.499C127.975 134.664 128.316 134.747 128.707 134.747C128.969 134.747 129.206 134.711 129.418 134.638C129.63 134.562 129.814 134.451 129.97 134.305C130.126 134.159 130.243 133.978 130.323 133.763L132.003 133.952C131.897 134.396 131.695 134.784 131.397 135.115C131.102 135.443 130.724 135.698 130.263 135.881C129.803 136.06 129.276 136.149 128.682 136.149ZM135.135 136L132.978 128.364H134.812L136.155 133.733H136.224L137.596 128.364H139.411L140.783 133.703H140.858L142.18 128.364H144.02L141.857 136H139.983L138.551 130.839H138.447L137.015 136H135.135ZM148.749 136V128.364H150.549V136H148.749ZM149.654 127.28C149.369 127.28 149.123 127.185 148.918 126.996C148.712 126.804 148.61 126.574 148.61 126.305C148.61 126.034 148.712 125.803 148.918 125.614C149.123 125.422 149.369 125.326 149.654 125.326C149.942 125.326 150.187 125.422 150.39 125.614C150.595 125.803 150.698 126.034 150.698 126.305C150.698 126.574 150.595 126.804 150.39 126.996C150.187 127.185 149.942 127.28 149.654 127.28ZM154.199 131.526V136H152.399V128.364H154.119V129.661H154.209C154.385 129.234 154.665 128.894 155.049 128.642C155.437 128.39 155.916 128.264 156.486 128.264C157.013 128.264 157.472 128.377 157.863 128.602C158.258 128.828 158.562 129.154 158.778 129.582C158.997 130.009 159.104 130.528 159.101 131.138V136H157.301V131.416C157.301 130.906 157.169 130.506 156.904 130.218C156.642 129.93 156.279 129.786 155.815 129.786C155.5 129.786 155.22 129.855 154.975 129.994C154.733 130.13 154.542 130.327 154.403 130.586C154.267 130.844 154.199 131.158 154.199 131.526ZM167.478 128.364L164.759 136H162.77L160.051 128.364H161.97L163.725 134.036H163.804L165.564 128.364H167.478ZM171.795 136.149C171.049 136.149 170.403 135.985 169.856 135.657C169.309 135.329 168.885 134.87 168.583 134.28C168.285 133.69 168.136 133 168.136 132.212C168.136 131.423 168.285 130.732 168.583 130.138C168.885 129.545 169.309 129.085 169.856 128.756C170.403 128.428 171.049 128.264 171.795 128.264C172.54 128.264 173.187 128.428 173.734 128.756C174.281 129.085 174.703 129.545 175.001 130.138C175.303 130.732 175.454 131.423 175.454 132.212C175.454 133 175.303 133.69 175.001 134.28C174.703 134.87 174.281 135.329 173.734 135.657C173.187 135.985 172.54 136.149 171.795 136.149ZM171.805 134.707C172.209 134.707 172.547 134.596 172.819 134.374C173.091 134.149 173.293 133.847 173.425 133.469C173.561 133.092 173.629 132.671 173.629 132.207C173.629 131.739 173.561 131.317 173.425 130.939C173.293 130.558 173.091 130.254 172.819 130.029C172.547 129.804 172.209 129.691 171.805 129.691C171.39 129.691 171.046 129.804 170.771 130.029C170.499 130.254 170.295 130.558 170.159 130.939C170.027 131.317 169.96 131.739 169.96 132.207C169.96 132.671 170.027 133.092 170.159 133.469C170.295 133.847 170.499 134.149 170.771 134.374C171.046 134.596 171.39 134.707 171.805 134.707ZM176.981 136V128.364H178.781V136H176.981ZM177.886 127.28C177.601 127.28 177.356 127.185 177.15 126.996C176.945 126.804 176.842 126.574 176.842 126.305C176.842 126.034 176.945 125.803 177.15 125.614C177.356 125.422 177.601 125.326 177.886 125.326C178.175 125.326 178.42 125.422 178.622 125.614C178.827 125.803 178.93 126.034 178.93 126.305C178.93 126.574 178.827 126.804 178.622 126.996C178.42 127.185 178.175 127.28 177.886 127.28ZM183.963 136.149C183.2 136.149 182.546 135.982 181.999 135.647C181.455 135.312 181.036 134.85 180.741 134.26C180.449 133.667 180.304 132.984 180.304 132.212C180.304 131.436 180.453 130.752 180.751 130.158C181.049 129.562 181.47 129.098 182.014 128.766C182.561 128.432 183.207 128.264 183.953 128.264C184.573 128.264 185.121 128.379 185.598 128.607C186.079 128.833 186.462 129.152 186.747 129.567C187.032 129.978 187.194 130.458 187.234 131.009H185.514C185.444 130.641 185.279 130.334 185.017 130.089C184.758 129.84 184.412 129.716 183.978 129.716C183.61 129.716 183.287 129.815 183.008 130.014C182.73 130.21 182.513 130.491 182.357 130.859C182.204 131.227 182.128 131.668 182.128 132.182C182.128 132.702 182.204 133.15 182.357 133.524C182.509 133.895 182.723 134.182 182.998 134.384C183.277 134.583 183.603 134.683 183.978 134.683C184.243 134.683 184.48 134.633 184.689 134.533C184.901 134.431 185.078 134.283 185.221 134.091C185.363 133.899 185.461 133.665 185.514 133.39H187.234C187.191 133.93 187.032 134.409 186.757 134.827C186.482 135.241 186.107 135.566 185.633 135.801C185.159 136.033 184.602 136.149 183.963 136.149ZM192.093 136.149C191.327 136.149 190.666 135.99 190.109 135.672C189.555 135.35 189.129 134.896 188.831 134.31C188.533 133.72 188.384 133.025 188.384 132.227C188.384 131.441 188.533 130.752 188.831 130.158C189.133 129.562 189.554 129.098 190.094 128.766C190.634 128.432 191.269 128.264 191.998 128.264C192.469 128.264 192.913 128.34 193.33 128.493C193.751 128.642 194.123 128.874 194.444 129.189C194.769 129.504 195.024 129.905 195.21 130.392C195.395 130.876 195.488 131.453 195.488 132.122V132.674H189.229V131.461H193.763C193.76 131.116 193.685 130.81 193.539 130.541C193.393 130.269 193.19 130.056 192.928 129.9C192.669 129.744 192.368 129.666 192.023 129.666C191.655 129.666 191.332 129.756 191.053 129.935C190.775 130.11 190.558 130.342 190.402 130.631C190.25 130.916 190.172 131.229 190.169 131.57V132.629C190.169 133.073 190.25 133.455 190.412 133.773C190.575 134.088 190.802 134.33 191.093 134.499C191.385 134.664 191.726 134.747 192.117 134.747C192.379 134.747 192.616 134.711 192.828 134.638C193.04 134.562 193.224 134.451 193.38 134.305C193.536 134.159 193.654 133.978 193.733 133.763L195.414 133.952C195.307 134.396 195.105 134.784 194.807 135.115C194.512 135.443 194.134 135.698 193.673 135.881C193.213 136.06 192.686 136.149 192.093 136.149Z" fill="white"/>
<rect x="347.5" y="112.5" width="211" height="37" rx="6.5" fill="#4B61DD"/>
<rect x="347.5" y="112.5" width="211" height="37" rx="6.5" stroke="#4B61DD"/>
<path d="M366.4 131H373.6M370 134.6V127.4M377.5 131C377.5 135.142 374.142 138.5 370 138.5C365.858 138.5 362.5 135.142 362.5 131C362.5 126.858 365.858 123.5 370 123.5C374.142 123.5 377.5 126.858 377.5 131Z" stroke="white" stroke-width="1.5" stroke-linecap="round" stroke-linejoin="round"/>
<path d="M397.719 129.254H395.86C395.807 128.949 395.709 128.679 395.567 128.443C395.424 128.205 395.247 128.002 395.035 127.837C394.823 127.671 394.581 127.547 394.309 127.464C394.04 127.378 393.75 127.335 393.439 127.335C392.885 127.335 392.395 127.474 391.967 127.752C391.54 128.027 391.205 128.432 390.963 128.965C390.721 129.496 390.6 130.143 390.6 130.909C390.6 131.688 390.721 132.344 390.963 132.878C391.208 133.408 391.543 133.809 391.967 134.081C392.395 134.349 392.884 134.484 393.434 134.484C393.739 134.484 394.024 134.444 394.289 134.364C394.558 134.281 394.798 134.161 395.01 134.001C395.225 133.842 395.406 133.647 395.552 133.415C395.701 133.183 395.804 132.918 395.86 132.619L397.719 132.629C397.65 133.113 397.499 133.567 397.267 133.991C397.038 134.416 396.738 134.79 396.367 135.115C395.996 135.437 395.562 135.688 395.065 135.871C394.567 136.05 394.016 136.139 393.409 136.139C392.514 136.139 391.715 135.932 391.013 135.518C390.31 135.103 389.757 134.505 389.352 133.723C388.948 132.941 388.746 132.003 388.746 130.909C388.746 129.812 388.95 128.874 389.357 128.095C389.765 127.313 390.32 126.715 391.023 126.3C391.725 125.886 392.521 125.679 393.409 125.679C393.976 125.679 394.503 125.759 394.99 125.918C395.477 126.077 395.911 126.31 396.293 126.619C396.674 126.924 396.987 127.298 397.232 127.742C397.481 128.183 397.643 128.687 397.719 129.254ZM399.329 136V128.364H401.074V129.636H401.154C401.293 129.196 401.531 128.856 401.869 128.617C402.211 128.375 402.6 128.254 403.038 128.254C403.137 128.254 403.248 128.259 403.371 128.269C403.497 128.276 403.601 128.287 403.684 128.304V129.96C403.608 129.933 403.487 129.91 403.321 129.89C403.159 129.867 403.001 129.855 402.849 129.855C402.521 129.855 402.226 129.926 401.964 130.069C401.705 130.208 401.502 130.402 401.352 130.651C401.203 130.899 401.129 131.186 401.129 131.511V136H399.329ZM407.946 136.149C407.18 136.149 406.519 135.99 405.962 135.672C405.409 135.35 404.983 134.896 404.685 134.31C404.386 133.72 404.237 133.025 404.237 132.227C404.237 131.441 404.386 130.752 404.685 130.158C404.986 129.562 405.407 129.098 405.947 128.766C406.488 128.432 407.122 128.264 407.852 128.264C408.322 128.264 408.766 128.34 409.184 128.493C409.605 128.642 409.976 128.874 410.298 129.189C410.622 129.504 410.878 129.905 411.063 130.392C411.249 130.876 411.342 131.453 411.342 132.122V132.674H405.082V131.461H409.616C409.613 131.116 409.539 130.81 409.393 130.541C409.247 130.269 409.043 130.056 408.781 129.9C408.523 129.744 408.221 129.666 407.876 129.666C407.509 129.666 407.185 129.756 406.907 129.935C406.629 130.11 406.411 130.342 406.256 130.631C406.103 130.916 406.025 131.229 406.022 131.57V132.629C406.022 133.073 406.103 133.455 406.266 133.773C406.428 134.088 406.655 134.33 406.947 134.499C407.238 134.664 407.58 134.747 407.971 134.747C408.233 134.747 408.47 134.711 408.682 134.638C408.894 134.562 409.078 134.451 409.234 134.305C409.389 134.159 409.507 133.978 409.587 133.763L411.267 133.952C411.161 134.396 410.959 134.784 410.661 135.115C410.366 135.443 409.988 135.698 409.527 135.881C409.066 136.06 408.539 136.149 407.946 136.149ZM415.062 136.154C414.578 136.154 414.142 136.068 413.754 135.896C413.37 135.72 413.065 135.461 412.839 135.12C412.617 134.779 412.506 134.358 412.506 133.857C412.506 133.426 412.586 133.07 412.745 132.788C412.904 132.507 413.121 132.281 413.396 132.112C413.671 131.943 413.981 131.816 414.326 131.729C414.674 131.64 415.033 131.575 415.405 131.536C415.852 131.489 416.215 131.448 416.493 131.411C416.772 131.371 416.974 131.312 417.1 131.232C417.229 131.149 417.294 131.022 417.294 130.849V130.82C417.294 130.445 417.183 130.155 416.961 129.95C416.739 129.744 416.419 129.641 416.001 129.641C415.56 129.641 415.211 129.737 414.952 129.93C414.697 130.122 414.525 130.349 414.435 130.611L412.755 130.372C412.887 129.908 413.106 129.52 413.411 129.209C413.716 128.894 414.089 128.659 414.53 128.503C414.97 128.344 415.458 128.264 415.991 128.264C416.359 128.264 416.725 128.307 417.09 128.393C417.455 128.48 417.788 128.622 418.089 128.821C418.391 129.017 418.633 129.283 418.815 129.621C419.001 129.96 419.094 130.382 419.094 130.889V136H417.363V134.951H417.304C417.194 135.163 417.04 135.362 416.841 135.548C416.646 135.73 416.399 135.877 416.101 135.99C415.806 136.099 415.459 136.154 415.062 136.154ZM415.529 134.832C415.89 134.832 416.203 134.76 416.469 134.618C416.734 134.472 416.938 134.28 417.08 134.041C417.226 133.803 417.299 133.542 417.299 133.261V132.361C417.242 132.407 417.146 132.45 417.01 132.49C416.878 132.53 416.729 132.565 416.563 132.594C416.397 132.624 416.233 132.651 416.071 132.674C415.908 132.697 415.768 132.717 415.648 132.734C415.38 132.77 415.14 132.83 414.927 132.913C414.715 132.996 414.548 133.112 414.425 133.261C414.303 133.406 414.241 133.595 414.241 133.827C414.241 134.159 414.362 134.409 414.604 134.578C414.846 134.747 415.154 134.832 415.529 134.832ZM424.716 128.364V129.756H420.327V128.364H424.716ZM421.41 126.534H423.21V133.703C423.21 133.945 423.247 134.131 423.319 134.26C423.396 134.386 423.495 134.472 423.618 134.518C423.74 134.565 423.876 134.588 424.025 134.588C424.138 134.588 424.241 134.58 424.334 134.563C424.43 134.547 424.503 134.532 424.552 134.518L424.856 135.925C424.76 135.959 424.622 135.995 424.443 136.035C424.267 136.075 424.052 136.098 423.797 136.104C423.346 136.118 422.94 136.05 422.579 135.901C422.217 135.748 421.931 135.513 421.719 135.195C421.51 134.876 421.407 134.479 421.41 134.001V126.534ZM429.52 136.149C428.755 136.149 428.093 135.99 427.537 135.672C426.983 135.35 426.557 134.896 426.259 134.31C425.961 133.72 425.811 133.025 425.811 132.227C425.811 131.441 425.961 130.752 426.259 130.158C426.56 129.562 426.981 129.098 427.522 128.766C428.062 128.432 428.697 128.264 429.426 128.264C429.896 128.264 430.341 128.34 430.758 128.493C431.179 128.642 431.55 128.874 431.872 129.189C432.197 129.504 432.452 129.905 432.637 130.392C432.823 130.876 432.916 131.453 432.916 132.122V132.674H426.657V131.461H431.191C431.187 131.116 431.113 130.81 430.967 130.541C430.821 130.269 430.617 130.056 430.355 129.9C430.097 129.744 429.795 129.666 429.451 129.666C429.083 129.666 428.76 129.756 428.481 129.935C428.203 130.11 427.986 130.342 427.83 130.631C427.677 130.916 427.6 131.229 427.596 131.57V132.629C427.596 133.073 427.677 133.455 427.84 133.773C428.002 134.088 428.229 134.33 428.521 134.499C428.813 134.664 429.154 134.747 429.545 134.747C429.807 134.747 430.044 134.711 430.256 134.638C430.468 134.562 430.652 134.451 430.808 134.305C430.964 134.159 431.081 133.978 431.161 133.763L432.841 133.952C432.735 134.396 432.533 134.784 432.235 135.115C431.94 135.443 431.562 135.698 431.101 135.881C430.641 136.06 430.114 136.149 429.52 136.149ZM439.711 131.526V136H437.911V128.364H439.631V129.661H439.721C439.896 129.234 440.176 128.894 440.561 128.642C440.949 128.39 441.428 128.264 441.998 128.264C442.525 128.264 442.984 128.377 443.375 128.602C443.769 128.828 444.074 129.154 444.29 129.582C444.508 130.009 444.616 130.528 444.613 131.138V136H442.813V131.416C442.813 130.906 442.68 130.506 442.415 130.218C442.153 129.93 441.791 129.786 441.327 129.786C441.012 129.786 440.732 129.855 440.486 129.994C440.244 130.13 440.054 130.327 439.915 130.586C439.779 130.844 439.711 131.158 439.711 131.526ZM449.823 136.149C449.057 136.149 448.396 135.99 447.839 135.672C447.286 135.35 446.86 134.896 446.562 134.31C446.263 133.72 446.114 133.025 446.114 132.227C446.114 131.441 446.263 130.752 446.562 130.158C446.863 129.562 447.284 129.098 447.824 128.766C448.365 128.432 448.999 128.264 449.729 128.264C450.199 128.264 450.643 128.34 451.061 128.493C451.482 128.642 451.853 128.874 452.175 129.189C452.499 129.504 452.755 129.905 452.94 130.392C453.126 130.876 453.219 131.453 453.219 132.122V132.674H446.959V131.461H451.493C451.49 131.116 451.416 130.81 451.27 130.541C451.124 130.269 450.92 130.056 450.658 129.9C450.4 129.744 450.098 129.666 449.753 129.666C449.385 129.666 449.062 129.756 448.784 129.935C448.506 130.11 448.288 130.342 448.133 130.631C447.98 130.916 447.902 131.229 447.899 131.57V132.629C447.899 133.073 447.98 133.455 448.143 133.773C448.305 134.088 448.532 134.33 448.824 134.499C449.115 134.664 449.457 134.747 449.848 134.747C450.11 134.747 450.347 134.711 450.559 134.638C450.771 134.562 450.955 134.451 451.111 134.305C451.266 134.159 451.384 133.978 451.464 133.763L453.144 133.952C453.038 134.396 452.836 134.784 452.537 135.115C452.242 135.443 451.865 135.698 451.404 135.881C450.943 136.06 450.416 136.149 449.823 136.149ZM456.276 136L454.118 128.364H455.953L457.295 133.733H457.365L458.737 128.364H460.552L461.924 133.703H461.998L463.321 128.364H465.16L462.998 136H461.123L459.692 130.839H459.587L458.155 136H456.276ZM469.89 136V128.364H471.689V136H469.89ZM470.794 127.28C470.509 127.28 470.264 127.185 470.059 126.996C469.853 126.804 469.75 126.574 469.75 126.305C469.75 126.034 469.853 125.803 470.059 125.614C470.264 125.422 470.509 125.326 470.794 125.326C471.083 125.326 471.328 125.422 471.53 125.614C471.736 125.803 471.838 126.034 471.838 126.305C471.838 126.574 471.736 126.804 471.53 126.996C471.328 127.185 471.083 127.28 470.794 127.28ZM475.34 131.526V136H473.54V128.364H475.26V129.661H475.35C475.525 129.234 475.805 128.894 476.19 128.642C476.578 128.39 477.057 128.264 477.627 128.264C478.154 128.264 478.613 128.377 479.004 128.602C479.398 128.828 479.703 129.154 479.919 129.582C480.137 130.009 480.245 130.528 480.242 131.138V136H478.442V131.416C478.442 130.906 478.309 130.506 478.044 130.218C477.782 129.93 477.419 129.786 476.955 129.786C476.641 129.786 476.36 129.855 476.115 129.994C475.873 130.13 475.683 130.327 475.544 130.586C475.408 130.844 475.34 131.158 475.34 131.526ZM488.619 128.364L485.899 136H483.911L481.191 128.364H483.11L484.865 134.036H484.945L486.705 128.364H488.619ZM492.935 136.149C492.19 136.149 491.543 135.985 490.996 135.657C490.45 135.329 490.025 134.87 489.724 134.28C489.425 133.69 489.276 133 489.276 132.212C489.276 131.423 489.425 130.732 489.724 130.138C490.025 129.545 490.45 129.085 490.996 128.756C491.543 128.428 492.19 128.264 492.935 128.264C493.681 128.264 494.327 128.428 494.874 128.756C495.421 129.085 495.844 129.545 496.142 130.138C496.444 130.732 496.594 131.423 496.594 132.212C496.594 133 496.444 133.69 496.142 134.28C495.844 134.87 495.421 135.329 494.874 135.657C494.327 135.985 493.681 136.149 492.935 136.149ZM492.945 134.707C493.35 134.707 493.688 134.596 493.96 134.374C494.231 134.149 494.433 133.847 494.566 133.469C494.702 133.092 494.77 132.671 494.77 132.207C494.77 131.739 494.702 131.317 494.566 130.939C494.433 130.558 494.231 130.254 493.96 130.029C493.688 129.804 493.35 129.691 492.945 129.691C492.531 129.691 492.186 129.804 491.911 130.029C491.639 130.254 491.436 130.558 491.3 130.939C491.167 131.317 491.101 131.739 491.101 132.207C491.101 132.671 491.167 133.092 491.3 133.469C491.436 133.847 491.639 134.149 491.911 134.374C492.186 134.596 492.531 134.707 492.945 134.707ZM498.122 136V128.364H499.922V136H498.122ZM499.027 127.28C498.742 127.28 498.497 127.185 498.291 126.996C498.086 126.804 497.983 126.574 497.983 126.305C497.983 126.034 498.086 125.803 498.291 125.614C498.497 125.422 498.742 125.326 499.027 125.326C499.315 125.326 499.56 125.422 499.763 125.614C499.968 125.803 500.071 126.034 500.071 126.305C500.071 126.574 499.968 126.804 499.763 126.996C499.56 127.185 499.315 127.28 499.027 127.28ZM505.103 136.149C504.341 136.149 503.686 135.982 503.14 135.647C502.596 135.312 502.177 134.85 501.882 134.26C501.59 133.667 501.444 132.984 501.444 132.212C501.444 131.436 501.593 130.752 501.892 130.158C502.19 129.562 502.611 129.098 503.154 128.766C503.701 128.432 504.348 128.264 505.093 128.264C505.713 128.264 506.262 128.379 506.739 128.607C507.22 128.833 507.602 129.152 507.887 129.567C508.172 129.978 508.335 130.458 508.375 131.009H506.654C506.585 130.641 506.419 130.334 506.157 130.089C505.899 129.84 505.552 129.716 505.118 129.716C504.75 129.716 504.427 129.815 504.149 130.014C503.87 130.21 503.653 130.491 503.498 130.859C503.345 131.227 503.269 131.668 503.269 132.182C503.269 132.702 503.345 133.15 503.498 133.524C503.65 133.895 503.864 134.182 504.139 134.384C504.417 134.583 504.744 134.683 505.118 134.683C505.383 134.683 505.62 134.633 505.829 134.533C506.041 134.431 506.219 134.283 506.361 134.091C506.504 133.899 506.601 133.665 506.654 133.39H508.375C508.332 133.93 508.172 134.409 507.897 134.827C507.622 135.241 507.248 135.566 506.774 135.801C506.3 136.033 505.743 136.149 505.103 136.149ZM513.233 136.149C512.468 136.149 511.806 135.99 511.249 135.672C510.696 135.35 510.27 134.896 509.972 134.31C509.673 133.72 509.524 133.025 509.524 132.227C509.524 131.441 509.673 130.752 509.972 130.158C510.273 129.562 510.694 129.098 511.235 128.766C511.775 128.432 512.41 128.264 513.139 128.264C513.609 128.264 514.053 128.34 514.471 128.493C514.892 128.642 515.263 128.874 515.585 129.189C515.91 129.504 516.165 129.905 516.35 130.392C516.536 130.876 516.629 131.453 516.629 132.122V132.674H510.369V131.461H514.904C514.9 131.116 514.826 130.81 514.68 130.541C514.534 130.269 514.33 130.056 514.068 129.9C513.81 129.744 513.508 129.666 513.164 129.666C512.796 129.666 512.472 129.756 512.194 129.935C511.916 130.11 511.699 130.342 511.543 130.631C511.39 130.916 511.312 131.229 511.309 131.57V132.629C511.309 133.073 511.39 133.455 511.553 133.773C511.715 134.088 511.942 134.33 512.234 134.499C512.526 134.664 512.867 134.747 513.258 134.747C513.52 134.747 513.757 134.711 513.969 134.638C514.181 134.562 514.365 134.451 514.521 134.305C514.677 134.159 514.794 133.978 514.874 133.763L516.554 133.952C516.448 134.396 516.246 134.784 515.948 135.115C515.653 135.443 515.275 135.698 514.814 135.881C514.353 136.06 513.826 136.149 513.233 136.149Z" fill="white"/>
<path d="M531 128.5L536 133.5L541 128.5H531Z" fill="white"/>
<defs>
<clipPath id="clip0_3648_108409">
<rect width="286" height="286" rx="8" fill="white"/>
</clipPath>
<clipPath id="clip1_3648_108409">
<rect x="310" width="286" height="286" rx="8" fill="white"/>
</clipPath>
</defs>
</svg>
