<svg width="596" height="286" viewBox="0 0 596 286" fill="none" xmlns="http://www.w3.org/2000/svg">
<g clip-path="url(#clip0_3665_99765)">
<rect width="286" height="286" rx="8" fill="white"/>
<rect y="278" width="286" height="8" fill="#4FB262"/>
<path fill-rule="evenodd" clip-rule="evenodd" d="M243.25 32C243.25 26.0858 248.086 21.25 254 21.25C259.914 21.25 264.75 26.0858 264.75 32C264.75 37.9142 259.914 42.75 254 42.75C248.086 42.75 243.25 37.9142 243.25 32ZM258.78 29.7008C259.073 29.4082 259.073 28.9333 258.781 28.6402C258.488 28.347 258.013 28.3466 257.72 28.6392L252.58 33.7698L250.28 31.4697C249.987 31.1768 249.513 31.1768 249.22 31.4697C248.927 31.7626 248.927 32.2374 249.22 32.5303L252.05 35.3603C252.342 35.6531 252.817 35.6533 253.11 35.3608L258.78 29.7008Z" fill="#68BE79"/>
</g>
<rect x="0.5" y="0.5" width="285" height="285" rx="7.5" stroke="#D0D6DD"/>
<g clip-path="url(#clip1_3665_99765)">
<rect x="310" width="286" height="286" rx="8" fill="white"/>
<rect x="310" y="278" width="286" height="8" fill="#C83E39"/>
<path fill-rule="evenodd" clip-rule="evenodd" d="M553.25 32C553.25 26.0858 558.086 21.25 564 21.25C569.914 21.25 574.75 26.0858 574.75 32C574.75 37.9142 569.914 42.75 564 42.75C558.086 42.75 553.25 37.9142 553.25 32ZM567.36 28.6397C567.653 28.9326 567.653 29.4075 567.36 29.7003L565.061 32L567.36 34.2997C567.653 34.5926 567.653 35.0674 567.36 35.3603C567.067 35.6532 566.592 35.6532 566.3 35.3603L564 33.0607L561.7 35.3603C561.407 35.6532 560.932 35.6532 560.64 35.3603C560.347 35.0674 560.347 34.5926 560.64 34.2997L562.939 32L560.64 29.7003C560.347 29.4075 560.347 28.9326 560.64 28.6397C560.932 28.3468 561.407 28.3468 561.7 28.6397L564 30.9394L566.3 28.6397C566.592 28.3468 567.067 28.3468 567.36 28.6397Z" fill="#DA473F"/>
</g>
<rect x="310.5" y="0.5" width="285" height="285" rx="7.5" stroke="#D0D6DD"/>
<rect x="35.5" y="112.5" width="102" height="37" rx="6.5" fill="white"/>
<rect x="35.5" y="112.5" width="102" height="37" rx="6.5" stroke="#D0D6DD"/>
<path d="M62.1167 128.417C65.1167 128.675 66.3417 130.217 66.3417 133.592V134.117C66.3417 138.258 64.85 139.333 61.125 139.333H54.8667C51.1417 139.333 49.65 138.258 49.65 134.117V133.592C49.65 130.242 50.8583 128.7 53.8083 128.425" fill="#EAECFB"/>
<path d="M62.1167 128.417C65.1167 128.675 66.3417 130.217 66.3417 133.592V134.117C66.3417 138.258 64.85 139.333 61.125 139.333H54.8667C51.1417 139.333 49.65 138.258 49.65 134.117V133.592C49.65 130.242 50.8583 128.7 53.8083 128.425" stroke="#0031BE" stroke-width="1.5" stroke-linecap="round" stroke-linejoin="round"/>
<path d="M58 135.167V124.017" stroke="#0031BE" stroke-width="1.5" stroke-linecap="round" stroke-linejoin="round"/>
<path d="M60.7916 125.458L57.9999 122.667L55.2083 125.458" stroke="#0031BE" stroke-width="1.5" stroke-linecap="round" stroke-linejoin="round"/>
<path d="M77.0414 136V125.818H83.6635V127.364H78.8858V130.129H83.3205V131.675H78.8858V134.454H83.7033V136H77.0414ZM86.9373 128.364L88.4785 131.183L90.0446 128.364H91.9487L89.6468 132.182L91.9885 136H90.0943L88.4785 133.251L86.8777 136H84.9686L87.2953 132.182L85.0282 128.364H86.9373ZM93.3407 138.864V128.364H95.1106V129.626H95.215C95.3078 129.441 95.4387 129.244 95.6078 129.035C95.7768 128.823 96.0055 128.642 96.2939 128.493C96.5822 128.34 96.9501 128.264 97.3975 128.264C97.9875 128.264 98.5195 128.415 98.9934 128.717C99.4707 129.015 99.8485 129.457 100.127 130.044C100.409 130.627 100.55 131.343 100.55 132.192C100.55 133.03 100.412 133.743 100.137 134.33C99.8618 134.916 99.4873 135.364 99.0133 135.672C98.5394 135.98 98.0024 136.134 97.4025 136.134C96.965 136.134 96.6021 136.061 96.3137 135.915C96.0254 135.77 95.7934 135.594 95.6177 135.388C95.4454 135.18 95.3111 134.982 95.215 134.797H95.1404V138.864H93.3407ZM95.1056 132.182C95.1056 132.676 95.1752 133.108 95.3145 133.479C95.457 133.851 95.6608 134.141 95.926 134.349C96.1944 134.555 96.5192 134.658 96.9004 134.658C97.2981 134.658 97.6312 134.552 97.8997 134.339C98.1681 134.124 98.3703 133.831 98.5062 133.46C98.6454 133.085 98.715 132.659 98.715 132.182C98.715 131.708 98.6471 131.287 98.5112 130.919C98.3753 130.551 98.1731 130.263 97.9047 130.054C97.6362 129.845 97.3014 129.741 96.9004 129.741C96.5159 129.741 96.1895 129.842 95.921 130.044C95.6525 130.246 95.4487 130.53 95.3095 130.894C95.1736 131.259 95.1056 131.688 95.1056 132.182ZM105.422 136.149C104.676 136.149 104.03 135.985 103.483 135.657C102.936 135.329 102.512 134.87 102.21 134.28C101.912 133.69 101.763 133 101.763 132.212C101.763 131.423 101.912 130.732 102.21 130.138C102.512 129.545 102.936 129.085 103.483 128.756C104.03 128.428 104.676 128.264 105.422 128.264C106.167 128.264 106.814 128.428 107.361 128.756C107.907 129.085 108.33 129.545 108.628 130.138C108.93 130.732 109.081 131.423 109.081 132.212C109.081 133 108.93 133.69 108.628 134.28C108.33 134.87 107.907 135.329 107.361 135.657C106.814 135.985 106.167 136.149 105.422 136.149ZM105.432 134.707C105.836 134.707 106.174 134.596 106.446 134.374C106.718 134.149 106.92 133.847 107.052 133.469C107.188 133.092 107.256 132.671 107.256 132.207C107.256 131.739 107.188 131.317 107.052 130.939C106.92 130.558 106.718 130.254 106.446 130.029C106.174 129.804 105.836 129.691 105.432 129.691C105.017 129.691 104.673 129.804 104.398 130.029C104.126 130.254 103.922 130.558 103.786 130.939C103.653 131.317 103.587 131.739 103.587 132.207C103.587 132.671 103.653 133.092 103.786 133.469C103.922 133.847 104.126 134.149 104.398 134.374C104.673 134.596 105.017 134.707 105.432 134.707ZM110.608 136V128.364H112.353V129.636H112.433C112.572 129.196 112.811 128.856 113.149 128.617C113.49 128.375 113.88 128.254 114.317 128.254C114.417 128.254 114.528 128.259 114.65 128.269C114.776 128.276 114.881 128.287 114.963 128.304V129.96C114.887 129.933 114.766 129.91 114.6 129.89C114.438 129.867 114.281 129.855 114.128 129.855C113.8 129.855 113.505 129.926 113.243 130.069C112.985 130.208 112.781 130.402 112.632 130.651C112.483 130.899 112.408 131.186 112.408 131.511V136H110.608ZM120.382 128.364V129.756H115.993V128.364H120.382ZM117.076 126.534H118.876V133.703C118.876 133.945 118.913 134.131 118.985 134.26C119.062 134.386 119.161 134.472 119.284 134.518C119.406 134.565 119.542 134.588 119.691 134.588C119.804 134.588 119.907 134.58 120 134.563C120.096 134.547 120.169 134.532 120.218 134.518L120.522 135.925C120.426 135.959 120.288 135.995 120.109 136.035C119.933 136.075 119.718 136.098 119.463 136.104C119.012 136.118 118.606 136.05 118.245 135.901C117.883 135.748 117.597 135.513 117.385 135.195C117.176 134.876 117.073 134.479 117.076 134.001V126.534Z" fill="#4B61DD"/>
<rect x="152.5" y="112.5" width="102" height="37" rx="6.5" fill="white"/>
<rect x="152.5" y="112.5" width="102" height="37" rx="6.5" stroke="#D0D6DD"/>
<path d="M179.117 128.417C182.117 128.675 183.342 130.217 183.342 133.592V134.117C183.342 138.258 181.85 139.333 178.125 139.333H171.867C168.142 139.333 166.65 138.258 166.65 134.117V133.592C166.65 130.242 167.858 128.7 170.808 128.425" fill="#EAECFB"/>
<path d="M179.117 128.417C182.117 128.675 183.342 130.217 183.342 133.592V134.117C183.342 138.258 181.85 139.333 178.125 139.333H171.867C168.142 139.333 166.65 138.258 166.65 134.117V133.592C166.65 130.242 167.858 128.7 170.808 128.425" stroke="#0031BE" stroke-width="1.5" stroke-linecap="round" stroke-linejoin="round"/>
<path d="M175 122.667V134.233" stroke="#0031BE" stroke-width="1.5" stroke-linecap="round" stroke-linejoin="round"/>
<path d="M177.792 132.375L175 135.167L172.208 132.375" stroke="#0031BE" stroke-width="1.5" stroke-linecap="round" stroke-linejoin="round"/>
<path d="M195.872 125.818V136H194.028V125.818H195.872ZM197.79 136V128.364H199.51V129.661H199.6C199.759 129.224 200.022 128.882 200.39 128.637C200.758 128.388 201.197 128.264 201.708 128.264C202.225 128.264 202.66 128.39 203.015 128.642C203.373 128.891 203.625 129.23 203.771 129.661H203.85C204.019 129.237 204.304 128.899 204.705 128.647C205.11 128.392 205.589 128.264 206.142 128.264C206.845 128.264 207.418 128.486 207.862 128.93C208.307 129.375 208.529 130.022 208.529 130.874V136H206.724V131.153C206.724 130.679 206.598 130.332 206.346 130.114C206.094 129.892 205.786 129.781 205.421 129.781C204.987 129.781 204.647 129.916 204.402 130.188C204.16 130.457 204.039 130.806 204.039 131.237V136H202.274V131.078C202.274 130.684 202.155 130.369 201.916 130.134C201.681 129.898 201.373 129.781 200.992 129.781C200.733 129.781 200.498 129.847 200.286 129.979C200.074 130.109 199.905 130.293 199.779 130.531C199.653 130.767 199.59 131.042 199.59 131.357V136H197.79ZM210.354 138.864V128.364H212.124V129.626H212.229C212.321 129.441 212.452 129.244 212.621 129.035C212.79 128.823 213.019 128.642 213.308 128.493C213.596 128.34 213.964 128.264 214.411 128.264C215.001 128.264 215.533 128.415 216.007 128.717C216.484 129.015 216.862 129.457 217.141 130.044C217.422 130.627 217.563 131.343 217.563 132.192C217.563 133.03 217.426 133.743 217.151 134.33C216.875 134.916 216.501 135.364 216.027 135.672C215.553 135.98 215.016 136.134 214.416 136.134C213.979 136.134 213.616 136.061 213.327 135.915C213.039 135.77 212.807 135.594 212.631 135.388C212.459 135.18 212.325 134.982 212.229 134.797H212.154V138.864H210.354ZM212.119 132.182C212.119 132.676 212.189 133.108 212.328 133.479C212.471 133.851 212.674 134.141 212.94 134.349C213.208 134.555 213.533 134.658 213.914 134.658C214.312 134.658 214.645 134.552 214.913 134.339C215.182 134.124 215.384 133.831 215.52 133.46C215.659 133.085 215.729 132.659 215.729 132.182C215.729 131.708 215.661 131.287 215.525 130.919C215.389 130.551 215.187 130.263 214.918 130.054C214.65 129.845 214.315 129.741 213.914 129.741C213.53 129.741 213.203 129.842 212.935 130.044C212.666 130.246 212.462 130.53 212.323 130.894C212.187 131.259 212.119 131.688 212.119 132.182ZM222.435 136.149C221.69 136.149 221.043 135.985 220.496 135.657C219.95 135.329 219.525 134.87 219.224 134.28C218.925 133.69 218.776 133 218.776 132.212C218.776 131.423 218.925 130.732 219.224 130.138C219.525 129.545 219.95 129.085 220.496 128.756C221.043 128.428 221.69 128.264 222.435 128.264C223.181 128.264 223.827 128.428 224.374 128.756C224.921 129.085 225.344 129.545 225.642 130.138C225.944 130.732 226.094 131.423 226.094 132.212C226.094 133 225.944 133.69 225.642 134.28C225.344 134.87 224.921 135.329 224.374 135.657C223.827 135.985 223.181 136.149 222.435 136.149ZM222.445 134.707C222.85 134.707 223.188 134.596 223.46 134.374C223.731 134.149 223.933 133.847 224.066 133.469C224.202 133.092 224.27 132.671 224.27 132.207C224.27 131.739 224.202 131.317 224.066 130.939C223.933 130.558 223.731 130.254 223.46 130.029C223.188 129.804 222.85 129.691 222.445 129.691C222.031 129.691 221.686 129.804 221.411 130.029C221.139 130.254 220.936 130.558 220.8 130.939C220.667 131.317 220.601 131.739 220.601 132.207C220.601 132.671 220.667 133.092 220.8 133.469C220.936 133.847 221.139 134.149 221.411 134.374C221.686 134.596 222.031 134.707 222.445 134.707ZM227.622 136V128.364H229.367V129.636H229.447C229.586 129.196 229.824 128.856 230.162 128.617C230.504 128.375 230.893 128.254 231.331 128.254C231.43 128.254 231.541 128.259 231.664 128.269C231.79 128.276 231.894 128.287 231.977 128.304V129.96C231.901 129.933 231.78 129.91 231.614 129.89C231.452 129.867 231.294 129.855 231.142 129.855C230.814 129.855 230.519 129.926 230.257 130.069C229.998 130.208 229.795 130.402 229.645 130.651C229.496 130.899 229.422 131.186 229.422 131.511V136H227.622ZM237.396 128.364V129.756H233.006V128.364H237.396ZM234.09 126.534H235.89V133.703C235.89 133.945 235.926 134.131 235.999 134.26C236.075 134.386 236.175 134.472 236.297 134.518C236.42 134.565 236.556 134.588 236.705 134.588C236.818 134.588 236.921 134.58 237.013 134.563C237.109 134.547 237.182 134.532 237.232 134.518L237.535 135.925C237.439 135.959 237.302 135.995 237.123 136.035C236.947 136.075 236.732 136.098 236.476 136.104C236.026 136.118 235.62 136.05 235.258 135.901C234.897 135.748 234.61 135.513 234.398 135.195C234.189 134.876 234.087 134.479 234.09 134.001V126.534Z" fill="#4B61DD"/>
<rect x="376.5" y="112.5" width="152" height="37" rx="6.5" fill="white"/>
<rect x="376.5" y="112.5" width="152" height="37" rx="6.5" stroke="#D0D6DD"/>
<path d="M399 139.333C403.583 139.333 407.333 135.583 407.333 131C407.333 126.417 403.583 122.667 399 122.667C394.417 122.667 390.667 126.417 390.667 131C390.667 135.583 394.417 139.333 399 139.333Z" fill="#EAECFB"/>
<path d="M395.458 131L397.817 133.358L402.542 128.642M399 139.333C403.583 139.333 407.333 135.583 407.333 131C407.333 126.417 403.583 122.667 399 122.667C394.417 122.667 390.667 126.417 390.667 131C390.667 135.583 394.417 139.333 399 139.333Z" stroke="#1C44D5" stroke-width="1.5" stroke-linecap="round" stroke-linejoin="round"/>
<path d="M423.835 128.617C423.789 128.183 423.594 127.845 423.249 127.603C422.907 127.361 422.463 127.24 421.916 127.24C421.532 127.24 421.202 127.298 420.927 127.414C420.652 127.53 420.442 127.687 420.296 127.886C420.15 128.085 420.075 128.312 420.072 128.567C420.072 128.78 420.12 128.964 420.216 129.119C420.316 129.275 420.45 129.408 420.619 129.517C420.788 129.623 420.975 129.713 421.181 129.786C421.386 129.858 421.593 129.92 421.802 129.969L422.757 130.208C423.141 130.298 423.511 130.419 423.865 130.571C424.223 130.723 424.543 130.916 424.825 131.148C425.11 131.38 425.335 131.66 425.501 131.988C425.667 132.316 425.75 132.701 425.75 133.141C425.75 133.738 425.597 134.263 425.292 134.717C424.987 135.168 424.546 135.521 423.97 135.776C423.396 136.028 422.702 136.154 421.887 136.154C421.094 136.154 420.407 136.031 419.823 135.786C419.243 135.541 418.789 135.183 418.461 134.712C418.136 134.242 417.961 133.668 417.934 132.992H419.749C419.775 133.347 419.885 133.642 420.077 133.877C420.269 134.112 420.519 134.288 420.828 134.404C421.139 134.52 421.487 134.578 421.872 134.578C422.273 134.578 422.624 134.518 422.926 134.399C423.231 134.277 423.469 134.107 423.642 133.892C423.814 133.673 423.902 133.418 423.905 133.126C423.902 132.861 423.824 132.643 423.671 132.47C423.519 132.295 423.305 132.149 423.03 132.033C422.758 131.913 422.44 131.807 422.076 131.714L420.917 131.416C420.079 131.201 419.416 130.874 418.929 130.437C418.445 129.996 418.203 129.411 418.203 128.682C418.203 128.082 418.365 127.557 418.69 127.106C419.018 126.655 419.464 126.305 420.027 126.057C420.591 125.805 421.229 125.679 421.941 125.679C422.664 125.679 423.297 125.805 423.84 126.057C424.387 126.305 424.817 126.652 425.128 127.096C425.44 127.537 425.6 128.044 425.61 128.617H423.835ZM429.512 136.154C429.028 136.154 428.592 136.068 428.204 135.896C427.82 135.72 427.515 135.461 427.29 135.12C427.067 134.779 426.956 134.358 426.956 133.857C426.956 133.426 427.036 133.07 427.195 132.788C427.354 132.507 427.571 132.281 427.846 132.112C428.121 131.943 428.431 131.816 428.776 131.729C429.124 131.64 429.484 131.575 429.855 131.536C430.302 131.489 430.665 131.448 430.944 131.411C431.222 131.371 431.424 131.312 431.55 131.232C431.679 131.149 431.744 131.022 431.744 130.849V130.82C431.744 130.445 431.633 130.155 431.411 129.95C431.189 129.744 430.869 129.641 430.451 129.641C430.011 129.641 429.661 129.737 429.402 129.93C429.147 130.122 428.975 130.349 428.885 130.611L427.205 130.372C427.338 129.908 427.556 129.52 427.861 129.209C428.166 128.894 428.539 128.659 428.98 128.503C429.421 128.344 429.908 128.264 430.441 128.264C430.809 128.264 431.176 128.307 431.54 128.393C431.905 128.48 432.238 128.622 432.54 128.821C432.841 129.017 433.083 129.283 433.265 129.621C433.451 129.96 433.544 130.382 433.544 130.889V136H431.814V134.951H431.754C431.645 135.163 431.491 135.362 431.292 135.548C431.096 135.73 430.849 135.877 430.551 135.99C430.256 136.099 429.91 136.154 429.512 136.154ZM429.979 134.832C430.34 134.832 430.654 134.76 430.919 134.618C431.184 134.472 431.388 134.28 431.53 134.041C431.676 133.803 431.749 133.542 431.749 133.261V132.361C431.693 132.407 431.597 132.45 431.461 132.49C431.328 132.53 431.179 132.565 431.013 132.594C430.848 132.624 430.683 132.651 430.521 132.674C430.359 132.697 430.218 132.717 430.098 132.734C429.83 132.77 429.59 132.83 429.378 132.913C429.165 132.996 428.998 133.112 428.875 133.261C428.753 133.406 428.691 133.595 428.691 133.827C428.691 134.159 428.812 134.409 429.054 134.578C429.296 134.747 429.605 134.832 429.979 134.832ZM441.901 128.364L439.182 136H437.193L434.473 128.364H436.392L438.147 134.036H438.227L439.987 128.364H441.901ZM446.267 136.149C445.502 136.149 444.84 135.99 444.284 135.672C443.73 135.35 443.304 134.896 443.006 134.31C442.708 133.72 442.559 133.025 442.559 132.227C442.559 131.441 442.708 130.752 443.006 130.158C443.308 129.562 443.728 129.098 444.269 128.766C444.809 128.432 445.444 128.264 446.173 128.264C446.643 128.264 447.088 128.34 447.505 128.493C447.926 128.642 448.297 128.874 448.619 129.189C448.944 129.504 449.199 129.905 449.384 130.392C449.57 130.876 449.663 131.453 449.663 132.122V132.674H443.404V131.461H447.938C447.934 131.116 447.86 130.81 447.714 130.541C447.568 130.269 447.364 130.056 447.103 129.9C446.844 129.744 446.542 129.666 446.198 129.666C445.83 129.666 445.507 129.756 445.228 129.935C444.95 130.11 444.733 130.342 444.577 130.631C444.425 130.916 444.347 131.229 444.343 131.57V132.629C444.343 133.073 444.425 133.455 444.587 133.773C444.749 134.088 444.976 134.33 445.268 134.499C445.56 134.664 445.901 134.747 446.292 134.747C446.554 134.747 446.791 134.711 447.003 134.638C447.215 134.562 447.399 134.451 447.555 134.305C447.711 134.159 447.828 133.978 447.908 133.763L449.588 133.952C449.482 134.396 449.28 134.784 448.982 135.115C448.687 135.443 448.309 135.698 447.848 135.881C447.388 136.06 446.861 136.149 446.267 136.149ZM457.989 136.149C457.227 136.149 456.572 135.982 456.025 135.647C455.482 135.312 455.062 134.85 454.767 134.26C454.476 133.667 454.33 132.984 454.33 132.212C454.33 131.436 454.479 130.752 454.777 130.158C455.076 129.562 455.497 129.098 456.04 128.766C456.587 128.432 457.233 128.264 457.979 128.264C458.599 128.264 459.147 128.379 459.625 128.607C460.105 128.833 460.488 129.152 460.773 129.567C461.058 129.978 461.221 130.458 461.26 131.009H459.54C459.471 130.641 459.305 130.334 459.043 130.089C458.785 129.84 458.438 129.716 458.004 129.716C457.636 129.716 457.313 129.815 457.035 130.014C456.756 130.21 456.539 130.491 456.383 130.859C456.231 131.227 456.155 131.668 456.155 132.182C456.155 132.702 456.231 133.15 456.383 133.524C456.536 133.895 456.749 134.182 457.025 134.384C457.303 134.583 457.629 134.683 458.004 134.683C458.269 134.683 458.506 134.633 458.715 134.533C458.927 134.431 459.104 134.283 459.247 134.091C459.389 133.899 459.487 133.665 459.54 133.39H461.26C461.217 133.93 461.058 134.409 460.783 134.827C460.508 135.241 460.133 135.566 459.66 135.801C459.186 136.033 458.629 136.149 457.989 136.149ZM464.538 131.526V136H462.738V125.818H464.498V129.661H464.588C464.767 129.23 465.043 128.891 465.418 128.642C465.796 128.39 466.276 128.264 466.86 128.264C467.39 128.264 467.852 128.375 468.247 128.597C468.641 128.819 468.946 129.144 469.161 129.572C469.38 129.999 469.49 130.521 469.49 131.138V136H467.69V131.416C467.69 130.902 467.557 130.503 467.292 130.218C467.03 129.93 466.662 129.786 466.188 129.786C465.87 129.786 465.585 129.855 465.333 129.994C465.085 130.13 464.889 130.327 464.747 130.586C464.608 130.844 464.538 131.158 464.538 131.526ZM473.522 136.154C473.038 136.154 472.602 136.068 472.214 135.896C471.83 135.72 471.525 135.461 471.299 135.12C471.077 134.779 470.966 134.358 470.966 133.857C470.966 133.426 471.046 133.07 471.205 132.788C471.364 132.507 471.581 132.281 471.856 132.112C472.131 131.943 472.441 131.816 472.786 131.729C473.134 131.64 473.493 131.575 473.865 131.536C474.312 131.489 474.675 131.448 474.953 131.411C475.232 131.371 475.434 131.312 475.56 131.232C475.689 131.149 475.754 131.022 475.754 130.849V130.82C475.754 130.445 475.643 130.155 475.421 129.95C475.199 129.744 474.879 129.641 474.461 129.641C474.02 129.641 473.671 129.737 473.412 129.93C473.157 130.122 472.985 130.349 472.895 130.611L471.215 130.372C471.347 129.908 471.566 129.52 471.871 129.209C472.176 128.894 472.549 128.659 472.99 128.503C473.43 128.344 473.918 128.264 474.451 128.264C474.819 128.264 475.185 128.307 475.55 128.393C475.915 128.48 476.248 128.622 476.549 128.821C476.851 129.017 477.093 129.283 477.275 129.621C477.461 129.96 477.554 130.382 477.554 130.889V136H475.823V134.951H475.764C475.654 135.163 475.5 135.362 475.301 135.548C475.106 135.73 474.859 135.877 474.561 135.99C474.266 136.099 473.919 136.154 473.522 136.154ZM473.989 134.832C474.35 134.832 474.663 134.76 474.929 134.618C475.194 134.472 475.398 134.28 475.54 134.041C475.686 133.803 475.759 133.542 475.759 133.261V132.361C475.702 132.407 475.606 132.45 475.47 132.49C475.338 132.53 475.189 132.565 475.023 132.594C474.857 132.624 474.693 132.651 474.531 132.674C474.368 132.697 474.228 132.717 474.108 132.734C473.84 132.77 473.599 132.83 473.387 132.913C473.175 132.996 473.008 133.112 472.885 133.261C472.763 133.406 472.701 133.595 472.701 133.827C472.701 134.159 472.822 134.409 473.064 134.578C473.306 134.747 473.614 134.832 473.989 134.832ZM481.163 131.526V136H479.363V128.364H481.083V129.661H481.173C481.349 129.234 481.629 128.894 482.013 128.642C482.401 128.39 482.88 128.264 483.45 128.264C483.977 128.264 484.436 128.377 484.827 128.602C485.221 128.828 485.526 129.154 485.742 129.582C485.96 130.009 486.068 130.528 486.065 131.138V136H484.265V131.416C484.265 130.906 484.133 130.506 483.867 130.218C483.606 129.93 483.243 129.786 482.779 129.786C482.464 129.786 482.184 129.855 481.938 129.994C481.697 130.13 481.506 130.327 481.367 130.586C481.231 130.844 481.163 131.158 481.163 131.526ZM491.215 139.023C490.569 139.023 490.014 138.935 489.55 138.759C489.086 138.587 488.713 138.355 488.431 138.063C488.15 137.772 487.954 137.448 487.845 137.094L489.465 136.701C489.538 136.85 489.644 136.998 489.784 137.143C489.923 137.293 490.11 137.415 490.345 137.511C490.584 137.611 490.884 137.661 491.245 137.661C491.756 137.661 492.178 137.536 492.513 137.288C492.848 137.042 493.015 136.638 493.015 136.075V134.628H492.926C492.833 134.813 492.697 135.004 492.518 135.2C492.342 135.395 492.109 135.559 491.817 135.692C491.529 135.824 491.166 135.891 490.728 135.891C490.142 135.891 489.61 135.753 489.132 135.478C488.658 135.2 488.281 134.785 487.999 134.235C487.72 133.682 487.581 132.989 487.581 132.157C487.581 131.318 487.72 130.611 487.999 130.034C488.281 129.454 488.66 129.015 489.137 128.717C489.615 128.415 490.147 128.264 490.733 128.264C491.181 128.264 491.549 128.34 491.837 128.493C492.129 128.642 492.361 128.823 492.533 129.035C492.705 129.244 492.836 129.441 492.926 129.626H493.025V128.364H494.8V136.124C494.8 136.777 494.644 137.317 494.333 137.745C494.021 138.173 493.595 138.492 493.055 138.705C492.515 138.917 491.902 139.023 491.215 139.023ZM491.23 134.479C491.612 134.479 491.936 134.386 492.205 134.2C492.473 134.015 492.677 133.748 492.816 133.4C492.956 133.052 493.025 132.634 493.025 132.147C493.025 131.666 492.956 131.246 492.816 130.884C492.68 130.523 492.478 130.243 492.21 130.044C491.945 129.842 491.618 129.741 491.23 129.741C490.829 129.741 490.495 129.845 490.226 130.054C489.958 130.263 489.755 130.549 489.62 130.914C489.484 131.275 489.416 131.686 489.416 132.147C489.416 132.614 489.484 133.024 489.62 133.375C489.759 133.723 489.963 133.995 490.231 134.19C490.503 134.383 490.836 134.479 491.23 134.479ZM500.025 136.149C499.259 136.149 498.598 135.99 498.041 135.672C497.488 135.35 497.062 134.896 496.764 134.31C496.465 133.72 496.316 133.025 496.316 132.227C496.316 131.441 496.465 130.752 496.764 130.158C497.065 129.562 497.486 129.098 498.027 128.766C498.567 128.432 499.201 128.264 499.931 128.264C500.401 128.264 500.845 128.34 501.263 128.493C501.684 128.642 502.055 128.874 502.377 129.189C502.701 129.504 502.957 129.905 503.142 130.392C503.328 130.876 503.421 131.453 503.421 132.122V132.674H497.161V131.461H501.696C501.692 131.116 501.618 130.81 501.472 130.541C501.326 130.269 501.122 130.056 500.86 129.9C500.602 129.744 500.3 129.666 499.956 129.666C499.588 129.666 499.264 129.756 498.986 129.935C498.708 130.11 498.491 130.342 498.335 130.631C498.182 130.916 498.104 131.229 498.101 131.57V132.629C498.101 133.073 498.182 133.455 498.345 133.773C498.507 134.088 498.734 134.33 499.026 134.499C499.318 134.664 499.659 134.747 500.05 134.747C500.312 134.747 500.549 134.711 500.761 134.638C500.973 134.562 501.157 134.451 501.313 134.305C501.469 134.159 501.586 133.978 501.666 133.763L503.346 133.952C503.24 134.396 503.038 134.784 502.74 135.115C502.445 135.443 502.067 135.698 501.606 135.881C501.145 136.06 500.618 136.149 500.025 136.149ZM510.979 130.382L509.338 130.561C509.292 130.395 509.211 130.24 509.095 130.094C508.982 129.948 508.829 129.83 508.637 129.741C508.445 129.651 508.21 129.607 507.931 129.607C507.557 129.607 507.242 129.688 506.987 129.85C506.735 130.013 506.61 130.223 506.614 130.482C506.61 130.704 506.692 130.884 506.857 131.023C507.026 131.163 507.305 131.277 507.693 131.366L508.995 131.645C509.718 131.801 510.255 132.048 510.606 132.386C510.961 132.724 511.14 133.166 511.143 133.713C511.14 134.194 510.999 134.618 510.72 134.986C510.445 135.35 510.062 135.635 509.572 135.841C509.081 136.046 508.518 136.149 507.881 136.149C506.947 136.149 506.194 135.954 505.624 135.562C505.054 135.168 504.715 134.62 504.605 133.917L506.36 133.748C506.44 134.093 506.609 134.353 506.867 134.528C507.126 134.704 507.462 134.792 507.877 134.792C508.304 134.792 508.647 134.704 508.906 134.528C509.167 134.353 509.298 134.136 509.298 133.877C509.298 133.658 509.214 133.478 509.045 133.335C508.879 133.193 508.621 133.083 508.269 133.007L506.967 132.734C506.234 132.581 505.692 132.324 505.341 131.963C504.99 131.598 504.816 131.138 504.819 130.581C504.816 130.11 504.943 129.703 505.202 129.358C505.464 129.01 505.827 128.741 506.291 128.553C506.758 128.36 507.296 128.264 507.906 128.264C508.801 128.264 509.506 128.455 510.019 128.836C510.536 129.217 510.856 129.732 510.979 130.382Z" fill="#4B61DD"/>
<defs>
<clipPath id="clip0_3665_99765">
<rect width="286" height="286" rx="8" fill="white"/>
</clipPath>
<clipPath id="clip1_3665_99765">
<rect x="310" width="286" height="286" rx="8" fill="white"/>
</clipPath>
</defs>
</svg>
