<svg width="596" height="286" viewBox="0 0 596 286" fill="none" xmlns="http://www.w3.org/2000/svg">
<g clip-path="url(#clip0_3648_105964)">
<rect width="286" height="286" rx="8" fill="white"/>
<rect y="278" width="286" height="8" fill="#4FB262"/>
<path fill-rule="evenodd" clip-rule="evenodd" d="M243.25 32C243.25 26.0858 248.086 21.25 254 21.25C259.914 21.25 264.75 26.0858 264.75 32C264.75 37.9142 259.914 42.75 254 42.75C248.086 42.75 243.25 37.9142 243.25 32ZM258.78 29.7008C259.073 29.4082 259.073 28.9333 258.781 28.6402C258.488 28.347 258.013 28.3466 257.72 28.6392L252.58 33.7698L250.28 31.4697C249.987 31.1768 249.513 31.1768 249.22 31.4697C248.927 31.7626 248.927 32.2374 249.22 32.5303L252.05 35.3603C252.342 35.6531 252.817 35.6533 253.11 35.3608L258.78 29.7008Z" fill="#68BE79"/>
</g>
<rect x="0.5" y="0.5" width="285" height="285" rx="7.5" stroke="#D0D6DD"/>
<g clip-path="url(#clip1_3648_105964)">
<rect x="310" width="286" height="286" rx="8" fill="white"/>
<rect x="310" y="278" width="286" height="8" fill="#C83E39"/>
<path fill-rule="evenodd" clip-rule="evenodd" d="M553.25 32C553.25 26.0858 558.086 21.25 564 21.25C569.914 21.25 574.75 26.0858 574.75 32C574.75 37.9142 569.914 42.75 564 42.75C558.086 42.75 553.25 37.9142 553.25 32ZM567.36 28.6397C567.653 28.9326 567.653 29.4075 567.36 29.7003L565.061 32L567.36 34.2997C567.653 34.5926 567.653 35.0674 567.36 35.3603C567.067 35.6532 566.592 35.6532 566.3 35.3603L564 33.0607L561.7 35.3603C561.407 35.6532 560.932 35.6532 560.64 35.3603C560.347 35.0674 560.347 34.5926 560.64 34.2997L562.939 32L560.64 29.7003C560.347 29.4075 560.347 28.9326 560.64 28.6397C560.932 28.3468 561.407 28.3468 561.7 28.6397L564 30.9394L566.3 28.6397C566.592 28.3468 567.067 28.3468 567.36 28.6397Z" fill="#DA473F"/>
</g>
<rect x="310.5" y="0.5" width="285" height="285" rx="7.5" stroke="#D0D6DD"/>
<rect x="70" y="112.5" width="146" height="37" rx="6.5" fill="#4B61DD"/>
<rect x="70" y="112.5" width="146" height="37" rx="6.5" stroke="#4B61DD"/>
<path d="M96.4939 129.254H94.6345C94.5815 128.949 94.4837 128.679 94.3412 128.443C94.1987 128.205 94.0213 128.002 93.8092 127.837C93.5971 127.671 93.3551 127.547 93.0834 127.464C92.8149 127.378 92.5249 127.335 92.2133 127.335C91.6598 127.335 91.1693 127.474 90.7417 127.752C90.3142 128.027 89.9794 128.432 89.7375 128.965C89.4955 129.496 89.3746 130.143 89.3746 130.909C89.3746 131.688 89.4955 132.344 89.7375 132.878C89.9827 133.408 90.3175 133.809 90.7417 134.081C91.1693 134.349 91.6582 134.484 92.2084 134.484C92.5133 134.484 92.7983 134.444 93.0635 134.364C93.3319 134.281 93.5722 134.161 93.7844 134.001C93.9998 133.842 94.1804 133.647 94.3263 133.415C94.4754 133.183 94.5782 132.918 94.6345 132.619L96.4939 132.629C96.4243 133.113 96.2735 133.567 96.0415 133.991C95.8128 134.416 95.5128 134.79 95.1416 135.115C94.7704 135.437 94.3362 135.688 93.839 135.871C93.3419 136.05 92.79 136.139 92.1835 136.139C91.2886 136.139 90.4898 135.932 89.7872 135.518C89.0845 135.103 88.531 134.505 88.1267 133.723C87.7223 132.941 87.5202 132.003 87.5202 130.909C87.5202 129.812 87.724 128.874 88.1317 128.095C88.5393 127.313 89.0945 126.715 89.7971 126.3C90.4998 125.886 91.2952 125.679 92.1835 125.679C92.7503 125.679 93.2773 125.759 93.7645 125.918C94.2517 126.077 94.6859 126.31 95.067 126.619C95.4482 126.924 95.7614 127.298 96.0067 127.742C96.2552 128.183 96.4176 128.687 96.4939 129.254ZM98.1034 136V128.364H99.8485V129.636H99.928C100.067 129.196 100.306 128.856 100.644 128.617C100.985 128.375 101.375 128.254 101.812 128.254C101.912 128.254 102.023 128.259 102.145 128.269C102.271 128.276 102.376 128.287 102.459 128.304V129.96C102.382 129.933 102.261 129.91 102.096 129.89C101.933 129.867 101.776 129.855 101.623 129.855C101.295 129.855 101 129.926 100.738 130.069C100.48 130.208 100.276 130.402 100.127 130.651C99.9777 130.899 99.9031 131.186 99.9031 131.511V136H98.1034ZM106.72 136.149C105.955 136.149 105.294 135.99 104.737 135.672C104.183 135.35 103.757 134.896 103.459 134.31C103.161 133.72 103.012 133.025 103.012 132.227C103.012 131.441 103.161 130.752 103.459 130.158C103.761 129.562 104.182 129.098 104.722 128.766C105.262 128.432 105.897 128.264 106.626 128.264C107.097 128.264 107.541 128.34 107.958 128.493C108.379 128.642 108.751 128.874 109.072 129.189C109.397 129.504 109.652 129.905 109.838 130.392C110.023 130.876 110.116 131.453 110.116 132.122V132.674H103.857V131.461H108.391C108.388 131.116 108.313 130.81 108.167 130.541C108.021 130.269 107.818 130.056 107.556 129.9C107.297 129.744 106.996 129.666 106.651 129.666C106.283 129.666 105.96 129.756 105.681 129.935C105.403 130.11 105.186 130.342 105.03 130.631C104.878 130.916 104.8 131.229 104.796 131.57V132.629C104.796 133.073 104.878 133.455 105.04 133.773C105.202 134.088 105.429 134.33 105.721 134.499C106.013 134.664 106.354 134.747 106.745 134.747C107.007 134.747 107.244 134.711 107.456 134.638C107.668 134.562 107.852 134.451 108.008 134.305C108.164 134.159 108.282 133.978 108.361 133.763L110.041 133.952C109.935 134.396 109.733 134.784 109.435 135.115C109.14 135.443 108.762 135.698 108.301 135.881C107.841 136.06 107.314 136.149 106.72 136.149ZM113.836 136.154C113.352 136.154 112.916 136.068 112.528 135.896C112.144 135.72 111.839 135.461 111.614 135.12C111.392 134.779 111.281 134.358 111.281 133.857C111.281 133.426 111.36 133.07 111.519 132.788C111.678 132.507 111.895 132.281 112.171 132.112C112.446 131.943 112.756 131.816 113.1 131.729C113.448 131.64 113.808 131.575 114.179 131.536C114.627 131.489 114.989 131.448 115.268 131.411C115.546 131.371 115.748 131.312 115.874 131.232C116.004 131.149 116.068 131.022 116.068 130.849V130.82C116.068 130.445 115.957 130.155 115.735 129.95C115.513 129.744 115.193 129.641 114.776 129.641C114.335 129.641 113.985 129.737 113.727 129.93C113.471 130.122 113.299 130.349 113.21 130.611L111.529 130.372C111.662 129.908 111.881 129.52 112.185 129.209C112.49 128.894 112.863 128.659 113.304 128.503C113.745 128.344 114.232 128.264 114.766 128.264C115.134 128.264 115.5 128.307 115.864 128.393C116.229 128.48 116.562 128.622 116.864 128.821C117.165 129.017 117.407 129.283 117.59 129.621C117.775 129.96 117.868 130.382 117.868 130.889V136H116.138V134.951H116.078C115.969 135.163 115.815 135.362 115.616 135.548C115.42 135.73 115.173 135.877 114.875 135.99C114.58 136.099 114.234 136.154 113.836 136.154ZM114.303 134.832C114.665 134.832 114.978 134.76 115.243 134.618C115.508 134.472 115.712 134.28 115.854 134.041C116 133.803 116.073 133.542 116.073 133.261V132.361C116.017 132.407 115.921 132.45 115.785 132.49C115.652 132.53 115.503 132.565 115.337 132.594C115.172 132.624 115.008 132.651 114.845 132.674C114.683 132.697 114.542 132.717 114.423 132.734C114.154 132.77 113.914 132.83 113.702 132.913C113.49 132.996 113.322 133.112 113.2 133.261C113.077 133.406 113.016 133.595 113.016 133.827C113.016 134.159 113.137 134.409 113.379 134.578C113.621 134.747 113.929 134.832 114.303 134.832ZM123.491 128.364V129.756H119.101V128.364H123.491ZM120.185 126.534H121.984V133.703C121.984 133.945 122.021 134.131 122.094 134.26C122.17 134.386 122.27 134.472 122.392 134.518C122.515 134.565 122.651 134.588 122.8 134.588C122.912 134.588 123.015 134.58 123.108 134.563C123.204 134.547 123.277 134.532 123.327 134.518L123.63 135.925C123.534 135.959 123.396 135.995 123.217 136.035C123.042 136.075 122.826 136.098 122.571 136.104C122.12 136.118 121.714 136.05 121.353 135.901C120.992 135.748 120.705 135.513 120.493 135.195C120.284 134.876 120.181 134.479 120.185 134.001V126.534ZM128.295 136.149C127.529 136.149 126.868 135.99 126.311 135.672C125.757 135.35 125.332 134.896 125.033 134.31C124.735 133.72 124.586 133.025 124.586 132.227C124.586 131.441 124.735 130.752 125.033 130.158C125.335 129.562 125.756 129.098 126.296 128.766C126.836 128.432 127.471 128.264 128.2 128.264C128.671 128.264 129.115 128.34 129.533 128.493C129.954 128.642 130.325 128.874 130.646 129.189C130.971 129.504 131.226 129.905 131.412 130.392C131.597 130.876 131.69 131.453 131.69 132.122V132.674H125.431V131.461H129.965C129.962 131.116 129.887 130.81 129.741 130.541C129.596 130.269 129.392 130.056 129.13 129.9C128.871 129.744 128.57 129.666 128.225 129.666C127.857 129.666 127.534 129.756 127.256 129.935C126.977 130.11 126.76 130.342 126.604 130.631C126.452 130.916 126.374 131.229 126.371 131.57V132.629C126.371 133.073 126.452 133.455 126.614 133.773C126.777 134.088 127.004 134.33 127.295 134.499C127.587 134.664 127.928 134.747 128.32 134.747C128.581 134.747 128.818 134.711 129.03 134.638C129.243 134.562 129.427 134.451 129.582 134.305C129.738 134.159 129.856 133.978 129.935 133.763L131.616 133.952C131.51 134.396 131.307 134.784 131.009 135.115C130.714 135.443 130.336 135.698 129.876 135.881C129.415 136.06 128.888 136.149 128.295 136.149ZM138.485 131.526V136H136.685V128.364H138.406V129.661H138.495C138.671 129.234 138.951 128.894 139.335 128.642C139.723 128.39 140.202 128.264 140.772 128.264C141.299 128.264 141.758 128.377 142.149 128.602C142.544 128.828 142.849 129.154 143.064 129.582C143.283 130.009 143.39 130.528 143.387 131.138V136H141.587V131.416C141.587 130.906 141.455 130.506 141.19 130.218C140.928 129.93 140.565 129.786 140.101 129.786C139.786 129.786 139.506 129.855 139.261 129.994C139.019 130.13 138.828 130.327 138.689 130.586C138.553 130.844 138.485 131.158 138.485 131.526ZM148.597 136.149C147.832 136.149 147.171 135.99 146.614 135.672C146.06 135.35 145.634 134.896 145.336 134.31C145.038 133.72 144.889 133.025 144.889 132.227C144.889 131.441 145.038 130.752 145.336 130.158C145.638 129.562 146.059 129.098 146.599 128.766C147.139 128.432 147.774 128.264 148.503 128.264C148.974 128.264 149.418 128.34 149.835 128.493C150.256 128.642 150.627 128.874 150.949 129.189C151.274 129.504 151.529 129.905 151.715 130.392C151.9 130.876 151.993 131.453 151.993 132.122V132.674H145.734V131.461H150.268C150.265 131.116 150.19 130.81 150.044 130.541C149.898 130.269 149.694 130.056 149.433 129.9C149.174 129.744 148.872 129.666 148.528 129.666C148.16 129.666 147.837 129.756 147.558 129.935C147.28 130.11 147.063 130.342 146.907 130.631C146.755 130.916 146.677 131.229 146.673 131.57V132.629C146.673 133.073 146.755 133.455 146.917 133.773C147.079 134.088 147.306 134.33 147.598 134.499C147.89 134.664 148.231 134.747 148.622 134.747C148.884 134.747 149.121 134.711 149.333 134.638C149.545 134.562 149.729 134.451 149.885 134.305C150.041 134.159 150.158 133.978 150.238 133.763L151.918 133.952C151.812 134.396 151.61 134.784 151.312 135.115C151.017 135.443 150.639 135.698 150.178 135.881C149.718 136.06 149.191 136.149 148.597 136.149ZM155.051 136L152.893 128.364H154.727L156.07 133.733H156.139L157.511 128.364H159.326L160.698 133.703H160.773L162.095 128.364H163.935L161.772 136H159.898L158.466 130.839H158.362L156.93 136H155.051ZM170.464 125.818V136H168.664V125.818H170.464ZM175.695 136.149C174.929 136.149 174.268 135.99 173.711 135.672C173.158 135.35 172.732 134.896 172.434 134.31C172.135 133.72 171.986 133.025 171.986 132.227C171.986 131.441 172.135 130.752 172.434 130.158C172.735 129.562 173.156 129.098 173.696 128.766C174.237 128.432 174.871 128.264 175.601 128.264C176.071 128.264 176.515 128.34 176.933 128.493C177.354 128.642 177.725 128.874 178.047 129.189C178.371 129.504 178.627 129.905 178.812 130.392C178.998 130.876 179.091 131.453 179.091 132.122V132.674H172.831V131.461H177.366C177.362 131.116 177.288 130.81 177.142 130.541C176.996 130.269 176.792 130.056 176.53 129.9C176.272 129.744 175.97 129.666 175.625 129.666C175.258 129.666 174.934 129.756 174.656 129.935C174.378 130.11 174.16 130.342 174.005 130.631C173.852 130.916 173.774 131.229 173.771 131.57V132.629C173.771 133.073 173.852 133.455 174.015 133.773C174.177 134.088 174.404 134.33 174.696 134.499C174.987 134.664 175.329 134.747 175.72 134.747C175.982 134.747 176.219 134.711 176.431 134.638C176.643 134.562 176.827 134.451 176.983 134.305C177.138 134.159 177.256 133.978 177.336 133.763L179.016 133.952C178.91 134.396 178.708 134.784 178.41 135.115C178.115 135.443 177.737 135.698 177.276 135.881C176.815 136.06 176.288 136.149 175.695 136.149ZM187.215 128.364L184.496 136H182.507L179.788 128.364H181.707L183.462 134.036H183.541L185.301 128.364H187.215ZM191.582 136.149C190.816 136.149 190.155 135.99 189.598 135.672C189.045 135.35 188.619 134.896 188.32 134.31C188.022 133.72 187.873 133.025 187.873 132.227C187.873 131.441 188.022 130.752 188.32 130.158C188.622 129.562 189.043 129.098 189.583 128.766C190.123 128.432 190.758 128.264 191.487 128.264C191.958 128.264 192.402 128.34 192.82 128.493C193.241 128.642 193.612 128.874 193.933 129.189C194.258 129.504 194.513 129.905 194.699 130.392C194.885 130.876 194.977 131.453 194.977 132.122V132.674H188.718V131.461H193.252C193.249 131.116 193.174 130.81 193.028 130.541C192.883 130.269 192.679 130.056 192.417 129.9C192.158 129.744 191.857 129.666 191.512 129.666C191.144 129.666 190.821 129.756 190.543 129.935C190.264 130.11 190.047 130.342 189.891 130.631C189.739 130.916 189.661 131.229 189.658 131.57V132.629C189.658 133.073 189.739 133.455 189.901 133.773C190.064 134.088 190.291 134.33 190.582 134.499C190.874 134.664 191.216 134.747 191.607 134.747C191.868 134.747 192.105 134.711 192.318 134.638C192.53 134.562 192.714 134.451 192.869 134.305C193.025 134.159 193.143 133.978 193.222 133.763L194.903 133.952C194.797 134.396 194.595 134.784 194.296 135.115C194.001 135.443 193.623 135.698 193.163 135.881C192.702 136.06 192.175 136.149 191.582 136.149ZM198.3 125.818V136H196.5V125.818H198.3Z" fill="white"/>
<rect x="338.5" y="112.5" width="229" height="37" rx="6.5" fill="#4B61DD"/>
<rect x="338.5" y="112.5" width="229" height="37" rx="6.5" stroke="#4B61DD"/>
<path d="M365.218 129.254H363.359C363.306 128.949 363.208 128.679 363.066 128.443C362.923 128.205 362.746 128.002 362.534 127.837C362.322 127.671 362.08 127.547 361.808 127.464C361.54 127.378 361.249 127.335 360.938 127.335C360.384 127.335 359.894 127.474 359.466 127.752C359.039 128.027 358.704 128.432 358.462 128.965C358.22 129.496 358.099 130.143 358.099 130.909C358.099 131.688 358.22 132.344 358.462 132.878C358.707 133.408 359.042 133.809 359.466 134.081C359.894 134.349 360.383 134.484 360.933 134.484C361.238 134.484 361.523 134.444 361.788 134.364C362.057 134.281 362.297 134.161 362.509 134.001C362.724 133.842 362.905 133.647 363.051 133.415C363.2 133.183 363.303 132.918 363.359 132.619L365.218 132.629C365.149 133.113 364.998 133.567 364.766 133.991C364.537 134.416 364.237 134.79 363.866 135.115C363.495 135.437 363.061 135.688 362.564 135.871C362.066 136.05 361.515 136.139 360.908 136.139C360.013 136.139 359.214 135.932 358.512 135.518C357.809 135.103 357.256 134.505 356.851 133.723C356.447 132.941 356.245 132.003 356.245 130.909C356.245 129.812 356.449 128.874 356.856 128.095C357.264 127.313 357.819 126.715 358.522 126.3C359.224 125.886 360.02 125.679 360.908 125.679C361.475 125.679 362.002 125.759 362.489 125.918C362.976 126.077 363.41 126.31 363.792 126.619C364.173 126.924 364.486 127.298 364.731 127.742C364.98 128.183 365.142 128.687 365.218 129.254ZM366.828 136V128.364H368.573V129.636H368.653C368.792 129.196 369.03 128.856 369.369 128.617C369.71 128.375 370.099 128.254 370.537 128.254C370.636 128.254 370.747 128.259 370.87 128.269C370.996 128.276 371.1 128.287 371.183 128.304V129.96C371.107 129.933 370.986 129.91 370.82 129.89C370.658 129.867 370.5 129.855 370.348 129.855C370.02 129.855 369.725 129.926 369.463 130.069C369.204 130.208 369.001 130.402 368.851 130.651C368.702 130.899 368.628 131.186 368.628 131.511V136H366.828ZM375.445 136.149C374.679 136.149 374.018 135.99 373.461 135.672C372.908 135.35 372.482 134.896 372.184 134.31C371.885 133.72 371.736 133.025 371.736 132.227C371.736 131.441 371.885 130.752 372.184 130.158C372.485 129.562 372.906 129.098 373.446 128.766C373.987 128.432 374.621 128.264 375.351 128.264C375.821 128.264 376.265 128.34 376.683 128.493C377.104 128.642 377.475 128.874 377.797 129.189C378.121 129.504 378.377 129.905 378.562 130.392C378.748 130.876 378.841 131.453 378.841 132.122V132.674H372.581V131.461H377.116C377.112 131.116 377.038 130.81 376.892 130.541C376.746 130.269 376.542 130.056 376.28 129.9C376.022 129.744 375.72 129.666 375.375 129.666C375.008 129.666 374.684 129.756 374.406 129.935C374.128 130.11 373.91 130.342 373.755 130.631C373.602 130.916 373.524 131.229 373.521 131.57V132.629C373.521 133.073 373.602 133.455 373.765 133.773C373.927 134.088 374.154 134.33 374.446 134.499C374.737 134.664 375.079 134.747 375.47 134.747C375.732 134.747 375.969 134.711 376.181 134.638C376.393 134.562 376.577 134.451 376.733 134.305C376.888 134.159 377.006 133.978 377.086 133.763L378.766 133.952C378.66 134.396 378.458 134.784 378.16 135.115C377.865 135.443 377.487 135.698 377.026 135.881C376.565 136.06 376.038 136.149 375.445 136.149ZM382.561 136.154C382.077 136.154 381.641 136.068 381.253 135.896C380.869 135.72 380.564 135.461 380.338 135.12C380.116 134.779 380.005 134.358 380.005 133.857C380.005 133.426 380.085 133.07 380.244 132.788C380.403 132.507 380.62 132.281 380.895 132.112C381.17 131.943 381.48 131.816 381.825 131.729C382.173 131.64 382.532 131.575 382.904 131.536C383.351 131.489 383.714 131.448 383.992 131.411C384.271 131.371 384.473 131.312 384.599 131.232C384.728 131.149 384.793 131.022 384.793 130.849V130.82C384.793 130.445 384.682 130.155 384.46 129.95C384.238 129.744 383.918 129.641 383.5 129.641C383.059 129.641 382.71 129.737 382.451 129.93C382.196 130.122 382.024 130.349 381.934 130.611L380.254 130.372C380.386 129.908 380.605 129.52 380.91 129.209C381.215 128.894 381.588 128.659 382.029 128.503C382.469 128.344 382.957 128.264 383.49 128.264C383.858 128.264 384.224 128.307 384.589 128.393C384.954 128.48 385.287 128.622 385.588 128.821C385.89 129.017 386.132 129.283 386.314 129.621C386.5 129.96 386.593 130.382 386.593 130.889V136H384.862V134.951H384.803C384.693 135.163 384.539 135.362 384.34 135.548C384.145 135.73 383.898 135.877 383.6 135.99C383.305 136.099 382.958 136.154 382.561 136.154ZM383.028 134.832C383.389 134.832 383.702 134.76 383.968 134.618C384.233 134.472 384.437 134.28 384.579 134.041C384.725 133.803 384.798 133.542 384.798 133.261V132.361C384.742 132.407 384.645 132.45 384.509 132.49C384.377 132.53 384.228 132.565 384.062 132.594C383.896 132.624 383.732 132.651 383.57 132.674C383.407 132.697 383.267 132.717 383.147 132.734C382.879 132.77 382.639 132.83 382.426 132.913C382.214 132.996 382.047 133.112 381.924 133.261C381.802 133.406 381.74 133.595 381.74 133.827C381.74 134.159 381.861 134.409 382.103 134.578C382.345 134.747 382.653 134.832 383.028 134.832ZM392.215 128.364V129.756H387.826V128.364H392.215ZM388.909 126.534H390.709V133.703C390.709 133.945 390.746 134.131 390.818 134.26C390.895 134.386 390.994 134.472 391.117 134.518C391.239 134.565 391.375 134.588 391.524 134.588C391.637 134.588 391.74 134.58 391.833 134.563C391.929 134.547 392.002 134.532 392.051 134.518L392.355 135.925C392.259 135.959 392.121 135.995 391.942 136.035C391.766 136.075 391.551 136.098 391.296 136.104C390.845 136.118 390.439 136.05 390.078 135.901C389.716 135.748 389.43 135.513 389.218 135.195C389.009 134.876 388.906 134.479 388.909 134.001V126.534ZM397.019 136.149C396.254 136.149 395.592 135.99 395.036 135.672C394.482 135.35 394.056 134.896 393.758 134.31C393.46 133.72 393.31 133.025 393.31 132.227C393.31 131.441 393.46 130.752 393.758 130.158C394.06 129.562 394.48 129.098 395.021 128.766C395.561 128.432 396.196 128.264 396.925 128.264C397.395 128.264 397.84 128.34 398.257 128.493C398.678 128.642 399.049 128.874 399.371 129.189C399.696 129.504 399.951 129.905 400.136 130.392C400.322 130.876 400.415 131.453 400.415 132.122V132.674H394.156V131.461H398.69C398.686 131.116 398.612 130.81 398.466 130.541C398.32 130.269 398.116 130.056 397.854 129.9C397.596 129.744 397.294 129.666 396.95 129.666C396.582 129.666 396.259 129.756 395.98 129.935C395.702 130.11 395.485 130.342 395.329 130.631C395.176 130.916 395.099 131.229 395.095 131.57V132.629C395.095 133.073 395.176 133.455 395.339 133.773C395.501 134.088 395.728 134.33 396.02 134.499C396.312 134.664 396.653 134.747 397.044 134.747C397.306 134.747 397.543 134.711 397.755 134.638C397.967 134.562 398.151 134.451 398.307 134.305C398.463 134.159 398.58 133.978 398.66 133.763L400.34 133.952C400.234 134.396 400.032 134.784 399.734 135.115C399.439 135.443 399.061 135.698 398.6 135.881C398.14 136.06 397.613 136.149 397.019 136.149ZM407.21 131.526V136H405.41V128.364H407.13V129.661H407.22C407.395 129.234 407.675 128.894 408.06 128.642C408.448 128.39 408.927 128.264 409.497 128.264C410.024 128.264 410.483 128.377 410.874 128.602C411.268 128.828 411.573 129.154 411.789 129.582C412.007 130.009 412.115 130.528 412.112 131.138V136H410.312V131.416C410.312 130.906 410.179 130.506 409.914 130.218C409.652 129.93 409.29 129.786 408.826 129.786C408.511 129.786 408.231 129.855 407.985 129.994C407.743 130.13 407.553 130.327 407.414 130.586C407.278 130.844 407.21 131.158 407.21 131.526ZM417.322 136.149C416.556 136.149 415.895 135.99 415.338 135.672C414.785 135.35 414.359 134.896 414.061 134.31C413.762 133.72 413.613 133.025 413.613 132.227C413.613 131.441 413.762 130.752 414.061 130.158C414.362 129.562 414.783 129.098 415.323 128.766C415.864 128.432 416.498 128.264 417.228 128.264C417.698 128.264 418.142 128.34 418.56 128.493C418.981 128.642 419.352 128.874 419.674 129.189C419.998 129.504 420.254 129.905 420.439 130.392C420.625 130.876 420.718 131.453 420.718 132.122V132.674H414.458V131.461H418.992C418.989 131.116 418.915 130.81 418.769 130.541C418.623 130.269 418.419 130.056 418.157 129.9C417.899 129.744 417.597 129.666 417.252 129.666C416.884 129.666 416.561 129.756 416.283 129.935C416.005 130.11 415.787 130.342 415.632 130.631C415.479 130.916 415.401 131.229 415.398 131.57V132.629C415.398 133.073 415.479 133.455 415.642 133.773C415.804 134.088 416.031 134.33 416.323 134.499C416.614 134.664 416.956 134.747 417.347 134.747C417.609 134.747 417.846 134.711 418.058 134.638C418.27 134.562 418.454 134.451 418.61 134.305C418.765 134.159 418.883 133.978 418.963 133.763L420.643 133.952C420.537 134.396 420.335 134.784 420.036 135.115C419.742 135.443 419.364 135.698 418.903 135.881C418.442 136.06 417.915 136.149 417.322 136.149ZM423.775 136L421.617 128.364H423.452L424.794 133.733H424.864L426.236 128.364H428.051L429.423 133.703H429.497L430.82 128.364H432.659L430.497 136H428.622L427.191 130.839H427.086L425.654 136H423.775ZM437.389 128.364H439.188V136.438C439.188 136.988 439.084 137.442 438.875 137.8C438.666 138.158 438.365 138.424 437.97 138.6C437.576 138.776 437.097 138.864 436.533 138.864C436.467 138.864 436.406 138.862 436.35 138.859C436.293 138.859 436.232 138.857 436.166 138.854V137.387C436.215 137.39 436.26 137.392 436.3 137.392C436.34 137.395 436.381 137.397 436.424 137.397C436.769 137.397 437.016 137.313 437.165 137.143C437.314 136.978 437.389 136.734 437.389 136.413V128.364ZM438.283 127.28C437.995 127.28 437.748 127.185 437.543 126.996C437.341 126.804 437.239 126.574 437.239 126.305C437.239 126.034 437.341 125.803 437.543 125.614C437.748 125.422 437.995 125.326 438.283 125.326C438.569 125.326 438.812 125.422 439.014 125.614C439.22 125.803 439.323 126.034 439.323 126.305C439.323 126.574 439.22 126.804 439.014 126.996C438.812 127.185 438.569 127.28 438.283 127.28ZM444.37 136.149C443.624 136.149 442.978 135.985 442.431 135.657C441.884 135.329 441.46 134.87 441.158 134.28C440.86 133.69 440.711 133 440.711 132.212C440.711 131.423 440.86 130.732 441.158 130.138C441.46 129.545 441.884 129.085 442.431 128.756C442.978 128.428 443.624 128.264 444.37 128.264C445.116 128.264 445.762 128.428 446.309 128.756C446.856 129.085 447.278 129.545 447.577 130.138C447.878 130.732 448.029 131.423 448.029 132.212C448.029 133 447.878 133.69 447.577 134.28C447.278 134.87 446.856 135.329 446.309 135.657C445.762 135.985 445.116 136.149 444.37 136.149ZM444.38 134.707C444.784 134.707 445.122 134.596 445.394 134.374C445.666 134.149 445.868 133.847 446.001 133.469C446.137 133.092 446.204 132.671 446.204 132.207C446.204 131.739 446.137 131.317 446.001 130.939C445.868 130.558 445.666 130.254 445.394 130.029C445.122 129.804 444.784 129.691 444.38 129.691C443.966 129.691 443.621 129.804 443.346 130.029C443.074 130.254 442.87 130.558 442.734 130.939C442.602 131.317 442.535 131.739 442.535 132.207C442.535 132.671 442.602 133.092 442.734 133.469C442.87 133.847 443.074 134.149 443.346 134.374C443.621 134.596 443.966 134.707 444.38 134.707ZM449.636 136V125.818H451.436V129.626H451.51C451.603 129.441 451.734 129.244 451.903 129.035C452.072 128.823 452.301 128.642 452.589 128.493C452.878 128.34 453.245 128.264 453.693 128.264C454.283 128.264 454.815 128.415 455.289 128.717C455.766 129.015 456.144 129.457 456.422 130.044C456.704 130.627 456.845 131.343 456.845 132.192C456.845 133.03 456.707 133.743 456.432 134.33C456.157 134.916 455.783 135.364 455.309 135.672C454.835 135.98 454.298 136.134 453.698 136.134C453.26 136.134 452.897 136.061 452.609 135.915C452.321 135.77 452.089 135.594 451.913 135.388C451.741 135.18 451.607 134.982 451.51 134.797H451.406V136H449.636ZM451.401 132.182C451.401 132.676 451.471 133.108 451.61 133.479C451.752 133.851 451.956 134.141 452.221 134.349C452.49 134.555 452.815 134.658 453.196 134.658C453.593 134.658 453.927 134.552 454.195 134.339C454.464 134.124 454.666 133.831 454.802 133.46C454.941 133.085 455.01 132.659 455.01 132.182C455.01 131.708 454.942 131.287 454.807 130.919C454.671 130.551 454.468 130.263 454.2 130.054C453.932 129.845 453.597 129.741 453.196 129.741C452.811 129.741 452.485 129.842 452.216 130.044C451.948 130.246 451.744 130.53 451.605 130.894C451.469 131.259 451.401 131.688 451.401 132.182ZM463.647 125.818V136H461.848V125.818H463.647ZM468.879 136.149C468.113 136.149 467.452 135.99 466.895 135.672C466.341 135.35 465.916 134.896 465.617 134.31C465.319 133.72 465.17 133.025 465.17 132.227C465.17 131.441 465.319 130.752 465.617 130.158C465.919 129.562 466.34 129.098 466.88 128.766C467.42 128.432 468.055 128.264 468.784 128.264C469.255 128.264 469.699 128.34 470.117 128.493C470.537 128.642 470.909 128.874 471.23 129.189C471.555 129.504 471.81 129.905 471.996 130.392C472.181 130.876 472.274 131.453 472.274 132.122V132.674H466.015V131.461H470.549C470.546 131.116 470.471 130.81 470.325 130.541C470.18 130.269 469.976 130.056 469.714 129.9C469.455 129.744 469.154 129.666 468.809 129.666C468.441 129.666 468.118 129.756 467.84 129.935C467.561 130.11 467.344 130.342 467.188 130.631C467.036 130.916 466.958 131.229 466.955 131.57V132.629C466.955 133.073 467.036 133.455 467.198 133.773C467.361 134.088 467.588 134.33 467.879 134.499C468.171 134.664 468.512 134.747 468.903 134.747C469.165 134.747 469.402 134.711 469.614 134.638C469.827 134.562 470.011 134.451 470.166 134.305C470.322 134.159 470.44 133.978 470.519 133.763L472.2 133.952C472.094 134.396 471.891 134.784 471.593 135.115C471.298 135.443 470.92 135.698 470.46 135.881C469.999 136.06 469.472 136.149 468.879 136.149ZM480.399 128.364L477.68 136H475.691L472.972 128.364H474.891L476.646 134.036H476.725L478.485 128.364H480.399ZM484.765 136.149C484 136.149 483.339 135.99 482.782 135.672C482.228 135.35 481.802 134.896 481.504 134.31C481.206 133.72 481.057 133.025 481.057 132.227C481.057 131.441 481.206 130.752 481.504 130.158C481.806 129.562 482.227 129.098 482.767 128.766C483.307 128.432 483.942 128.264 484.671 128.264C485.142 128.264 485.586 128.34 486.003 128.493C486.424 128.642 486.795 128.874 487.117 129.189C487.442 129.504 487.697 129.905 487.883 130.392C488.068 130.876 488.161 131.453 488.161 132.122V132.674H481.902V131.461H486.436C486.432 131.116 486.358 130.81 486.212 130.541C486.066 130.269 485.862 130.056 485.601 129.9C485.342 129.744 485.04 129.666 484.696 129.666C484.328 129.666 484.005 129.756 483.726 129.935C483.448 130.11 483.231 130.342 483.075 130.631C482.923 130.916 482.845 131.229 482.841 131.57V132.629C482.841 133.073 482.923 133.455 483.085 133.773C483.247 134.088 483.474 134.33 483.766 134.499C484.058 134.664 484.399 134.747 484.79 134.747C485.052 134.747 485.289 134.711 485.501 134.638C485.713 134.562 485.897 134.451 486.053 134.305C486.209 134.159 486.326 133.978 486.406 133.763L488.086 133.952C487.98 134.396 487.778 134.784 487.48 135.115C487.185 135.443 486.807 135.698 486.346 135.881C485.886 136.06 485.359 136.149 484.765 136.149ZM491.483 125.818V136H489.684V125.818H491.483ZM496.807 138.864V128.364H498.576V129.626H498.681C498.774 129.441 498.905 129.244 499.074 129.035C499.243 128.823 499.471 128.642 499.76 128.493C500.048 128.34 500.416 128.264 500.863 128.264C501.453 128.264 501.985 128.415 502.459 128.717C502.937 129.015 503.314 129.457 503.593 130.044C503.874 130.627 504.015 131.343 504.015 132.192C504.015 133.03 503.878 133.743 503.603 134.33C503.328 134.916 502.953 135.364 502.479 135.672C502.005 135.98 501.468 136.134 500.868 136.134C500.431 136.134 500.068 136.061 499.78 135.915C499.491 135.77 499.259 135.594 499.084 135.388C498.911 135.18 498.777 134.982 498.681 134.797H498.606V138.864H496.807ZM498.571 132.182C498.571 132.676 498.641 133.108 498.78 133.479C498.923 133.851 499.127 134.141 499.392 134.349C499.66 134.555 499.985 134.658 500.366 134.658C500.764 134.658 501.097 134.552 501.366 134.339C501.634 134.124 501.836 133.831 501.972 133.46C502.111 133.085 502.181 132.659 502.181 132.182C502.181 131.708 502.113 131.287 501.977 130.919C501.841 130.551 501.639 130.263 501.37 130.054C501.102 129.845 500.767 129.741 500.366 129.741C499.982 129.741 499.655 129.842 499.387 130.044C499.118 130.246 498.915 130.53 498.775 130.894C498.639 131.259 498.571 131.688 498.571 132.182ZM508.888 136.149C508.142 136.149 507.495 135.985 506.949 135.657C506.402 135.329 505.977 134.87 505.676 134.28C505.378 133.69 505.228 133 505.228 132.212C505.228 131.423 505.378 130.732 505.676 130.138C505.977 129.545 506.402 129.085 506.949 128.756C507.495 128.428 508.142 128.264 508.888 128.264C509.633 128.264 510.28 128.428 510.826 128.756C511.373 129.085 511.796 129.545 512.094 130.138C512.396 130.732 512.547 131.423 512.547 132.212C512.547 133 512.396 133.69 512.094 134.28C511.796 134.87 511.373 135.329 510.826 135.657C510.28 135.985 509.633 136.149 508.888 136.149ZM508.897 134.707C509.302 134.707 509.64 134.596 509.912 134.374C510.183 134.149 510.386 133.847 510.518 133.469C510.654 133.092 510.722 132.671 510.722 132.207C510.722 131.739 510.654 131.317 510.518 130.939C510.386 130.558 510.183 130.254 509.912 130.029C509.64 129.804 509.302 129.691 508.897 129.691C508.483 129.691 508.138 129.804 507.863 130.029C507.592 130.254 507.388 130.558 507.252 130.939C507.119 131.317 507.053 131.739 507.053 132.207C507.053 132.671 507.119 133.092 507.252 133.469C507.388 133.847 507.592 134.149 507.863 134.374C508.138 134.596 508.483 134.707 508.897 134.707ZM520.11 130.382L518.469 130.561C518.423 130.395 518.341 130.24 518.225 130.094C518.113 129.948 517.96 129.83 517.768 129.741C517.576 129.651 517.34 129.607 517.062 129.607C516.688 129.607 516.373 129.688 516.117 129.85C515.866 130.013 515.741 130.223 515.745 130.482C515.741 130.704 515.822 130.884 515.988 131.023C516.157 131.163 516.436 131.277 516.823 131.366L518.126 131.645C518.849 131.801 519.385 132.048 519.737 132.386C520.091 132.724 520.27 133.166 520.274 133.713C520.27 134.194 520.13 134.618 519.851 134.986C519.576 135.35 519.193 135.635 518.703 135.841C518.212 136.046 517.649 136.149 517.012 136.149C516.078 136.149 515.325 135.954 514.755 135.562C514.185 135.168 513.845 134.62 513.736 133.917L515.491 133.748C515.571 134.093 515.74 134.353 515.998 134.528C516.257 134.704 516.593 134.792 517.007 134.792C517.435 134.792 517.778 134.704 518.036 134.528C518.298 134.353 518.429 134.136 518.429 133.877C518.429 133.658 518.345 133.478 518.176 133.335C518.01 133.193 517.751 133.083 517.4 133.007L516.098 132.734C515.365 132.581 514.823 132.324 514.472 131.963C514.121 131.598 513.947 131.138 513.95 130.581C513.947 130.11 514.074 129.703 514.333 129.358C514.594 129.01 514.957 128.741 515.421 128.553C515.889 128.36 516.427 128.264 517.037 128.264C517.932 128.264 518.636 128.455 519.15 128.836C519.667 129.217 519.987 129.732 520.11 130.382ZM521.758 136V128.364H523.557V136H521.758ZM522.663 127.28C522.378 127.28 522.132 127.185 521.927 126.996C521.721 126.804 521.619 126.574 521.619 126.305C521.619 126.034 521.721 125.803 521.927 125.614C522.132 125.422 522.378 125.326 522.663 125.326C522.951 125.326 523.196 125.422 523.398 125.614C523.604 125.803 523.707 126.034 523.707 126.305C523.707 126.574 523.604 126.804 523.398 126.996C523.196 127.185 522.951 127.28 522.663 127.28ZM529.221 128.364V129.756H524.831V128.364H529.221ZM525.915 126.534H527.715V133.703C527.715 133.945 527.751 134.131 527.824 134.26C527.901 134.386 528 134.472 528.123 134.518C528.245 134.565 528.381 134.588 528.53 134.588C528.643 134.588 528.746 134.58 528.839 134.563C528.935 134.547 529.008 134.532 529.057 134.518L529.361 135.925C529.264 135.959 529.127 135.995 528.948 136.035C528.772 136.075 528.557 136.098 528.302 136.104C527.851 136.118 527.445 136.05 527.084 135.901C526.722 135.748 526.436 135.513 526.223 135.195C526.015 134.876 525.912 134.479 525.915 134.001V126.534ZM530.726 136V128.364H532.526V136H530.726ZM531.631 127.28C531.346 127.28 531.101 127.185 530.896 126.996C530.69 126.804 530.587 126.574 530.587 126.305C530.587 126.034 530.69 125.803 530.896 125.614C531.101 125.422 531.346 125.326 531.631 125.326C531.92 125.326 532.165 125.422 532.367 125.614C532.573 125.803 532.675 126.034 532.675 126.305C532.675 126.574 532.573 126.804 532.367 126.996C532.165 127.185 531.92 127.28 531.631 127.28ZM537.708 136.149C536.962 136.149 536.316 135.985 535.769 135.657C535.222 135.329 534.798 134.87 534.496 134.28C534.198 133.69 534.049 133 534.049 132.212C534.049 131.423 534.198 130.732 534.496 130.138C534.798 129.545 535.222 129.085 535.769 128.756C536.316 128.428 536.962 128.264 537.708 128.264C538.454 128.264 539.1 128.428 539.647 128.756C540.194 129.085 540.616 129.545 540.915 130.138C541.216 130.732 541.367 131.423 541.367 132.212C541.367 133 541.216 133.69 540.915 134.28C540.616 134.87 540.194 135.329 539.647 135.657C539.1 135.985 538.454 136.149 537.708 136.149ZM537.718 134.707C538.122 134.707 538.46 134.596 538.732 134.374C539.004 134.149 539.206 133.847 539.339 133.469C539.474 133.092 539.542 132.671 539.542 132.207C539.542 131.739 539.474 131.317 539.339 130.939C539.206 130.558 539.004 130.254 538.732 130.029C538.46 129.804 538.122 129.691 537.718 129.691C537.303 129.691 536.959 129.804 536.684 130.029C536.412 130.254 536.208 130.558 536.072 130.939C535.94 131.317 535.873 131.739 535.873 132.207C535.873 132.671 535.94 133.092 536.072 133.469C536.208 133.847 536.412 134.149 536.684 134.374C536.959 134.596 537.303 134.707 537.718 134.707ZM544.694 131.526V136H542.894V128.364H544.615V129.661H544.704C544.88 129.234 545.16 128.894 545.544 128.642C545.932 128.39 546.411 128.264 546.981 128.264C547.508 128.264 547.967 128.377 548.358 128.602C548.753 128.828 549.058 129.154 549.273 129.582C549.492 130.009 549.599 130.528 549.596 131.138V136H547.796V131.416C547.796 130.906 547.664 130.506 547.399 130.218C547.137 129.93 546.774 129.786 546.31 129.786C545.995 129.786 545.715 129.855 545.47 129.994C545.228 130.13 545.037 130.327 544.898 130.586C544.762 130.844 544.694 131.158 544.694 131.526Z" fill="white"/>
<defs>
<clipPath id="clip0_3648_105964">
<rect width="286" height="286" rx="8" fill="white"/>
</clipPath>
<clipPath id="clip1_3648_105964">
<rect x="310" width="286" height="286" rx="8" fill="white"/>
</clipPath>
</defs>
</svg>
