<svg width="596" height="286" viewBox="0 0 596 286" fill="none" xmlns="http://www.w3.org/2000/svg">
<g clip-path="url(#clip0_3648_108515)">
<rect width="286" height="286" rx="8" fill="white"/>
<rect y="278" width="286" height="8" fill="#4FB262"/>
<path fill-rule="evenodd" clip-rule="evenodd" d="M243.25 32C243.25 26.0858 248.086 21.25 254 21.25C259.914 21.25 264.75 26.0858 264.75 32C264.75 37.9142 259.914 42.75 254 42.75C248.086 42.75 243.25 37.9142 243.25 32ZM258.78 29.7008C259.073 29.4082 259.073 28.9333 258.781 28.6402C258.488 28.347 258.013 28.3466 257.72 28.6392L252.58 33.7698L250.28 31.4697C249.987 31.1768 249.513 31.1768 249.22 31.4697C248.927 31.7626 248.927 32.2374 249.22 32.5303L252.05 35.3603C252.342 35.6531 252.817 35.6533 253.11 35.3608L258.78 29.7008Z" fill="#68BE79"/>
</g>
<rect x="0.5" y="0.5" width="285" height="285" rx="7.5" stroke="#D0D6DD"/>
<g clip-path="url(#clip1_3648_108515)">
<rect x="310" width="286" height="286" rx="8" fill="white"/>
<rect x="310" y="278" width="286" height="8" fill="#C83E39"/>
<path fill-rule="evenodd" clip-rule="evenodd" d="M553.25 32C553.25 26.0858 558.086 21.25 564 21.25C569.914 21.25 574.75 26.0858 574.75 32C574.75 37.9142 569.914 42.75 564 42.75C558.086 42.75 553.25 37.9142 553.25 32ZM567.36 28.6397C567.653 28.9326 567.653 29.4075 567.36 29.7003L565.061 32L567.36 34.2997C567.653 34.5926 567.653 35.0674 567.36 35.3603C567.067 35.6532 566.592 35.6532 566.3 35.3603L564 33.0607L561.7 35.3603C561.407 35.6532 560.932 35.6532 560.64 35.3603C560.347 35.0674 560.347 34.5926 560.64 34.2997L562.939 32L560.64 29.7003C560.347 29.4075 560.347 28.9326 560.64 28.6397C560.932 28.3468 561.407 28.3468 561.7 28.6397L564 30.9394L566.3 28.6397C566.592 28.3468 567.067 28.3468 567.36 28.6397Z" fill="#DA473F"/>
</g>
<rect x="310.5" y="0.5" width="285" height="285" rx="7.5" stroke="#D0D6DD"/>
<rect x="435" y="121" width="36" height="36" rx="6" fill="#1C44D5"/>
<path d="M452.89 131.913C453.32 134.695 455.56 136.822 458.34 137.104M444 149H462M454.26 130.451L446.05 139.211C445.74 139.544 445.44 140.199 445.38 140.653L445.01 143.919C444.88 145.099 445.72 145.905 446.88 145.703L450.1 145.149C450.55 145.068 451.18 144.736 451.49 144.393L459.7 135.632C461.12 134.12 461.76 132.396 459.55 130.289C457.35 128.203 455.68 128.939 454.26 130.451Z" stroke="white" stroke-width="1.5" stroke-miterlimit="10" stroke-linecap="round" stroke-linejoin="round"/>
<path d="M142.89 131.913C143.32 134.695 145.56 136.822 148.34 137.104M134 149H152M144.26 130.451L136.05 139.211C135.74 139.544 135.44 140.199 135.38 140.653L135.01 143.919C134.88 145.099 135.72 145.905 136.88 145.703L140.1 145.149C140.55 145.068 141.18 144.736 141.49 144.393L149.7 135.632C151.12 134.12 151.76 132.396 149.55 130.289C147.35 128.203 145.68 128.939 144.26 130.451Z" stroke="#626B79" stroke-width="1.5" stroke-miterlimit="10" stroke-linecap="round" stroke-linejoin="round"/>
<defs>
<clipPath id="clip0_3648_108515">
<rect width="286" height="286" rx="8" fill="white"/>
</clipPath>
<clipPath id="clip1_3648_108515">
<rect x="310" width="286" height="286" rx="8" fill="white"/>
</clipPath>
</defs>
</svg>
