<svg width="596" height="286" viewBox="0 0 596 286" fill="none" xmlns="http://www.w3.org/2000/svg">
<g clip-path="url(#clip0_3875_107952)">
<rect width="286" height="286" rx="8" fill="white"/>
<rect y="278" width="286" height="8" fill="#4FB262"/>
<path fill-rule="evenodd" clip-rule="evenodd" d="M243.25 32C243.25 26.0858 248.086 21.25 254 21.25C259.914 21.25 264.75 26.0858 264.75 32C264.75 37.9142 259.914 42.75 254 42.75C248.086 42.75 243.25 37.9142 243.25 32ZM258.78 29.7008C259.073 29.4082 259.073 28.9333 258.781 28.6402C258.488 28.347 258.013 28.3466 257.72 28.6392L252.58 33.7698L250.28 31.4697C249.987 31.1768 249.513 31.1768 249.22 31.4697C248.927 31.7626 248.927 32.2374 249.22 32.5303L252.05 35.3603C252.342 35.6531 252.817 35.6533 253.11 35.3608L258.78 29.7008Z" fill="#68BE79"/>
</g>
<rect x="0.5" y="0.5" width="285" height="285" rx="7.5" stroke="#D0D6DD"/>
<g clip-path="url(#clip1_3875_107952)">
<rect x="310" width="286" height="286" rx="8" fill="white"/>
<rect x="310" y="278" width="286" height="8" fill="#C83E39"/>
<path fill-rule="evenodd" clip-rule="evenodd" d="M553.25 32C553.25 26.0858 558.086 21.25 564 21.25C569.914 21.25 574.75 26.0858 574.75 32C574.75 37.9142 569.914 42.75 564 42.75C558.086 42.75 553.25 37.9142 553.25 32ZM567.36 28.6397C567.653 28.9326 567.653 29.4075 567.36 29.7003L565.061 32L567.36 34.2997C567.653 34.5926 567.653 35.0674 567.36 35.3603C567.067 35.6532 566.592 35.6532 566.3 35.3603L564 33.0607L561.7 35.3603C561.407 35.6532 560.932 35.6532 560.64 35.3603C560.347 35.0674 560.347 34.5926 560.64 34.2997L562.939 32L560.64 29.7003C560.347 29.4075 560.347 28.9326 560.64 28.6397C560.932 28.3468 561.407 28.3468 561.7 28.6397L564 30.9394L566.3 28.6397C566.592 28.3468 567.067 28.3468 567.36 28.6397Z" fill="#DA473F"/>
</g>
<rect x="310.5" y="0.5" width="285" height="285" rx="7.5" stroke="#D0D6DD"/>
<g clip-path="url(#clip2_3875_107952)">
<rect x="407" y="88" width="92" height="92" rx="6" fill="#F2F4F7"/>
<g clip-path="url(#clip3_3875_107952)">
<path d="M321.004 109.818H323.261L326.284 117.196H326.403L329.426 109.818H331.683V120H329.913V113.005H329.819L327.005 119.97H325.683L322.869 112.99H322.774V120H321.004V109.818ZM336.993 120.149C336.227 120.149 335.566 119.99 335.009 119.672C334.456 119.35 334.03 118.896 333.732 118.31C333.433 117.72 333.284 117.025 333.284 116.227C333.284 115.441 333.433 114.752 333.732 114.158C334.033 113.562 334.454 113.098 334.994 112.766C335.535 112.432 336.169 112.264 336.898 112.264C337.369 112.264 337.813 112.34 338.231 112.493C338.652 112.642 339.023 112.874 339.344 113.189C339.669 113.504 339.924 113.905 340.11 114.392C340.296 114.876 340.388 115.453 340.388 116.122V116.674H334.129V115.461H338.663C338.66 115.116 338.585 114.81 338.44 114.541C338.294 114.269 338.09 114.056 337.828 113.9C337.57 113.744 337.268 113.666 336.923 113.666C336.555 113.666 336.232 113.756 335.954 113.935C335.675 114.11 335.458 114.342 335.303 114.631C335.15 114.916 335.072 115.229 335.069 115.57V116.629C335.069 117.073 335.15 117.455 335.312 117.773C335.475 118.088 335.702 118.33 335.994 118.499C336.285 118.664 336.627 118.747 337.018 118.747C337.28 118.747 337.517 118.711 337.729 118.638C337.941 118.562 338.125 118.451 338.281 118.305C338.436 118.159 338.554 117.978 338.634 117.763L340.314 117.952C340.208 118.396 340.006 118.784 339.707 119.115C339.412 119.443 339.035 119.698 338.574 119.881C338.113 120.06 337.586 120.149 336.993 120.149ZM343.552 117.604L343.547 115.431H343.835L346.579 112.364H348.682L345.307 116.122H344.934L343.552 117.604ZM341.911 120V109.818H343.711V120H341.911ZM346.704 120L344.218 116.525L345.431 115.257L348.856 120H346.704ZM352.079 120.154C351.595 120.154 351.159 120.068 350.772 119.896C350.387 119.72 350.082 119.461 349.857 119.12C349.635 118.779 349.524 118.358 349.524 117.857C349.524 117.426 349.603 117.07 349.762 116.788C349.922 116.507 350.139 116.281 350.414 116.112C350.689 115.943 350.999 115.816 351.343 115.729C351.691 115.64 352.051 115.575 352.422 115.536C352.87 115.489 353.233 115.448 353.511 115.411C353.789 115.371 353.992 115.312 354.118 115.232C354.247 115.149 354.311 115.022 354.311 114.849V114.82C354.311 114.445 354.2 114.155 353.978 113.95C353.756 113.744 353.436 113.641 353.019 113.641C352.578 113.641 352.228 113.737 351.97 113.93C351.715 114.122 351.542 114.349 351.453 114.611L349.772 114.372C349.905 113.908 350.124 113.52 350.429 113.209C350.734 112.894 351.106 112.659 351.547 112.503C351.988 112.344 352.475 112.264 353.009 112.264C353.377 112.264 353.743 112.307 354.108 112.393C354.472 112.48 354.805 112.622 355.107 112.821C355.408 113.017 355.65 113.283 355.833 113.621C356.018 113.96 356.111 114.382 356.111 114.889V120H354.381V118.951H354.321C354.212 119.163 354.058 119.362 353.859 119.548C353.663 119.73 353.417 119.877 353.118 119.99C352.823 120.099 352.477 120.154 352.079 120.154ZM352.547 118.832C352.908 118.832 353.221 118.76 353.486 118.618C353.751 118.472 353.955 118.28 354.098 118.041C354.243 117.803 354.316 117.542 354.316 117.261V116.361C354.26 116.407 354.164 116.45 354.028 116.49C353.895 116.53 353.746 116.565 353.581 116.594C353.415 116.624 353.251 116.651 353.088 116.674C352.926 116.697 352.785 116.717 352.666 116.734C352.397 116.77 352.157 116.83 351.945 116.913C351.733 116.996 351.565 117.112 351.443 117.261C351.32 117.406 351.259 117.595 351.259 117.827C351.259 118.159 351.38 118.409 351.622 118.578C351.864 118.747 352.172 118.832 352.547 118.832ZM357.921 120V112.364H359.666V113.636H359.745C359.885 113.196 360.123 112.856 360.461 112.617C360.803 112.375 361.192 112.254 361.63 112.254C361.729 112.254 361.84 112.259 361.963 112.269C362.089 112.276 362.193 112.287 362.276 112.304V113.96C362.2 113.933 362.079 113.91 361.913 113.89C361.751 113.867 361.593 113.855 361.441 113.855C361.113 113.855 360.818 113.926 360.556 114.069C360.297 114.208 360.093 114.402 359.944 114.651C359.795 114.899 359.721 115.186 359.721 115.511V120H357.921ZM363.472 120V112.364H365.271V120H363.472ZM364.376 111.28C364.091 111.28 363.846 111.185 363.641 110.996C363.435 110.804 363.332 110.574 363.332 110.305C363.332 110.034 363.435 109.803 363.641 109.614C363.846 109.422 364.091 109.326 364.376 109.326C364.665 109.326 364.91 109.422 365.112 109.614C365.318 109.803 365.42 110.034 365.42 110.305C365.42 110.574 365.318 110.804 365.112 110.996C364.91 111.185 364.665 111.28 364.376 111.28ZM377.093 109.818H378.937V116.47C378.937 117.199 378.765 117.841 378.42 118.394C378.079 118.948 377.598 119.38 376.978 119.692C376.358 120 375.634 120.154 374.806 120.154C373.974 120.154 373.248 120 372.628 119.692C372.008 119.38 371.528 118.948 371.186 118.394C370.845 117.841 370.674 117.199 370.674 116.47V109.818H372.519V116.316C372.519 116.74 372.611 117.118 372.797 117.45C372.986 117.781 373.251 118.041 373.593 118.23C373.934 118.416 374.338 118.509 374.806 118.509C375.273 118.509 375.677 118.416 376.019 118.23C376.363 118.041 376.628 117.781 376.814 117.45C377 117.118 377.093 116.74 377.093 116.316V109.818ZM382.662 115.526V120H380.862V112.364H382.582V113.661H382.672C382.848 113.234 383.128 112.894 383.512 112.642C383.9 112.39 384.379 112.264 384.949 112.264C385.476 112.264 385.935 112.377 386.326 112.602C386.72 112.828 387.025 113.154 387.241 113.582C387.46 114.009 387.567 114.528 387.564 115.138V120H385.764V115.416C385.764 114.906 385.632 114.506 385.366 114.218C385.105 113.93 384.742 113.786 384.278 113.786C383.963 113.786 383.683 113.855 383.438 113.994C383.196 114.13 383.005 114.327 382.866 114.586C382.73 114.844 382.662 115.158 382.662 115.526ZM389.393 120V112.364H391.193V120H389.393ZM390.298 111.28C390.013 111.28 389.768 111.185 389.562 110.996C389.357 110.804 389.254 110.574 389.254 110.305C389.254 110.034 389.357 109.803 389.562 109.614C389.768 109.422 390.013 109.326 390.298 109.326C390.587 109.326 390.832 109.422 391.034 109.614C391.24 109.803 391.342 110.034 391.342 110.305C391.342 110.574 391.24 110.804 391.034 110.996C390.832 111.185 390.587 111.28 390.298 111.28ZM399.865 112.364L397.145 120H395.157L392.437 112.364H394.356L396.111 118.036H396.191L397.951 112.364H399.865ZM404.231 120.149C403.466 120.149 402.804 119.99 402.248 119.672C401.694 119.35 401.268 118.896 400.97 118.31C400.672 117.72 400.522 117.025 400.522 116.227C400.522 115.441 400.672 114.752 400.97 114.158C401.271 113.562 401.692 113.098 402.233 112.766C402.773 112.432 403.408 112.264 404.137 112.264C404.607 112.264 405.051 112.34 405.469 112.493C405.89 112.642 406.261 112.874 406.583 113.189C406.908 113.504 407.163 113.905 407.348 114.392C407.534 114.876 407.627 115.453 407.627 116.122V116.674H401.368V115.461H405.902C405.898 115.116 405.824 114.81 405.678 114.541C405.532 114.269 405.328 114.056 405.066 113.9C404.808 113.744 404.506 113.666 404.162 113.666C403.794 113.666 403.471 113.756 403.192 113.935C402.914 114.11 402.697 114.342 402.541 114.631C402.388 114.916 402.31 115.229 402.307 115.57V116.629C402.307 117.073 402.388 117.455 402.551 117.773C402.713 118.088 402.94 118.33 403.232 118.499C403.524 118.664 403.865 118.747 404.256 118.747C404.518 118.747 404.755 118.711 404.967 118.638C405.179 118.562 405.363 118.451 405.519 118.305C405.675 118.159 405.792 117.978 405.872 117.763L407.552 117.952C407.446 118.396 407.244 118.784 406.946 119.115C406.651 119.443 406.273 119.698 405.812 119.881C405.351 120.06 404.824 120.149 404.231 120.149ZM409.149 120V112.364H410.894V113.636H410.974C411.113 113.196 411.352 112.856 411.69 112.617C412.031 112.375 412.421 112.254 412.858 112.254C412.958 112.254 413.069 112.259 413.191 112.269C413.317 112.276 413.422 112.287 413.504 112.304V113.96C413.428 113.933 413.307 113.91 413.142 113.89C412.979 113.867 412.822 113.855 412.669 113.855C412.341 113.855 412.046 113.926 411.784 114.069C411.526 114.208 411.322 114.402 411.173 114.651C411.024 114.899 410.949 115.186 410.949 115.511V120H409.149ZM420.736 114.382L419.095 114.561C419.049 114.395 418.967 114.24 418.851 114.094C418.739 113.948 418.586 113.83 418.394 113.741C418.202 113.651 417.966 113.607 417.688 113.607C417.314 113.607 416.999 113.688 416.743 113.85C416.492 114.013 416.367 114.223 416.371 114.482C416.367 114.704 416.448 114.884 416.614 115.023C416.783 115.163 417.062 115.277 417.449 115.366L418.752 115.645C419.474 115.801 420.011 116.048 420.363 116.386C420.717 116.724 420.896 117.166 420.9 117.713C420.896 118.194 420.756 118.618 420.477 118.986C420.202 119.35 419.819 119.635 419.329 119.841C418.838 120.046 418.275 120.149 417.638 120.149C416.704 120.149 415.951 119.954 415.381 119.562C414.811 119.168 414.471 118.62 414.362 117.917L416.117 117.748C416.197 118.093 416.366 118.353 416.624 118.528C416.883 118.704 417.219 118.792 417.633 118.792C418.061 118.792 418.404 118.704 418.662 118.528C418.924 118.353 419.055 118.136 419.055 117.877C419.055 117.658 418.971 117.478 418.802 117.335C418.636 117.193 418.377 117.083 418.026 117.007L416.724 116.734C415.991 116.581 415.449 116.324 415.098 115.963C414.747 115.598 414.573 115.138 414.576 114.581C414.573 114.11 414.7 113.703 414.959 113.358C415.22 113.01 415.583 112.741 416.047 112.553C416.515 112.36 417.053 112.264 417.663 112.264C418.558 112.264 419.262 112.455 419.776 112.836C420.293 113.217 420.613 113.732 420.736 114.382ZM422.384 120V112.364H424.183V120H422.384ZM423.289 111.28C423.003 111.28 422.758 111.185 422.553 110.996C422.347 110.804 422.244 110.574 422.244 110.305C422.244 110.034 422.347 109.803 422.553 109.614C422.758 109.422 423.003 109.326 423.289 109.326C423.577 109.326 423.822 109.422 424.024 109.614C424.23 109.803 424.333 110.034 424.333 110.305C424.333 110.574 424.23 110.804 424.024 110.996C423.822 111.185 423.577 111.28 423.289 111.28ZM429.847 112.364V113.756H425.457V112.364H429.847ZM426.541 110.534H428.341V117.703C428.341 117.945 428.377 118.131 428.45 118.26C428.527 118.386 428.626 118.472 428.749 118.518C428.871 118.565 429.007 118.588 429.156 118.588C429.269 118.588 429.372 118.58 429.464 118.563C429.561 118.547 429.634 118.532 429.683 118.518L429.987 119.925C429.89 119.959 429.753 119.995 429.574 120.035C429.398 120.075 429.183 120.098 428.928 120.104C428.477 120.118 428.071 120.05 427.71 119.901C427.348 119.748 427.062 119.513 426.849 119.195C426.641 118.876 426.538 118.479 426.541 118.001V110.534ZM432.471 122.864C432.226 122.864 431.999 122.844 431.79 122.804C431.584 122.768 431.42 122.724 431.298 122.675L431.715 121.273C431.977 121.349 432.211 121.385 432.416 121.382C432.622 121.379 432.802 121.314 432.958 121.188C433.117 121.066 433.252 120.86 433.361 120.572L433.515 120.159L430.746 112.364H432.655L434.415 118.131H434.494L436.259 112.364H438.173L435.116 120.925C434.973 121.329 434.785 121.675 434.549 121.964C434.314 122.255 434.026 122.478 433.684 122.63C433.346 122.786 432.942 122.864 432.471 122.864Z" fill="#232933"/>
<path d="M321.415 141H320.307L323.511 132.273H324.602L327.807 141H326.699L324.091 133.653H324.023L321.415 141ZM321.824 137.591H326.29V138.528H321.824V137.591ZM331.501 141.136C330.956 141.136 330.474 140.999 330.057 140.723C329.639 140.445 329.313 140.053 329.077 139.547C328.841 139.038 328.723 138.438 328.723 137.744C328.723 137.057 328.841 136.46 329.077 135.955C329.313 135.449 329.641 135.058 330.061 134.783C330.482 134.507 330.967 134.369 331.518 134.369C331.945 134.369 332.281 134.44 332.528 134.582C332.778 134.722 332.969 134.881 333.099 135.06C333.233 135.236 333.337 135.381 333.411 135.494H333.496V132.273H334.501V141H333.53V139.994H333.411C333.337 140.114 333.232 140.264 333.095 140.446C332.959 140.625 332.764 140.786 332.511 140.928C332.259 141.067 331.922 141.136 331.501 141.136ZM331.638 140.233C332.041 140.233 332.382 140.128 332.661 139.918C332.939 139.705 333.151 139.411 333.295 139.036C333.44 138.658 333.513 138.222 333.513 137.727C333.513 137.239 333.442 136.811 333.3 136.445C333.158 136.075 332.947 135.788 332.669 135.584C332.391 135.376 332.047 135.273 331.638 135.273C331.212 135.273 330.857 135.382 330.572 135.601C330.291 135.817 330.08 136.111 329.938 136.483C329.798 136.852 329.729 137.267 329.729 137.727C329.729 138.193 329.8 138.616 329.942 138.997C330.087 139.375 330.3 139.676 330.581 139.901C330.865 140.122 331.217 140.233 331.638 140.233ZM341.835 134.455L339.415 141H338.392L335.972 134.455H337.062L338.869 139.67H338.938L340.744 134.455H341.835ZM344.89 141.153C344.475 141.153 344.098 141.075 343.76 140.919C343.422 140.76 343.154 140.531 342.955 140.233C342.756 139.932 342.657 139.568 342.657 139.142C342.657 138.767 342.73 138.463 342.878 138.23C343.026 137.994 343.223 137.81 343.471 137.676C343.718 137.543 343.99 137.443 344.289 137.378C344.59 137.31 344.892 137.256 345.196 137.216C345.594 137.165 345.917 137.126 346.164 137.101C346.414 137.072 346.596 137.026 346.709 136.96C346.826 136.895 346.884 136.781 346.884 136.619V136.585C346.884 136.165 346.769 135.838 346.539 135.605C346.311 135.372 345.966 135.256 345.503 135.256C345.023 135.256 344.647 135.361 344.374 135.571C344.101 135.781 343.909 136.006 343.799 136.244L342.844 135.903C343.015 135.506 343.242 135.196 343.526 134.974C343.813 134.75 344.125 134.594 344.463 134.506C344.804 134.415 345.14 134.369 345.469 134.369C345.679 134.369 345.921 134.395 346.194 134.446C346.469 134.494 346.735 134.595 346.99 134.749C347.249 134.902 347.463 135.134 347.634 135.443C347.804 135.753 347.89 136.168 347.89 136.688V141H346.884V140.114H346.833C346.765 140.256 346.651 140.408 346.492 140.57C346.333 140.732 346.121 140.869 345.857 140.983C345.593 141.097 345.27 141.153 344.89 141.153ZM345.043 140.25C345.441 140.25 345.776 140.172 346.049 140.016C346.324 139.859 346.532 139.658 346.671 139.411C346.813 139.163 346.884 138.903 346.884 138.631V137.71C346.841 137.761 346.748 137.808 346.603 137.851C346.461 137.891 346.296 137.926 346.108 137.957C345.924 137.986 345.743 138.011 345.567 138.034C345.394 138.054 345.253 138.071 345.145 138.085C344.884 138.119 344.64 138.175 344.412 138.251C344.188 138.325 344.006 138.437 343.867 138.588C343.73 138.736 343.662 138.937 343.662 139.193C343.662 139.543 343.792 139.807 344.05 139.986C344.311 140.162 344.642 140.25 345.043 140.25ZM350.731 137.062V141H349.725V134.455H350.697V135.477H350.782C350.935 135.145 351.168 134.878 351.481 134.676C351.793 134.472 352.197 134.369 352.691 134.369C353.134 134.369 353.522 134.46 353.854 134.642C354.187 134.821 354.445 135.094 354.63 135.46C354.815 135.824 354.907 136.284 354.907 136.841V141H353.901V136.909C353.901 136.395 353.768 135.994 353.501 135.707C353.234 135.418 352.867 135.273 352.401 135.273C352.08 135.273 351.793 135.342 351.54 135.482C351.29 135.621 351.093 135.824 350.948 136.091C350.803 136.358 350.731 136.682 350.731 137.062ZM359.404 141.136C358.79 141.136 358.262 140.991 357.819 140.702C357.375 140.412 357.034 140.013 356.796 139.504C356.557 138.996 356.438 138.415 356.438 137.761C356.438 137.097 356.56 136.51 356.804 136.001C357.051 135.49 357.395 135.091 357.836 134.804C358.279 134.514 358.796 134.369 359.387 134.369C359.847 134.369 360.262 134.455 360.631 134.625C361 134.795 361.303 135.034 361.539 135.341C361.775 135.648 361.921 136.006 361.978 136.415H360.972C360.895 136.116 360.725 135.852 360.461 135.622C360.199 135.389 359.847 135.273 359.404 135.273C359.012 135.273 358.668 135.375 358.373 135.58C358.08 135.781 357.851 136.067 357.686 136.436C357.525 136.803 357.444 137.233 357.444 137.727C357.444 138.233 357.523 138.673 357.682 139.048C357.844 139.423 358.071 139.714 358.364 139.922C358.659 140.129 359.006 140.233 359.404 140.233C359.665 140.233 359.902 140.188 360.115 140.097C360.328 140.006 360.509 139.875 360.657 139.705C360.804 139.534 360.909 139.33 360.972 139.091H361.978C361.921 139.477 361.78 139.825 361.556 140.135C361.334 140.442 361.04 140.686 360.674 140.868C360.31 141.047 359.887 141.136 359.404 141.136ZM366.192 141.136C365.561 141.136 365.017 140.997 364.56 140.719C364.105 140.438 363.755 140.045 363.507 139.543C363.263 139.037 363.141 138.449 363.141 137.778C363.141 137.108 363.263 136.517 363.507 136.006C363.755 135.491 364.098 135.091 364.539 134.804C364.982 134.514 365.499 134.369 366.09 134.369C366.431 134.369 366.767 134.426 367.1 134.54C367.432 134.653 367.735 134.838 368.007 135.094C368.28 135.347 368.498 135.682 368.659 136.099C368.821 136.517 368.902 137.031 368.902 137.642V138.068H363.857V137.199H367.88C367.88 136.83 367.806 136.5 367.658 136.21C367.513 135.92 367.306 135.692 367.036 135.524C366.769 135.357 366.453 135.273 366.09 135.273C365.689 135.273 365.343 135.372 365.05 135.571C364.76 135.767 364.537 136.023 364.381 136.338C364.225 136.653 364.147 136.991 364.147 137.352V137.932C364.147 138.426 364.232 138.845 364.402 139.189C364.576 139.53 364.816 139.79 365.123 139.969C365.429 140.145 365.786 140.233 366.192 140.233C366.456 140.233 366.695 140.196 366.908 140.122C367.124 140.045 367.31 139.932 367.466 139.781C367.623 139.628 367.743 139.437 367.828 139.21L368.8 139.483C368.698 139.812 368.526 140.102 368.284 140.352C368.043 140.599 367.745 140.793 367.39 140.932C367.034 141.068 366.635 141.136 366.192 141.136ZM372.904 141.136C372.358 141.136 371.877 140.999 371.459 140.723C371.042 140.445 370.715 140.053 370.479 139.547C370.243 139.038 370.125 138.438 370.125 137.744C370.125 137.057 370.243 136.46 370.479 135.955C370.715 135.449 371.043 135.058 371.463 134.783C371.884 134.507 372.37 134.369 372.921 134.369C373.347 134.369 373.684 134.44 373.931 134.582C374.181 134.722 374.371 134.881 374.502 135.06C374.635 135.236 374.739 135.381 374.813 135.494H374.898V132.273H375.904V141H374.932V139.994H374.813C374.739 140.114 374.634 140.264 374.498 140.446C374.361 140.625 374.167 140.786 373.914 140.928C373.661 141.067 373.324 141.136 372.904 141.136ZM373.04 140.233C373.444 140.233 373.784 140.128 374.063 139.918C374.341 139.705 374.553 139.411 374.698 139.036C374.843 138.658 374.915 138.222 374.915 137.727C374.915 137.239 374.844 136.811 374.702 136.445C374.56 136.075 374.35 135.788 374.071 135.584C373.793 135.376 373.449 135.273 373.04 135.273C372.614 135.273 372.259 135.382 371.975 135.601C371.694 135.817 371.482 136.111 371.34 136.483C371.201 136.852 371.131 137.267 371.131 137.727C371.131 138.193 371.202 138.616 371.344 138.997C371.489 139.375 371.702 139.676 371.983 139.901C372.267 140.122 372.62 140.233 373.04 140.233ZM381.26 143.455V134.455H382.232V135.494H382.351C382.425 135.381 382.527 135.236 382.658 135.06C382.792 134.881 382.982 134.722 383.229 134.582C383.479 134.44 383.817 134.369 384.243 134.369C384.794 134.369 385.28 134.507 385.701 134.783C386.121 135.058 386.449 135.449 386.685 135.955C386.921 136.46 387.039 137.057 387.039 137.744C387.039 138.438 386.921 139.038 386.685 139.547C386.449 140.053 386.123 140.445 385.705 140.723C385.287 140.999 384.806 141.136 384.26 141.136C383.84 141.136 383.503 141.067 383.25 140.928C382.998 140.786 382.803 140.625 382.667 140.446C382.53 140.264 382.425 140.114 382.351 139.994H382.266V143.455H381.26ZM382.249 137.727C382.249 138.222 382.321 138.658 382.466 139.036C382.611 139.411 382.823 139.705 383.101 139.918C383.38 140.128 383.721 140.233 384.124 140.233C384.544 140.233 384.895 140.122 385.176 139.901C385.461 139.676 385.674 139.375 385.816 138.997C385.961 138.616 386.033 138.193 386.033 137.727C386.033 137.267 385.962 136.852 385.82 136.483C385.681 136.111 385.469 135.817 385.185 135.601C384.904 135.382 384.55 135.273 384.124 135.273C383.715 135.273 383.371 135.376 383.093 135.584C382.814 135.788 382.604 136.075 382.462 136.445C382.32 136.811 382.249 137.239 382.249 137.727ZM390.499 141.153C390.084 141.153 389.708 141.075 389.37 140.919C389.032 140.76 388.763 140.531 388.564 140.233C388.365 139.932 388.266 139.568 388.266 139.142C388.266 138.767 388.34 138.463 388.488 138.23C388.635 137.994 388.833 137.81 389.08 137.676C389.327 137.543 389.6 137.443 389.898 137.378C390.199 137.31 390.502 137.256 390.806 137.216C391.203 137.165 391.526 137.126 391.773 137.101C392.023 137.072 392.205 137.026 392.319 136.96C392.435 136.895 392.493 136.781 392.493 136.619V136.585C392.493 136.165 392.378 135.838 392.148 135.605C391.921 135.372 391.576 135.256 391.113 135.256C390.632 135.256 390.256 135.361 389.983 135.571C389.711 135.781 389.519 136.006 389.408 136.244L388.453 135.903C388.624 135.506 388.851 135.196 389.135 134.974C389.422 134.75 389.735 134.594 390.073 134.506C390.414 134.415 390.749 134.369 391.078 134.369C391.289 134.369 391.53 134.395 391.803 134.446C392.078 134.494 392.344 134.595 392.6 134.749C392.858 134.902 393.073 135.134 393.243 135.443C393.414 135.753 393.499 136.168 393.499 136.688V141H392.493V140.114H392.442C392.374 140.256 392.26 140.408 392.101 140.57C391.942 140.732 391.73 140.869 391.466 140.983C391.202 141.097 390.88 141.153 390.499 141.153ZM390.652 140.25C391.05 140.25 391.385 140.172 391.658 140.016C391.934 139.859 392.141 139.658 392.28 139.411C392.422 139.163 392.493 138.903 392.493 138.631V137.71C392.451 137.761 392.357 137.808 392.212 137.851C392.07 137.891 391.905 137.926 391.718 137.957C391.533 137.986 391.353 138.011 391.176 138.034C391.003 138.054 390.863 138.071 390.755 138.085C390.493 138.119 390.249 138.175 390.022 138.251C389.797 138.325 389.615 138.437 389.476 138.588C389.34 138.736 389.272 138.937 389.272 139.193C389.272 139.543 389.401 139.807 389.659 139.986C389.921 140.162 390.252 140.25 390.652 140.25ZM395.748 143.455C395.577 143.455 395.425 143.44 395.292 143.412C395.158 143.386 395.066 143.361 395.015 143.335L395.271 142.449C395.515 142.511 395.731 142.534 395.918 142.517C396.106 142.5 396.272 142.416 396.417 142.266C396.565 142.118 396.7 141.878 396.822 141.545L397.009 141.034L394.589 134.455H395.68L397.487 139.67H397.555L399.362 134.455H400.452L397.674 141.955C397.549 142.293 397.394 142.572 397.21 142.794C397.025 143.018 396.81 143.185 396.566 143.293C396.325 143.401 396.052 143.455 395.748 143.455ZM401.78 141V134.455H402.751V135.443H402.82C402.939 135.119 403.155 134.857 403.467 134.655C403.78 134.453 404.132 134.352 404.524 134.352C404.598 134.352 404.69 134.354 404.801 134.357C404.912 134.359 404.996 134.364 405.053 134.369V135.392C405.018 135.384 404.94 135.371 404.818 135.354C404.699 135.334 404.572 135.324 404.439 135.324C404.121 135.324 403.837 135.391 403.587 135.524C403.339 135.655 403.143 135.837 402.999 136.07C402.857 136.3 402.786 136.562 402.786 136.858V141H401.78ZM408.705 141.136C408.114 141.136 407.595 140.996 407.149 140.714C406.706 140.433 406.359 140.04 406.109 139.534C405.862 139.028 405.739 138.437 405.739 137.761C405.739 137.08 405.862 136.484 406.109 135.976C406.359 135.467 406.706 135.072 407.149 134.791C407.595 134.51 408.114 134.369 408.705 134.369C409.295 134.369 409.813 134.51 410.256 134.791C410.702 135.072 411.048 135.467 411.295 135.976C411.545 136.484 411.67 137.08 411.67 137.761C411.67 138.437 411.545 139.028 411.295 139.534C411.048 140.04 410.702 140.433 410.256 140.714C409.813 140.996 409.295 141.136 408.705 141.136ZM408.705 140.233C409.153 140.233 409.523 140.118 409.812 139.888C410.102 139.658 410.317 139.355 410.456 138.98C410.595 138.605 410.665 138.199 410.665 137.761C410.665 137.324 410.595 136.916 410.456 136.538C410.317 136.161 410.102 135.855 409.812 135.622C409.523 135.389 409.153 135.273 408.705 135.273C408.256 135.273 407.886 135.389 407.597 135.622C407.307 135.855 407.092 136.161 406.953 136.538C406.814 136.916 406.744 137.324 406.744 137.761C406.744 138.199 406.814 138.605 406.953 138.98C407.092 139.355 407.307 139.658 407.597 139.888C407.886 140.118 408.256 140.233 408.705 140.233ZM414.211 132.273V141H413.206V132.273H414.211ZM417.059 132.273V141H416.053V132.273H417.059ZM322.847 157.153C322.432 157.153 322.055 157.075 321.717 156.919C321.379 156.76 321.111 156.531 320.912 156.233C320.713 155.932 320.614 155.568 320.614 155.142C320.614 154.767 320.688 154.463 320.835 154.23C320.983 153.994 321.18 153.81 321.428 153.676C321.675 153.543 321.947 153.443 322.246 153.378C322.547 153.31 322.849 153.256 323.153 153.216C323.551 153.165 323.874 153.126 324.121 153.101C324.371 153.072 324.553 153.026 324.666 152.96C324.783 152.895 324.841 152.781 324.841 152.619V152.585C324.841 152.165 324.726 151.838 324.496 151.605C324.268 151.372 323.923 151.256 323.46 151.256C322.98 151.256 322.604 151.361 322.331 151.571C322.058 151.781 321.866 152.006 321.756 152.244L320.801 151.903C320.972 151.506 321.199 151.196 321.483 150.974C321.77 150.75 322.082 150.594 322.42 150.506C322.761 150.415 323.097 150.369 323.426 150.369C323.636 150.369 323.878 150.395 324.151 150.446C324.426 150.494 324.692 150.595 324.947 150.749C325.206 150.902 325.42 151.134 325.591 151.443C325.761 151.753 325.847 152.168 325.847 152.688V157H324.841V156.114H324.79C324.722 156.256 324.608 156.408 324.449 156.57C324.29 156.732 324.078 156.869 323.814 156.983C323.55 157.097 323.227 157.153 322.847 157.153ZM323 156.25C323.398 156.25 323.733 156.172 324.006 156.016C324.281 155.859 324.489 155.658 324.628 155.411C324.77 155.163 324.841 154.903 324.841 154.631V153.71C324.798 153.761 324.705 153.808 324.56 153.851C324.418 153.891 324.253 153.926 324.065 153.957C323.881 153.986 323.7 154.011 323.524 154.034C323.351 154.054 323.21 154.071 323.102 154.085C322.841 154.119 322.597 154.175 322.369 154.251C322.145 154.325 321.963 154.437 321.824 154.588C321.688 154.736 321.619 154.937 321.619 155.193C321.619 155.543 321.749 155.807 322.007 155.986C322.268 156.162 322.599 156.25 323 156.25ZM331.807 154.324V150.455H332.813V157H331.807V155.892H331.739C331.586 156.224 331.347 156.507 331.023 156.74C330.699 156.97 330.29 157.085 329.796 157.085C329.387 157.085 329.023 156.996 328.705 156.817C328.387 156.635 328.137 156.362 327.955 155.999C327.773 155.632 327.682 155.17 327.682 154.614V150.455H328.688V154.545C328.688 155.023 328.821 155.403 329.088 155.688C329.358 155.972 329.702 156.114 330.12 156.114C330.37 156.114 330.624 156.05 330.882 155.922C331.144 155.794 331.363 155.598 331.539 155.334C331.718 155.07 331.807 154.733 331.807 154.324ZM337.501 150.455V151.307H334.109V150.455H337.501ZM335.098 148.886H336.104V155.125C336.104 155.409 336.145 155.622 336.227 155.764C336.313 155.903 336.42 155.997 336.551 156.045C336.685 156.091 336.825 156.114 336.973 156.114C337.084 156.114 337.175 156.108 337.246 156.097C337.317 156.082 337.374 156.071 337.416 156.062L337.621 156.966C337.553 156.991 337.457 157.017 337.335 157.043C337.213 157.071 337.058 157.085 336.871 157.085C336.587 157.085 336.308 157.024 336.036 156.902C335.766 156.78 335.541 156.594 335.362 156.344C335.186 156.094 335.098 155.778 335.098 155.398V148.886ZM341.603 157.136C341.012 157.136 340.494 156.996 340.048 156.714C339.604 156.433 339.258 156.04 339.008 155.534C338.761 155.028 338.637 154.437 338.637 153.761C338.637 153.08 338.761 152.484 339.008 151.976C339.258 151.467 339.604 151.072 340.048 150.791C340.494 150.51 341.012 150.369 341.603 150.369C342.194 150.369 342.711 150.51 343.154 150.791C343.6 151.072 343.947 151.467 344.194 151.976C344.444 152.484 344.569 153.08 344.569 153.761C344.569 154.437 344.444 155.028 344.194 155.534C343.947 156.04 343.6 156.433 343.154 156.714C342.711 156.996 342.194 157.136 341.603 157.136ZM341.603 156.233C342.052 156.233 342.421 156.118 342.711 155.888C343.001 155.658 343.215 155.355 343.354 154.98C343.494 154.605 343.563 154.199 343.563 153.761C343.563 153.324 343.494 152.916 343.354 152.538C343.215 152.161 343.001 151.855 342.711 151.622C342.421 151.389 342.052 151.273 341.603 151.273C341.154 151.273 340.785 151.389 340.495 151.622C340.205 151.855 339.991 152.161 339.852 152.538C339.712 152.916 339.643 153.324 339.643 153.761C339.643 154.199 339.712 154.605 339.852 154.98C339.991 155.355 340.205 155.658 340.495 155.888C340.785 156.118 341.154 156.233 341.603 156.233ZM346.104 157V150.455H347.076V151.477H347.161C347.297 151.128 347.517 150.857 347.821 150.663C348.125 150.467 348.49 150.369 348.917 150.369C349.348 150.369 349.708 150.467 349.995 150.663C350.284 150.857 350.51 151.128 350.672 151.477H350.74C350.908 151.139 351.159 150.871 351.495 150.672C351.83 150.47 352.232 150.369 352.701 150.369C353.286 150.369 353.765 150.553 354.137 150.919C354.509 151.283 354.695 151.849 354.695 152.619V157H353.689V152.619C353.689 152.136 353.557 151.791 353.293 151.584C353.029 151.376 352.718 151.273 352.36 151.273C351.9 151.273 351.543 151.412 351.29 151.69C351.037 151.966 350.911 152.315 350.911 152.739V157H349.888V152.517C349.888 152.145 349.767 151.845 349.526 151.618C349.284 151.388 348.973 151.273 348.593 151.273C348.331 151.273 348.087 151.342 347.86 151.482C347.635 151.621 347.453 151.814 347.314 152.061C347.178 152.305 347.11 152.588 347.11 152.909V157H346.104ZM358.46 157.153C358.045 157.153 357.669 157.075 357.331 156.919C356.993 156.76 356.724 156.531 356.525 156.233C356.326 155.932 356.227 155.568 356.227 155.142C356.227 154.767 356.301 154.463 356.449 154.23C356.596 153.994 356.794 153.81 357.041 153.676C357.288 153.543 357.561 153.443 357.859 153.378C358.16 153.31 358.463 153.256 358.767 153.216C359.164 153.165 359.487 153.126 359.734 153.101C359.984 153.072 360.166 153.026 360.279 152.96C360.396 152.895 360.454 152.781 360.454 152.619V152.585C360.454 152.165 360.339 151.838 360.109 151.605C359.882 151.372 359.537 151.256 359.074 151.256C358.593 151.256 358.217 151.361 357.944 151.571C357.672 151.781 357.48 152.006 357.369 152.244L356.414 151.903C356.585 151.506 356.812 151.196 357.096 150.974C357.383 150.75 357.696 150.594 358.034 150.506C358.375 150.415 358.71 150.369 359.039 150.369C359.25 150.369 359.491 150.395 359.764 150.446C360.039 150.494 360.305 150.595 360.561 150.749C360.819 150.902 361.034 151.134 361.204 151.443C361.375 151.753 361.46 152.168 361.46 152.688V157H360.454V156.114H360.403C360.335 156.256 360.221 156.408 360.062 156.57C359.903 156.732 359.691 156.869 359.427 156.983C359.163 157.097 358.841 157.153 358.46 157.153ZM358.613 156.25C359.011 156.25 359.346 156.172 359.619 156.016C359.895 155.859 360.102 155.658 360.241 155.411C360.383 155.163 360.454 154.903 360.454 154.631V153.71C360.412 153.761 360.318 153.808 360.173 153.851C360.031 153.891 359.866 153.926 359.679 153.957C359.494 153.986 359.314 154.011 359.137 154.034C358.964 154.054 358.824 154.071 358.716 154.085C358.454 154.119 358.21 154.175 357.983 154.251C357.758 154.325 357.576 154.437 357.437 154.588C357.301 154.736 357.233 154.937 357.233 155.193C357.233 155.543 357.362 155.807 357.62 155.986C357.882 156.162 358.213 156.25 358.613 156.25ZM366.142 150.455V151.307H362.75V150.455H366.142ZM363.739 148.886H364.744V155.125C364.744 155.409 364.786 155.622 364.868 155.764C364.953 155.903 365.061 155.997 365.192 156.045C365.325 156.091 365.466 156.114 365.614 156.114C365.724 156.114 365.815 156.108 365.886 156.097C365.957 156.082 366.014 156.071 366.057 156.062L366.261 156.966C366.193 156.991 366.098 157.017 365.976 157.043C365.854 157.071 365.699 157.085 365.511 157.085C365.227 157.085 364.949 157.024 364.676 156.902C364.406 156.78 364.182 156.594 364.003 156.344C363.827 156.094 363.739 155.778 363.739 155.398V148.886ZM367.655 157V150.455H368.661V157H367.655ZM368.166 149.364C367.97 149.364 367.801 149.297 367.659 149.163C367.52 149.03 367.45 148.869 367.45 148.682C367.45 148.494 367.52 148.334 367.659 148.2C367.801 148.067 367.97 148 368.166 148C368.362 148 368.53 148.067 368.669 148.2C368.811 148.334 368.882 148.494 368.882 148.682C368.882 148.869 368.811 149.03 368.669 149.163C368.53 149.297 368.362 149.364 368.166 149.364ZM373.162 157.136C372.571 157.136 372.052 156.996 371.606 156.714C371.163 156.433 370.816 156.04 370.566 155.534C370.319 155.028 370.196 154.437 370.196 153.761C370.196 153.08 370.319 152.484 370.566 151.976C370.816 151.467 371.163 151.072 371.606 150.791C372.052 150.51 372.571 150.369 373.162 150.369C373.752 150.369 374.27 150.51 374.713 150.791C375.159 151.072 375.505 151.467 375.752 151.976C376.002 152.484 376.127 153.08 376.127 153.761C376.127 154.437 376.002 155.028 375.752 155.534C375.505 156.04 375.159 156.433 374.713 156.714C374.27 156.996 373.752 157.136 373.162 157.136ZM373.162 156.233C373.61 156.233 373.98 156.118 374.27 155.888C374.559 155.658 374.774 155.355 374.913 154.98C375.052 154.605 375.122 154.199 375.122 153.761C375.122 153.324 375.052 152.916 374.913 152.538C374.774 152.161 374.559 151.855 374.27 151.622C373.98 151.389 373.61 151.273 373.162 151.273C372.713 151.273 372.343 151.389 372.054 151.622C371.764 151.855 371.549 152.161 371.41 152.538C371.271 152.916 371.201 153.324 371.201 153.761C371.201 154.199 371.271 154.605 371.41 154.98C371.549 155.355 371.764 155.658 372.054 155.888C372.343 156.118 372.713 156.233 373.162 156.233ZM378.668 153.062V157H377.663V150.455H378.634V151.477H378.719C378.873 151.145 379.106 150.878 379.418 150.676C379.731 150.472 380.134 150.369 380.629 150.369C381.072 150.369 381.46 150.46 381.792 150.642C382.124 150.821 382.383 151.094 382.567 151.46C382.752 151.824 382.844 152.284 382.844 152.841V157H381.839V152.909C381.839 152.395 381.705 151.994 381.438 151.707C381.171 151.418 380.805 151.273 380.339 151.273C380.018 151.273 379.731 151.342 379.478 151.482C379.228 151.621 379.031 151.824 378.886 152.091C378.741 152.358 378.668 152.682 378.668 153.062ZM390.529 157.119C389.955 157.119 389.461 157.014 389.046 156.804C388.631 156.594 388.311 156.305 388.087 155.939C387.863 155.572 387.75 155.153 387.75 154.682C387.75 154.318 387.827 153.996 387.98 153.714C388.137 153.43 388.351 153.168 388.624 152.926C388.9 152.682 389.216 152.438 389.574 152.193L390.836 151.256C391.083 151.094 391.28 150.92 391.428 150.736C391.578 150.551 391.654 150.31 391.654 150.011C391.654 149.79 391.556 149.575 391.36 149.368C391.167 149.161 390.912 149.057 390.597 149.057C390.375 149.057 390.179 149.114 390.009 149.227C389.841 149.338 389.709 149.48 389.613 149.653C389.519 149.824 389.472 150 389.472 150.182C389.472 150.386 389.527 150.594 389.638 150.804C389.752 151.011 389.895 151.224 390.069 151.443C390.245 151.659 390.426 151.881 390.614 152.108L394.62 157H393.409L390.103 153.011C389.796 152.642 389.517 152.307 389.267 152.006C389.017 151.705 388.819 151.408 388.671 151.115C388.523 150.822 388.449 150.506 388.449 150.165C388.449 149.773 388.536 149.429 388.709 149.134C388.885 148.835 389.131 148.604 389.446 148.439C389.765 148.271 390.137 148.188 390.563 148.188C391 148.188 391.377 148.273 391.692 148.443C392.007 148.611 392.25 148.834 392.421 149.112C392.591 149.388 392.676 149.688 392.676 150.011C392.676 150.429 392.573 150.791 392.365 151.098C392.158 151.405 391.875 151.69 391.517 151.955L389.779 153.25C389.387 153.54 389.121 153.821 388.982 154.094C388.843 154.366 388.773 154.562 388.773 154.682C388.773 154.955 388.844 155.209 388.986 155.445C389.128 155.68 389.328 155.871 389.587 156.016C389.846 156.161 390.148 156.233 390.495 156.233C390.824 156.233 391.145 156.163 391.458 156.024C391.77 155.882 392.053 155.678 392.306 155.411C392.561 155.143 392.763 154.822 392.911 154.447C393.061 154.072 393.137 153.651 393.137 153.182H394.108C394.108 153.761 394.042 154.234 393.908 154.601C393.775 154.967 393.624 155.254 393.456 155.462C393.289 155.669 393.154 155.824 393.051 155.926C393.017 155.969 392.986 156.011 392.958 156.054C392.929 156.097 392.898 156.139 392.864 156.182C392.583 156.497 392.228 156.733 391.799 156.889C391.37 157.043 390.946 157.119 390.529 157.119ZM399.244 157V148.273H400.301V152.159H404.955V148.273H406.011V157H404.955V153.097H400.301V157H399.244ZM408.127 157V148.273H411.076C411.758 148.273 412.317 148.389 412.755 148.622C413.192 148.852 413.516 149.169 413.727 149.572C413.937 149.976 414.042 150.435 414.042 150.949C414.042 151.463 413.937 151.919 413.727 152.317C413.516 152.714 413.194 153.027 412.759 153.254C412.325 153.479 411.769 153.591 411.093 153.591H408.707V152.636H411.059C411.525 152.636 411.9 152.568 412.184 152.432C412.471 152.295 412.678 152.102 412.806 151.852C412.937 151.599 413.002 151.298 413.002 150.949C413.002 150.599 412.937 150.294 412.806 150.033C412.675 149.771 412.467 149.57 412.18 149.428C411.893 149.283 411.513 149.21 411.042 149.21H409.184V157H408.127ZM412.235 153.08L414.383 157H413.156L411.042 153.08H412.235ZM423.678 151.92L422.775 152.176C422.718 152.026 422.634 151.879 422.523 151.737C422.415 151.592 422.267 151.473 422.08 151.379C421.892 151.286 421.652 151.239 421.36 151.239C420.959 151.239 420.625 151.331 420.358 151.516C420.094 151.697 419.962 151.929 419.962 152.21C419.962 152.46 420.053 152.658 420.235 152.803C420.417 152.947 420.701 153.068 421.087 153.165L422.059 153.403C422.644 153.545 423.08 153.763 423.367 154.055C423.654 154.345 423.797 154.719 423.797 155.176C423.797 155.551 423.689 155.886 423.473 156.182C423.26 156.477 422.962 156.71 422.578 156.881C422.195 157.051 421.749 157.136 421.24 157.136C420.573 157.136 420.02 156.991 419.583 156.702C419.145 156.412 418.868 155.989 418.752 155.432L419.706 155.193C419.797 155.545 419.969 155.81 420.222 155.986C420.478 156.162 420.811 156.25 421.223 156.25C421.692 156.25 422.064 156.151 422.34 155.952C422.618 155.75 422.757 155.509 422.757 155.227C422.757 155 422.678 154.81 422.519 154.656C422.36 154.5 422.115 154.384 421.786 154.307L420.695 154.051C420.096 153.909 419.655 153.689 419.374 153.391C419.096 153.089 418.956 152.713 418.956 152.261C418.956 151.892 419.06 151.565 419.267 151.281C419.478 150.997 419.763 150.774 420.124 150.612C420.488 150.45 420.9 150.369 421.36 150.369C422.007 150.369 422.516 150.511 422.885 150.795C423.257 151.08 423.522 151.455 423.678 151.92ZM427.97 157.136C427.379 157.136 426.861 156.996 426.415 156.714C425.972 156.433 425.625 156.04 425.375 155.534C425.128 155.028 425.004 154.437 425.004 153.761C425.004 153.08 425.128 152.484 425.375 151.976C425.625 151.467 425.972 151.072 426.415 150.791C426.861 150.51 427.379 150.369 427.97 150.369C428.561 150.369 429.078 150.51 429.521 150.791C429.967 151.072 430.314 151.467 430.561 151.976C430.811 152.484 430.936 153.08 430.936 153.761C430.936 154.437 430.811 155.028 430.561 155.534C430.314 156.04 429.967 156.433 429.521 156.714C429.078 156.996 428.561 157.136 427.97 157.136ZM427.97 156.233C428.419 156.233 428.788 156.118 429.078 155.888C429.368 155.658 429.582 155.355 429.722 154.98C429.861 154.605 429.93 154.199 429.93 153.761C429.93 153.324 429.861 152.916 429.722 152.538C429.582 152.161 429.368 151.855 429.078 151.622C428.788 151.389 428.419 151.273 427.97 151.273C427.521 151.273 427.152 151.389 426.862 151.622C426.572 151.855 426.358 152.161 426.219 152.538C426.08 152.916 426.01 153.324 426.01 153.761C426.01 154.199 426.08 154.605 426.219 154.98C426.358 155.355 426.572 155.658 426.862 155.888C427.152 156.118 427.521 156.233 427.97 156.233ZM433.477 148.273V157H432.471V148.273H433.477ZM439.444 154.324V150.455H440.45V157H439.444V155.892H439.376C439.222 156.224 438.984 156.507 438.66 156.74C438.336 156.97 437.927 157.085 437.433 157.085C437.023 157.085 436.66 156.996 436.342 156.817C436.023 156.635 435.773 156.362 435.592 155.999C435.41 155.632 435.319 155.17 435.319 154.614V150.455H436.325V154.545C436.325 155.023 436.458 155.403 436.725 155.688C436.995 155.972 437.339 156.114 437.756 156.114C438.006 156.114 438.261 156.05 438.519 155.922C438.781 155.794 438.999 155.598 439.175 155.334C439.354 155.07 439.444 154.733 439.444 154.324ZM445.138 150.455V151.307H441.746V150.455H445.138ZM442.735 148.886H443.74V155.125C443.74 155.409 443.782 155.622 443.864 155.764C443.949 155.903 444.057 155.997 444.188 156.045C444.321 156.091 444.462 156.114 444.61 156.114C444.721 156.114 444.811 156.108 444.882 156.097C444.953 156.082 445.01 156.071 445.053 156.062L445.257 156.966C445.189 156.991 445.094 157.017 444.972 157.043C444.85 157.071 444.695 157.085 444.507 157.085C444.223 157.085 443.945 157.024 443.672 156.902C443.402 156.78 443.178 156.594 442.999 156.344C442.823 156.094 442.735 155.778 442.735 155.398V148.886ZM446.651 157V150.455H447.657V157H446.651ZM447.162 149.364C446.966 149.364 446.797 149.297 446.655 149.163C446.516 149.03 446.446 148.869 446.446 148.682C446.446 148.494 446.516 148.334 446.655 148.2C446.797 148.067 446.966 148 447.162 148C447.358 148 447.526 148.067 447.665 148.2C447.807 148.334 447.878 148.494 447.878 148.682C447.878 148.869 447.807 149.03 447.665 149.163C447.526 149.297 447.358 149.364 447.162 149.364ZM452.158 157.136C451.567 157.136 451.048 156.996 450.602 156.714C450.159 156.433 449.812 156.04 449.562 155.534C449.315 155.028 449.192 154.437 449.192 153.761C449.192 153.08 449.315 152.484 449.562 151.976C449.812 151.467 450.159 151.072 450.602 150.791C451.048 150.51 451.567 150.369 452.158 150.369C452.749 150.369 453.266 150.51 453.709 150.791C454.155 151.072 454.501 151.467 454.749 151.976C454.999 152.484 455.124 153.08 455.124 153.761C455.124 154.437 454.999 155.028 454.749 155.534C454.501 156.04 454.155 156.433 453.709 156.714C453.266 156.996 452.749 157.136 452.158 157.136ZM452.158 156.233C452.607 156.233 452.976 156.118 453.266 155.888C453.555 155.658 453.77 155.355 453.909 154.98C454.048 154.605 454.118 154.199 454.118 153.761C454.118 153.324 454.048 152.916 453.909 152.538C453.77 152.161 453.555 151.855 453.266 151.622C452.976 151.389 452.607 151.273 452.158 151.273C451.709 151.273 451.339 151.389 451.05 151.622C450.76 151.855 450.545 152.161 450.406 152.538C450.267 152.916 450.197 153.324 450.197 153.761C450.197 154.199 450.267 154.605 450.406 154.98C450.545 155.355 450.76 155.658 451.05 155.888C451.339 156.118 451.709 156.233 452.158 156.233ZM457.664 153.062V157H456.659V150.455H457.63V151.477H457.716C457.869 151.145 458.102 150.878 458.414 150.676C458.727 150.472 459.13 150.369 459.625 150.369C460.068 150.369 460.456 150.46 460.788 150.642C461.12 150.821 461.379 151.094 461.564 151.46C461.748 151.824 461.841 152.284 461.841 152.841V157H460.835V152.909C460.835 152.395 460.701 151.994 460.434 151.707C460.167 151.418 459.801 151.273 459.335 151.273C459.014 151.273 458.727 151.342 458.474 151.482C458.224 151.621 458.027 151.824 457.882 152.091C457.737 152.358 457.664 152.682 457.664 153.062ZM464.411 157.068C464.201 157.068 464.021 156.993 463.87 156.842C463.719 156.692 463.644 156.511 463.644 156.301C463.644 156.091 463.719 155.911 463.87 155.76C464.021 155.609 464.201 155.534 464.411 155.534C464.621 155.534 464.802 155.609 464.952 155.76C465.103 155.911 465.178 156.091 465.178 156.301C465.178 156.44 465.143 156.568 465.072 156.685C465.004 156.801 464.911 156.895 464.795 156.966C464.681 157.034 464.553 157.068 464.411 157.068Z" fill="#626B79"/>
</g>
<g clip-path="url(#clip4_3875_107952)">
<g filter="url(#filter0_dd_3875_107952)">
<rect x="433" y="114" width="40" height="40" rx="20" fill="#8B5CF6"/>
<path d="M454.414 143.399C454.789 143.015 455 142.493 455 141.949C455 141.405 454.789 140.883 454.414 140.498C454.039 140.114 453.53 139.897 453 139.897C452.47 139.897 451.961 140.114 451.586 140.498C451.211 140.883 451 141.405 451 141.949C451 142.493 451.211 143.015 451.586 143.399C451.961 143.784 452.47 144 453 144C453.53 144 454.039 143.784 454.414 143.399Z" fill="white"/>
<path d="M451.232 127.828C450.763 128.309 450.5 128.961 450.5 129.641V130.667C450.5 131.075 450.342 131.466 450.061 131.755C449.779 132.043 449.398 132.205 449 132.205C448.602 132.205 448.221 132.043 447.939 131.755C447.658 131.466 447.5 131.075 447.5 130.667V129.641C447.5 128.145 448.079 126.71 449.111 125.652C450.142 124.594 451.541 124 453 124C454.459 124 455.858 124.594 456.889 125.652C457.921 126.71 458.5 128.145 458.5 129.641V129.891C458.5 131.453 457.895 132.951 456.818 134.055L454.06 136.882C453.923 137.033 453.757 137.154 453.573 137.239C453.389 137.323 453.19 137.368 452.989 137.371C452.788 137.375 452.588 137.337 452.401 137.26C452.214 137.182 452.044 137.067 451.902 136.921C451.759 136.775 451.647 136.601 451.572 136.409C451.496 136.218 451.459 136.013 451.463 135.806C451.466 135.6 451.51 135.396 451.592 135.207C451.674 135.018 451.793 134.849 451.94 134.708L454.696 131.879C455.21 131.352 455.5 130.636 455.5 129.889V129.641C455.5 128.961 455.237 128.309 454.768 127.828C454.299 127.347 453.663 127.077 453 127.077C452.337 127.077 451.701 127.347 451.232 127.828Z" fill="white"/>
</g>
</g>
</g>
<rect x="97" y="93" width="92" height="92" rx="6" fill="#F2F4F7"/>
<g clip-path="url(#clip5_3875_107952)">
<g filter="url(#filter1_dd_3875_107952)">
<rect x="123" y="119" width="40" height="40" rx="20" fill="#8B5CF6"/>
<path d="M144.414 148.399C144.789 148.015 145 147.493 145 146.949C145 146.405 144.789 145.883 144.414 145.498C144.039 145.114 143.53 144.897 143 144.897C142.47 144.897 141.961 145.114 141.586 145.498C141.211 145.883 141 146.405 141 146.949C141 147.493 141.211 148.015 141.586 148.399C141.961 148.784 142.47 149 143 149C143.53 149 144.039 148.784 144.414 148.399Z" fill="white"/>
<path d="M141.232 132.828C140.763 133.309 140.5 133.961 140.5 134.641V135.667C140.5 136.075 140.342 136.466 140.061 136.755C139.779 137.043 139.398 137.205 139 137.205C138.602 137.205 138.221 137.043 137.939 136.755C137.658 136.466 137.5 136.075 137.5 135.667V134.641C137.5 133.145 138.079 131.71 139.111 130.652C140.142 129.594 141.541 129 143 129C144.459 129 145.858 129.594 146.889 130.652C147.921 131.71 148.5 133.145 148.5 134.641V134.891C148.5 136.453 147.895 137.951 146.818 139.055L144.06 141.882C143.923 142.033 143.757 142.154 143.573 142.239C143.389 142.323 143.19 142.368 142.989 142.371C142.788 142.375 142.588 142.337 142.401 142.26C142.214 142.182 142.044 142.067 141.902 141.921C141.759 141.775 141.647 141.601 141.572 141.409C141.496 141.218 141.459 141.013 141.463 140.806C141.466 140.6 141.51 140.396 141.592 140.207C141.674 140.018 141.793 139.849 141.94 139.708L144.696 136.879C145.21 136.352 145.5 135.636 145.5 134.889V134.641C145.5 133.961 145.237 133.309 144.768 132.828C144.299 132.347 143.663 132.077 143 132.077C142.337 132.077 141.701 132.347 141.232 132.828Z" fill="white"/>
</g>
</g>
<g clip-path="url(#clip6_3875_107952)">
<rect x="158.165" y="-62.6592" width="4" height="280.596" transform="rotate(30 158.165 -62.6592)" fill="#E0AB00"/>
<rect x="166.825" y="-57.6592" width="4" height="280.596" transform="rotate(30 166.825 -57.6592)" fill="#E0AB00"/>
<rect x="175.486" y="-52.6592" width="4" height="280.596" transform="rotate(30 175.486 -52.6592)" fill="#E0AB00"/>
<rect x="184.146" y="-47.6592" width="4" height="280.596" transform="rotate(30 184.146 -47.6592)" fill="#E0AB00"/>
<rect x="192.806" y="-42.6592" width="4" height="280.596" transform="rotate(30 192.806 -42.6592)" fill="#E0AB00"/>
<rect x="201.466" y="-37.6592" width="4" height="280.596" transform="rotate(30 201.466 -37.6592)" fill="#E0AB00"/>
<rect x="210.127" y="-32.6592" width="4" height="280.596" transform="rotate(30 210.127 -32.6592)" fill="#E0AB00"/>
<rect x="218.787" y="-27.6592" width="4" height="280.596" transform="rotate(30 218.787 -27.6592)" fill="#E0AB00"/>
<rect x="227.447" y="-22.6592" width="4" height="280.596" transform="rotate(30 227.447 -22.6592)" fill="#E0AB00"/>
<rect x="236.107" y="-17.6592" width="4" height="280.596" transform="rotate(30 236.107 -17.6592)" fill="#E0AB00"/>
<rect x="244.768" y="-12.6592" width="4" height="280.596" transform="rotate(30 244.768 -12.6592)" fill="#E0AB00"/>
<rect x="253.428" y="-7.65918" width="4" height="280.596" transform="rotate(30 253.428 -7.65918)" fill="#E0AB00"/>
<rect x="262.088" y="-2.65918" width="4" height="280.596" transform="rotate(30 262.088 -2.65918)" fill="#E0AB00"/>
<rect x="270.748" y="2.34082" width="4" height="280.596" transform="rotate(30 270.748 2.34082)" fill="#E0AB00"/>
<rect x="279.409" y="7.34082" width="4" height="280.596" transform="rotate(30 279.409 7.34082)" fill="#E0AB00"/>
<rect x="288.069" y="12.3408" width="4" height="280.596" transform="rotate(30 288.069 12.3408)" fill="#E0AB00"/>
<rect x="296.729" y="17.3408" width="4" height="280.596" transform="rotate(30 296.729 17.3408)" fill="#E0AB00"/>
<rect x="305.389" y="22.3408" width="4" height="280.596" transform="rotate(30 305.389 22.3408)" fill="#E0AB00"/>
<rect x="314.05" y="27.3408" width="4" height="280.596" transform="rotate(30 314.05 27.3408)" fill="#E0AB00"/>
<rect x="322.71" y="32.3408" width="4" height="280.596" transform="rotate(30 322.71 32.3408)" fill="#E0AB00"/>
</g>
<g clip-path="url(#clip7_3875_107952)">
<rect x="158.165" y="5.34082" width="4" height="280.596" transform="rotate(30 158.165 5.34082)" fill="#E0AB00"/>
<rect x="166.825" y="10.3408" width="4" height="280.596" transform="rotate(30 166.825 10.3408)" fill="#E0AB00"/>
<rect x="175.486" y="15.3408" width="4" height="280.596" transform="rotate(30 175.486 15.3408)" fill="#E0AB00"/>
<rect x="184.146" y="20.3408" width="4" height="280.596" transform="rotate(30 184.146 20.3408)" fill="#E0AB00"/>
<rect x="192.806" y="25.3408" width="4" height="280.596" transform="rotate(30 192.806 25.3408)" fill="#E0AB00"/>
<rect x="201.466" y="30.3408" width="4" height="280.596" transform="rotate(30 201.466 30.3408)" fill="#E0AB00"/>
<rect x="210.127" y="35.3408" width="4" height="280.596" transform="rotate(30 210.127 35.3408)" fill="#E0AB00"/>
<rect x="218.787" y="40.3408" width="4" height="280.596" transform="rotate(30 218.787 40.3408)" fill="#E0AB00"/>
<rect x="227.447" y="45.3408" width="4" height="280.596" transform="rotate(30 227.447 45.3408)" fill="#E0AB00"/>
<rect x="236.107" y="50.3408" width="4" height="280.596" transform="rotate(30 236.107 50.3408)" fill="#E0AB00"/>
<rect x="244.768" y="55.3408" width="4" height="280.596" transform="rotate(30 244.768 55.3408)" fill="#E0AB00"/>
<rect x="253.428" y="60.3408" width="4" height="280.596" transform="rotate(30 253.428 60.3408)" fill="#E0AB00"/>
<rect x="262.088" y="65.3408" width="4" height="280.596" transform="rotate(30 262.088 65.3408)" fill="#E0AB00"/>
<rect x="270.748" y="70.3408" width="4" height="280.596" transform="rotate(30 270.748 70.3408)" fill="#E0AB00"/>
<rect x="279.409" y="75.3408" width="4" height="280.596" transform="rotate(30 279.409 75.3408)" fill="#E0AB00"/>
<rect x="288.069" y="80.3408" width="4" height="280.596" transform="rotate(30 288.069 80.3408)" fill="#E0AB00"/>
<rect x="296.729" y="85.3408" width="4" height="280.596" transform="rotate(30 296.729 85.3408)" fill="#E0AB00"/>
<rect x="305.389" y="90.3408" width="4" height="280.596" transform="rotate(30 305.389 90.3408)" fill="#E0AB00"/>
<rect x="314.05" y="95.3408" width="4" height="280.596" transform="rotate(30 314.05 95.3408)" fill="#E0AB00"/>
<rect x="322.71" y="100.341" width="4" height="280.596" transform="rotate(30 322.71 100.341)" fill="#E0AB00"/>
</g>
<g clip-path="url(#clip8_3875_107952)">
<rect x="276.659" y="178.165" width="4" height="280.596" transform="rotate(120 276.659 178.165)" fill="#E0AB00"/>
<rect x="271.659" y="186.825" width="4" height="280.596" transform="rotate(120 271.659 186.825)" fill="#E0AB00"/>
<rect x="266.659" y="195.485" width="4" height="280.596" transform="rotate(120 266.659 195.485)" fill="#E0AB00"/>
<rect x="261.659" y="204.146" width="4" height="280.596" transform="rotate(120 261.659 204.146)" fill="#E0AB00"/>
<rect x="256.659" y="212.806" width="4" height="280.596" transform="rotate(120 256.659 212.806)" fill="#E0AB00"/>
<rect x="251.659" y="221.466" width="4" height="280.596" transform="rotate(120 251.659 221.466)" fill="#E0AB00"/>
<rect x="246.659" y="230.126" width="4" height="280.596" transform="rotate(120 246.659 230.126)" fill="#E0AB00"/>
<rect x="241.659" y="238.787" width="4" height="280.596" transform="rotate(120 241.659 238.787)" fill="#E0AB00"/>
<rect x="236.659" y="247.447" width="4" height="280.596" transform="rotate(120 236.659 247.447)" fill="#E0AB00"/>
<rect x="231.659" y="256.107" width="4" height="280.596" transform="rotate(120 231.659 256.107)" fill="#E0AB00"/>
<rect x="226.659" y="264.768" width="4" height="280.596" transform="rotate(120 226.659 264.768)" fill="#E0AB00"/>
<rect x="221.659" y="273.428" width="4" height="280.596" transform="rotate(120 221.659 273.428)" fill="#E0AB00"/>
<rect x="216.659" y="282.088" width="4" height="280.596" transform="rotate(120 216.659 282.088)" fill="#E0AB00"/>
<rect x="211.659" y="290.749" width="4" height="280.596" transform="rotate(120 211.659 290.749)" fill="#E0AB00"/>
<rect x="206.659" y="299.409" width="4" height="280.596" transform="rotate(120 206.659 299.409)" fill="#E0AB00"/>
</g>
<g clip-path="url(#clip9_3875_107952)">
<rect x="344.659" y="178.165" width="4" height="280.596" transform="rotate(120 344.659 178.165)" fill="#E0AB00"/>
<rect x="339.659" y="186.825" width="4" height="280.596" transform="rotate(120 339.659 186.825)" fill="#E0AB00"/>
<rect x="334.659" y="195.485" width="4" height="280.596" transform="rotate(120 334.659 195.485)" fill="#E0AB00"/>
<rect x="329.659" y="204.146" width="4" height="280.596" transform="rotate(120 329.659 204.146)" fill="#E0AB00"/>
<rect x="324.659" y="212.806" width="4" height="280.596" transform="rotate(120 324.659 212.806)" fill="#E0AB00"/>
<rect x="319.659" y="221.466" width="4" height="280.596" transform="rotate(120 319.659 221.466)" fill="#E0AB00"/>
<rect x="314.659" y="230.126" width="4" height="280.596" transform="rotate(120 314.659 230.126)" fill="#E0AB00"/>
<rect x="309.659" y="238.787" width="4" height="280.596" transform="rotate(120 309.659 238.787)" fill="#E0AB00"/>
<rect x="304.659" y="247.447" width="4" height="280.596" transform="rotate(120 304.659 247.447)" fill="#E0AB00"/>
<rect x="299.659" y="256.107" width="4" height="280.596" transform="rotate(120 299.659 256.107)" fill="#E0AB00"/>
<rect x="294.659" y="264.768" width="4" height="280.596" transform="rotate(120 294.659 264.768)" fill="#E0AB00"/>
<rect x="289.659" y="273.428" width="4" height="280.596" transform="rotate(120 289.659 273.428)" fill="#E0AB00"/>
<rect x="284.659" y="282.088" width="4" height="280.596" transform="rotate(120 284.659 282.088)" fill="#E0AB00"/>
<rect x="279.659" y="290.749" width="4" height="280.596" transform="rotate(120 279.659 290.749)" fill="#E0AB00"/>
<rect x="274.659" y="299.409" width="4" height="280.596" transform="rotate(120 274.659 299.409)" fill="#E0AB00"/>
</g>
<defs>
<filter id="filter0_dd_3875_107952" x="429" y="112" width="48" height="48" filterUnits="userSpaceOnUse" color-interpolation-filters="sRGB">
<feFlood flood-opacity="0" result="BackgroundImageFix"/>
<feColorMatrix in="SourceAlpha" type="matrix" values="0 0 0 0 0 0 0 0 0 0 0 0 0 0 0 0 0 0 127 0" result="hardAlpha"/>
<feOffset/>
<feGaussianBlur stdDeviation="1"/>
<feColorMatrix type="matrix" values="0 0 0 0 0 0 0 0 0 0 0 0 0 0 0 0 0 0 0.12 0"/>
<feBlend mode="normal" in2="BackgroundImageFix" result="effect1_dropShadow_3875_107952"/>
<feColorMatrix in="SourceAlpha" type="matrix" values="0 0 0 0 0 0 0 0 0 0 0 0 0 0 0 0 0 0 127 0" result="hardAlpha"/>
<feOffset dy="2"/>
<feGaussianBlur stdDeviation="2"/>
<feColorMatrix type="matrix" values="0 0 0 0 0 0 0 0 0 0 0 0 0 0 0 0 0 0 0.14 0"/>
<feBlend mode="normal" in2="effect1_dropShadow_3875_107952" result="effect2_dropShadow_3875_107952"/>
<feBlend mode="normal" in="SourceGraphic" in2="effect2_dropShadow_3875_107952" result="shape"/>
</filter>
<filter id="filter1_dd_3875_107952" x="119" y="117" width="48" height="48" filterUnits="userSpaceOnUse" color-interpolation-filters="sRGB">
<feFlood flood-opacity="0" result="BackgroundImageFix"/>
<feColorMatrix in="SourceAlpha" type="matrix" values="0 0 0 0 0 0 0 0 0 0 0 0 0 0 0 0 0 0 127 0" result="hardAlpha"/>
<feOffset/>
<feGaussianBlur stdDeviation="1"/>
<feColorMatrix type="matrix" values="0 0 0 0 0 0 0 0 0 0 0 0 0 0 0 0 0 0 0.12 0"/>
<feBlend mode="normal" in2="BackgroundImageFix" result="effect1_dropShadow_3875_107952"/>
<feColorMatrix in="SourceAlpha" type="matrix" values="0 0 0 0 0 0 0 0 0 0 0 0 0 0 0 0 0 0 127 0" result="hardAlpha"/>
<feOffset dy="2"/>
<feGaussianBlur stdDeviation="2"/>
<feColorMatrix type="matrix" values="0 0 0 0 0 0 0 0 0 0 0 0 0 0 0 0 0 0 0.14 0"/>
<feBlend mode="normal" in2="effect1_dropShadow_3875_107952" result="effect2_dropShadow_3875_107952"/>
<feBlend mode="normal" in="SourceGraphic" in2="effect2_dropShadow_3875_107952" result="shape"/>
</filter>
<clipPath id="clip0_3875_107952">
<rect width="286" height="286" rx="8" fill="white"/>
</clipPath>
<clipPath id="clip1_3875_107952">
<rect x="310" width="286" height="286" rx="8" fill="white"/>
</clipPath>
<clipPath id="clip2_3875_107952">
<rect x="407" y="88" width="92" height="92" rx="6" fill="white"/>
</clipPath>
<clipPath id="clip3_3875_107952">
<rect width="164" height="56" fill="white" transform="translate(320 105)"/>
</clipPath>
<clipPath id="clip4_3875_107952">
<rect x="431" y="112" width="44" height="44" rx="22" fill="white"/>
</clipPath>
<clipPath id="clip5_3875_107952">
<rect x="121" y="117" width="44" height="44" rx="22" fill="white"/>
</clipPath>
<clipPath id="clip6_3875_107952">
<rect width="92" height="24" fill="white" transform="translate(97 93)"/>
</clipPath>
<clipPath id="clip7_3875_107952">
<rect width="92" height="24" fill="white" transform="translate(97 161)"/>
</clipPath>
<clipPath id="clip8_3875_107952">
<rect width="44" height="24" fill="white" transform="translate(121 117) rotate(90)"/>
</clipPath>
<clipPath id="clip9_3875_107952">
<rect width="44" height="24" fill="white" transform="translate(189 117) rotate(90)"/>
</clipPath>
</defs>
</svg>
