<svg width="598" height="345" viewBox="0 0 598 345" fill="none" xmlns="http://www.w3.org/2000/svg">
<g clip-path="url(#clip0_3658_98840)">
<mask id="path-3-inside-1_3658_98840" fill="white">
<path d="M0 0H598V34H0V0Z"/>
</mask>
<path d="M598 33H0V35H598V33Z" fill="#D0D6DD" mask="url(#path-3-inside-1_3658_98840)"/>
<rect x="24" y="12" width="75" height="10" rx="5" fill="#D0D6DD"/>
<rect x="191.5" y="12" width="10" height="10" rx="5" fill="#D0D6DD"/>
<rect x="205.5" y="12" width="56" height="10" rx="5" fill="#D0D6DD"/>
<rect x="296.5" y="12" width="10" height="10" rx="5" fill="#D0D6DD"/>
<rect x="310.5" y="12" width="56" height="10" rx="5" fill="#D0D6DD"/>
<rect x="401.5" y="12" width="10" height="10" rx="5" fill="#D0D6DD"/>
<rect x="415.5" y="12" width="56" height="10" rx="5" fill="#D0D6DD"/>
<rect x="564" y="12" width="10" height="10" rx="5" fill="#D0D6DD"/>
<rect width="598" height="311" transform="translate(0 34)" fill="white"/>
<mask id="path-13-outside-2_3658_98840" maskUnits="userSpaceOnUse" x="0" y="292" width="598" height="53" fill="black">
<rect fill="white" y="292" width="598" height="53"/>
<path d="M0 293H598V345H0V293Z"/>
</mask>
<path d="M0 294H598V292H0V294Z" fill="#D0D6DD" mask="url(#path-13-outside-2_3658_98840)"/>
<path d="M368.963 318H368.083C368.031 317.747 367.94 317.524 367.809 317.332C367.681 317.141 367.525 316.98 367.341 316.849C367.158 316.717 366.956 316.617 366.733 316.551C366.511 316.485 366.279 316.452 366.037 316.452C365.597 316.452 365.198 316.563 364.841 316.786C364.485 317.008 364.203 317.336 363.992 317.769C363.783 318.202 363.679 318.734 363.679 319.364C363.679 319.993 363.783 320.525 363.992 320.958C364.203 321.391 364.485 321.719 364.841 321.942C365.198 322.164 365.597 322.276 366.037 322.276C366.279 322.276 366.511 322.242 366.733 322.176C366.956 322.11 367.158 322.012 367.341 321.881C367.525 321.749 367.681 321.587 367.809 321.395C367.94 321.201 368.031 320.978 368.083 320.727H368.963C368.897 321.099 368.776 321.432 368.601 321.725C368.426 322.019 368.208 322.268 367.948 322.474C367.687 322.678 367.395 322.833 367.071 322.94C366.749 323.046 366.404 323.099 366.037 323.099C365.417 323.099 364.865 322.948 364.382 322.645C363.9 322.342 363.52 321.911 363.243 321.352C362.966 320.794 362.827 320.131 362.827 319.364C362.827 318.597 362.966 317.934 363.243 317.375C363.52 316.816 363.9 316.385 364.382 316.082C364.865 315.779 365.417 315.628 366.037 315.628C366.404 315.628 366.749 315.681 367.071 315.788C367.395 315.894 367.687 316.05 367.948 316.256C368.208 316.46 368.426 316.709 368.601 317.002C368.776 317.293 368.897 317.626 368.963 318ZM371.878 323.128C371.532 323.128 371.219 323.063 370.937 322.933C370.655 322.8 370.432 322.609 370.266 322.361C370.1 322.11 370.017 321.807 370.017 321.452C370.017 321.139 370.079 320.886 370.202 320.692C370.325 320.495 370.49 320.341 370.695 320.23C370.901 320.119 371.129 320.036 371.377 319.982C371.628 319.925 371.88 319.88 372.134 319.847C372.465 319.804 372.734 319.772 372.94 319.751C373.148 319.727 373.3 319.688 373.394 319.634C373.491 319.579 373.54 319.484 373.54 319.349V319.321C373.54 318.971 373.444 318.698 373.252 318.504C373.063 318.31 372.775 318.213 372.389 318.213C371.989 318.213 371.676 318.301 371.448 318.476C371.221 318.651 371.061 318.838 370.969 319.037L370.173 318.753C370.316 318.421 370.505 318.163 370.742 317.979C370.981 317.792 371.241 317.661 371.523 317.588C371.807 317.512 372.086 317.474 372.361 317.474C372.536 317.474 372.737 317.496 372.965 317.538C373.194 317.579 373.416 317.663 373.629 317.79C373.844 317.918 374.023 318.111 374.165 318.369C374.307 318.627 374.378 318.973 374.378 319.406V323H373.54V322.261H373.497C373.441 322.38 373.346 322.506 373.213 322.641C373.081 322.776 372.904 322.891 372.684 322.986C372.464 323.08 372.195 323.128 371.878 323.128ZM372.006 322.375C372.337 322.375 372.617 322.31 372.844 322.18C373.074 322.049 373.246 321.881 373.362 321.675C373.481 321.469 373.54 321.253 373.54 321.026V320.259C373.504 320.301 373.426 320.34 373.306 320.376C373.187 320.409 373.05 320.438 372.894 320.464C372.74 320.488 372.589 320.509 372.443 320.528C372.298 320.545 372.181 320.559 372.091 320.571C371.873 320.599 371.67 320.646 371.48 320.71C371.293 320.771 371.142 320.865 371.026 320.99C370.912 321.113 370.855 321.281 370.855 321.494C370.855 321.786 370.963 322.006 371.178 322.155C371.396 322.302 371.672 322.375 372.006 322.375ZM376.746 319.719V323H375.908V317.545H376.717V318.398H376.788C376.916 318.121 377.11 317.898 377.371 317.73C377.631 317.56 377.967 317.474 378.379 317.474C378.749 317.474 379.072 317.55 379.349 317.702C379.626 317.851 379.841 318.078 379.995 318.384C380.149 318.687 380.226 319.07 380.226 319.534V323H379.388V319.591C379.388 319.162 379.277 318.829 379.054 318.589C378.831 318.348 378.526 318.227 378.138 318.227C377.87 318.227 377.631 318.285 377.42 318.401C377.212 318.517 377.048 318.687 376.927 318.909C376.806 319.132 376.746 319.402 376.746 319.719ZM383.973 323.114C383.462 323.114 383.021 322.993 382.652 322.751C382.283 322.51 381.999 322.177 381.8 321.754C381.601 321.33 381.502 320.846 381.502 320.301C381.502 319.747 381.603 319.258 381.807 318.835C382.013 318.408 382.299 318.076 382.666 317.837C383.036 317.595 383.467 317.474 383.959 317.474C384.343 317.474 384.688 317.545 384.996 317.688C385.304 317.83 385.556 318.028 385.752 318.284C385.949 318.54 386.071 318.838 386.118 319.179H385.28C385.216 318.93 385.074 318.71 384.854 318.518C384.636 318.324 384.343 318.227 383.973 318.227C383.646 318.227 383.36 318.312 383.114 318.483C382.87 318.651 382.679 318.889 382.542 319.197C382.407 319.502 382.34 319.861 382.34 320.273C382.34 320.694 382.406 321.061 382.539 321.374C382.673 321.686 382.863 321.929 383.107 322.102C383.353 322.274 383.642 322.361 383.973 322.361C384.191 322.361 384.389 322.323 384.566 322.247C384.744 322.171 384.894 322.062 385.017 321.92C385.14 321.778 385.228 321.608 385.28 321.409H386.118C386.071 321.731 385.954 322.021 385.767 322.279C385.582 322.535 385.337 322.738 385.031 322.89C384.728 323.039 384.376 323.114 383.973 323.114ZM389.63 323.114C389.105 323.114 388.651 322.998 388.27 322.766C387.891 322.531 387.599 322.205 387.393 321.786C387.189 321.364 387.088 320.874 387.088 320.315C387.088 319.757 387.189 319.264 387.393 318.838C387.599 318.41 387.885 318.076 388.252 317.837C388.622 317.595 389.052 317.474 389.545 317.474C389.829 317.474 390.11 317.522 390.387 317.616C390.664 317.711 390.916 317.865 391.143 318.078C391.37 318.289 391.551 318.568 391.686 318.916C391.821 319.264 391.889 319.693 391.889 320.202V320.557H387.684V319.832H391.036C391.036 319.525 390.975 319.25 390.852 319.009C390.731 318.767 390.558 318.576 390.333 318.437C390.111 318.297 389.848 318.227 389.545 318.227C389.211 318.227 388.922 318.31 388.678 318.476C388.437 318.639 388.251 318.852 388.121 319.115C387.991 319.378 387.926 319.66 387.926 319.96V320.443C387.926 320.855 387.997 321.204 388.139 321.491C388.283 321.775 388.483 321.991 388.739 322.141C388.994 322.287 389.292 322.361 389.63 322.361C389.85 322.361 390.049 322.33 390.227 322.268C390.407 322.205 390.562 322.11 390.692 321.984C390.822 321.857 390.923 321.698 390.994 321.509L391.803 321.736C391.718 322.01 391.575 322.252 391.374 322.46C391.173 322.666 390.924 322.827 390.628 322.943C390.332 323.057 389.999 323.114 389.63 323.114ZM394.002 315.727V323H393.164V315.727H394.002Z" fill="#626B79"/>
<rect x="418.5" y="304.5" width="86" height="29" rx="6.5" fill="white"/>
<rect x="418.5" y="304.5" width="86" height="29" rx="6.5" stroke="#D0D6DD"/>
<path d="M440.017 317.727C439.984 317.416 439.845 317.175 439.598 317.002C439.355 316.829 439.037 316.743 438.647 316.743C438.372 316.743 438.136 316.784 437.94 316.867C437.743 316.95 437.593 317.062 437.489 317.205C437.385 317.347 437.332 317.509 437.329 317.691C437.329 317.843 437.364 317.974 437.432 318.085C437.503 318.196 437.599 318.291 437.72 318.369C437.841 318.445 437.974 318.509 438.121 318.561C438.268 318.613 438.416 318.657 438.565 318.692L439.247 318.863C439.521 318.927 439.785 319.013 440.039 319.122C440.294 319.231 440.523 319.368 440.724 319.534C440.928 319.7 441.089 319.9 441.207 320.134C441.325 320.369 441.385 320.643 441.385 320.958C441.385 321.384 441.276 321.759 441.058 322.084C440.84 322.406 440.525 322.658 440.113 322.84C439.704 323.02 439.208 323.11 438.625 323.11C438.06 323.11 437.568 323.022 437.152 322.847C436.737 322.672 436.413 322.416 436.179 322.08C435.947 321.744 435.821 321.335 435.802 320.852H437.098C437.117 321.105 437.195 321.316 437.333 321.484C437.47 321.652 437.649 321.777 437.869 321.86C438.092 321.943 438.34 321.984 438.615 321.984C438.901 321.984 439.152 321.942 439.368 321.857C439.585 321.769 439.756 321.648 439.879 321.494C440.002 321.338 440.065 321.156 440.067 320.947C440.065 320.758 440.009 320.602 439.9 320.479C439.791 320.353 439.639 320.249 439.442 320.166C439.248 320.081 439.021 320.005 438.76 319.939L437.933 319.726C437.334 319.572 436.86 319.339 436.512 319.026C436.167 318.711 435.994 318.294 435.994 317.773C435.994 317.344 436.11 316.969 436.342 316.647C436.576 316.325 436.895 316.075 437.297 315.898C437.7 315.718 438.155 315.628 438.664 315.628C439.181 315.628 439.633 315.718 440.021 315.898C440.412 316.075 440.718 316.323 440.941 316.64C441.163 316.955 441.278 317.317 441.285 317.727H440.017ZM444.917 323.107C444.37 323.107 443.898 322.993 443.5 322.766C443.105 322.536 442.801 322.212 442.588 321.793C442.374 321.371 442.268 320.875 442.268 320.305C442.268 319.744 442.374 319.251 442.588 318.827C442.803 318.401 443.104 318.07 443.49 317.833C443.875 317.594 444.329 317.474 444.85 317.474C445.186 317.474 445.503 317.529 445.801 317.638C446.102 317.744 446.367 317.91 446.597 318.135C446.829 318.36 447.011 318.646 447.144 318.994C447.276 319.34 447.343 319.752 447.343 320.23V320.624H442.872V319.758H446.11C446.108 319.512 446.055 319.293 445.95 319.101C445.846 318.907 445.701 318.754 445.514 318.643C445.329 318.531 445.114 318.476 444.867 318.476C444.605 318.476 444.374 318.54 444.175 318.668C443.976 318.793 443.821 318.959 443.71 319.165C443.601 319.368 443.545 319.592 443.543 319.836V320.592C443.543 320.91 443.601 321.182 443.717 321.409C443.833 321.634 443.995 321.807 444.203 321.928C444.412 322.046 444.655 322.105 444.935 322.105C445.122 322.105 445.291 322.079 445.443 322.027C445.594 321.973 445.726 321.893 445.837 321.789C445.948 321.685 446.032 321.556 446.089 321.402L447.289 321.537C447.213 321.854 447.069 322.131 446.856 322.368C446.645 322.602 446.375 322.785 446.046 322.915C445.717 323.043 445.341 323.107 444.917 323.107ZM450.809 323.107C450.265 323.107 449.797 322.987 449.407 322.748C449.018 322.509 448.719 322.179 448.508 321.757C448.3 321.333 448.196 320.846 448.196 320.294C448.196 319.74 448.302 319.251 448.515 318.827C448.728 318.401 449.029 318.07 449.417 317.833C449.808 317.594 450.27 317.474 450.802 317.474C451.245 317.474 451.637 317.556 451.978 317.719C452.321 317.88 452.594 318.109 452.798 318.405C453.002 318.698 453.118 319.042 453.146 319.435H451.917C451.868 319.172 451.749 318.953 451.562 318.778C451.377 318.6 451.13 318.511 450.82 318.511C450.557 318.511 450.326 318.582 450.127 318.724C449.929 318.864 449.774 319.065 449.662 319.328C449.553 319.591 449.499 319.906 449.499 320.273C449.499 320.644 449.553 320.964 449.662 321.232C449.771 321.497 449.924 321.701 450.12 321.846C450.319 321.988 450.552 322.059 450.82 322.059C451.009 322.059 451.179 322.023 451.328 321.952C451.479 321.879 451.606 321.774 451.708 321.636C451.81 321.499 451.879 321.332 451.917 321.136H453.146C453.115 321.522 453.002 321.864 452.805 322.162C452.609 322.458 452.341 322.69 452.002 322.858C451.664 323.024 451.266 323.107 450.809 323.107ZM456.581 323.107C456.048 323.107 455.586 322.989 455.196 322.755C454.805 322.521 454.502 322.193 454.287 321.771C454.074 321.35 453.967 320.857 453.967 320.294C453.967 319.731 454.074 319.237 454.287 318.813C454.502 318.389 454.805 318.06 455.196 317.826C455.586 317.592 456.048 317.474 456.581 317.474C457.113 317.474 457.575 317.592 457.966 317.826C458.356 318.06 458.658 318.389 458.871 318.813C459.087 319.237 459.194 319.731 459.194 320.294C459.194 320.857 459.087 321.35 458.871 321.771C458.658 322.193 458.356 322.521 457.966 322.755C457.575 322.989 457.113 323.107 456.581 323.107ZM456.588 322.077C456.877 322.077 457.118 321.997 457.312 321.839C457.506 321.678 457.651 321.462 457.746 321.192C457.843 320.923 457.891 320.622 457.891 320.29C457.891 319.957 457.843 319.655 457.746 319.385C457.651 319.113 457.506 318.896 457.312 318.735C457.118 318.574 456.877 318.494 456.588 318.494C456.292 318.494 456.046 318.574 455.849 318.735C455.655 318.896 455.51 319.113 455.412 319.385C455.318 319.655 455.27 319.957 455.27 320.29C455.27 320.622 455.318 320.923 455.412 321.192C455.51 321.462 455.655 321.678 455.849 321.839C456.046 321.997 456.292 322.077 456.588 322.077ZM461.571 319.804V323H460.286V317.545H461.514V318.472H461.578C461.704 318.167 461.904 317.924 462.178 317.744C462.455 317.564 462.797 317.474 463.205 317.474C463.581 317.474 463.909 317.555 464.188 317.716C464.47 317.877 464.688 318.11 464.842 318.415C464.998 318.721 465.075 319.091 465.072 319.527V323H463.787V319.726C463.787 319.361 463.692 319.076 463.503 318.87C463.316 318.664 463.057 318.561 462.725 318.561C462.5 318.561 462.3 318.611 462.125 318.71C461.952 318.807 461.816 318.948 461.717 319.133C461.62 319.317 461.571 319.541 461.571 319.804ZM468.403 323.096C467.975 323.096 467.591 322.986 467.253 322.766C466.914 322.545 466.647 322.226 466.45 321.807C466.254 321.388 466.156 320.879 466.156 320.28C466.156 319.674 466.255 319.162 466.454 318.746C466.655 318.327 466.926 318.011 467.267 317.798C467.608 317.582 467.988 317.474 468.407 317.474C468.727 317.474 468.989 317.529 469.195 317.638C469.401 317.744 469.565 317.873 469.685 318.025C469.806 318.174 469.9 318.315 469.966 318.447H470.019V315.727H471.308V323H470.044V322.141H469.966C469.9 322.273 469.804 322.414 469.678 322.563C469.553 322.71 469.387 322.835 469.181 322.94C468.975 323.044 468.716 323.096 468.403 323.096ZM468.762 322.041C469.034 322.041 469.266 321.968 469.458 321.821C469.65 321.672 469.795 321.465 469.895 321.2C469.994 320.934 470.044 320.625 470.044 320.273C470.044 319.92 469.994 319.613 469.895 319.353C469.798 319.093 469.653 318.89 469.462 318.746C469.272 318.601 469.039 318.529 468.762 318.529C468.476 318.529 468.237 318.604 468.045 318.753C467.853 318.902 467.709 319.108 467.612 319.371C467.514 319.634 467.466 319.934 467.466 320.273C467.466 320.614 467.514 320.918 467.612 321.185C467.711 321.451 467.857 321.66 468.048 321.814C468.242 321.965 468.48 322.041 468.762 322.041ZM474.248 323.11C473.902 323.11 473.591 323.049 473.314 322.925C473.039 322.8 472.821 322.615 472.66 322.371C472.502 322.128 472.422 321.827 472.422 321.469C472.422 321.162 472.479 320.907 472.593 320.706C472.706 320.505 472.862 320.344 473.058 320.223C473.255 320.102 473.476 320.011 473.722 319.95C473.971 319.886 474.228 319.839 474.493 319.811C474.812 319.778 475.072 319.748 475.27 319.722C475.469 319.694 475.614 319.651 475.704 319.594C475.796 319.535 475.842 319.444 475.842 319.321V319.3C475.842 319.032 475.763 318.825 475.604 318.678C475.446 318.531 475.217 318.458 474.919 318.458C474.604 318.458 474.354 318.527 474.17 318.664C473.987 318.801 473.864 318.964 473.8 319.151L472.6 318.98C472.695 318.649 472.851 318.372 473.069 318.149C473.287 317.924 473.553 317.756 473.868 317.645C474.183 317.531 474.531 317.474 474.912 317.474C475.175 317.474 475.436 317.505 475.697 317.567C475.957 317.628 476.195 317.73 476.41 317.872C476.626 318.012 476.799 318.202 476.929 318.444C477.061 318.685 477.128 318.987 477.128 319.349V323H475.892V322.251H475.849C475.771 322.402 475.661 322.544 475.519 322.677C475.379 322.807 475.203 322.912 474.99 322.993C474.779 323.071 474.532 323.11 474.248 323.11ZM474.581 322.165C474.84 322.165 475.063 322.115 475.253 322.013C475.442 321.909 475.588 321.771 475.689 321.601C475.794 321.43 475.846 321.245 475.846 321.043V320.401C475.805 320.434 475.737 320.464 475.64 320.493C475.545 320.521 475.439 320.546 475.32 320.567C475.202 320.589 475.085 320.608 474.969 320.624C474.853 320.641 474.752 320.655 474.667 320.667C474.475 320.693 474.303 320.736 474.152 320.795C474 320.854 473.881 320.937 473.793 321.043C473.706 321.147 473.662 321.282 473.662 321.448C473.662 321.685 473.748 321.864 473.921 321.984C474.094 322.105 474.314 322.165 474.581 322.165ZM478.42 323V317.545H479.667V318.455H479.724C479.823 318.14 479.993 317.897 480.235 317.727C480.479 317.554 480.757 317.467 481.069 317.467C481.14 317.467 481.22 317.471 481.307 317.478C481.397 317.483 481.472 317.491 481.531 317.503V318.685C481.477 318.666 481.39 318.65 481.272 318.636C481.156 318.619 481.043 318.611 480.934 318.611C480.7 318.611 480.489 318.662 480.302 318.763C480.118 318.863 479.972 319.001 479.866 319.179C479.759 319.357 479.706 319.561 479.706 319.793V323H478.42ZM483.35 325.045C483.175 325.045 483.013 325.031 482.864 325.003C482.717 324.977 482.6 324.946 482.512 324.911L482.81 323.909C482.997 323.964 483.164 323.99 483.311 323.987C483.458 323.985 483.587 323.939 483.698 323.849C483.812 323.761 483.908 323.614 483.986 323.408L484.096 323.114L482.118 317.545H483.482L484.739 321.665H484.795L486.056 317.545H487.423L485.239 323.661C485.138 323.949 485.003 324.197 484.835 324.403C484.666 324.611 484.46 324.77 484.217 324.879C483.975 324.99 483.686 325.045 483.35 325.045Z" fill="#4B61DD"/>
<rect x="511.5" y="304.5" width="71" height="29" rx="6.5" fill="#4B61DD"/>
<rect x="511.5" y="304.5" width="71" height="29" rx="6.5" stroke="#4B61DD"/>
<path d="M528.909 323V315.727H531.636C532.195 315.727 532.663 315.831 533.042 316.04C533.423 316.248 533.711 316.535 533.905 316.899C534.102 317.261 534.2 317.673 534.2 318.135C534.2 318.601 534.102 319.016 533.905 319.378C533.709 319.74 533.419 320.025 533.035 320.234C532.652 320.44 532.179 320.543 531.618 320.543H529.811V319.46H531.441C531.767 319.46 532.035 319.403 532.243 319.289C532.452 319.175 532.605 319.019 532.705 318.82C532.807 318.621 532.858 318.393 532.858 318.135C532.858 317.877 532.807 317.65 532.705 317.453C532.605 317.257 532.45 317.104 532.24 316.995C532.031 316.884 531.763 316.828 531.434 316.828H530.226V323H528.909ZM535.287 323V317.545H536.534V318.455H536.591C536.69 318.14 536.861 317.897 537.102 317.727C537.346 317.554 537.624 317.467 537.937 317.467C538.008 317.467 538.087 317.471 538.175 317.478C538.265 317.483 538.339 317.491 538.398 317.503V318.685C538.344 318.666 538.257 318.65 538.139 318.636C538.023 318.619 537.911 318.611 537.802 318.611C537.567 318.611 537.357 318.662 537.17 318.763C536.985 318.863 536.839 319.001 536.733 319.179C536.626 319.357 536.573 319.561 536.573 319.793V323H535.287ZM539.252 323V317.545H540.538V323H539.252ZM539.899 316.771C539.695 316.771 539.52 316.704 539.373 316.569C539.226 316.432 539.153 316.267 539.153 316.075C539.153 315.881 539.226 315.717 539.373 315.582C539.52 315.444 539.695 315.376 539.899 315.376C540.105 315.376 540.28 315.444 540.424 315.582C540.571 315.717 540.644 315.881 540.644 316.075C540.644 316.267 540.571 316.432 540.424 316.569C540.28 316.704 540.105 316.771 539.899 316.771ZM541.86 323V317.545H543.088V318.472H543.152C543.266 318.16 543.454 317.916 543.717 317.741C543.98 317.563 544.293 317.474 544.658 317.474C545.027 317.474 545.339 317.564 545.592 317.744C545.848 317.922 546.028 318.165 546.132 318.472H546.189C546.309 318.169 546.513 317.928 546.799 317.748C547.088 317.566 547.43 317.474 547.826 317.474C548.328 317.474 548.737 317.633 549.054 317.95C549.372 318.268 549.53 318.73 549.53 319.339V323H548.241V319.538C548.241 319.199 548.151 318.952 547.971 318.795C547.791 318.637 547.571 318.558 547.311 318.558C547.001 318.558 546.758 318.655 546.583 318.849C546.41 319.04 546.324 319.29 546.324 319.598V323H545.063V319.484C545.063 319.203 544.978 318.978 544.807 318.81C544.639 318.642 544.419 318.558 544.147 318.558C543.962 318.558 543.794 318.605 543.642 318.7C543.491 318.792 543.37 318.923 543.28 319.094C543.19 319.262 543.145 319.458 543.145 319.683V323H541.86ZM552.404 323.11C552.058 323.11 551.747 323.049 551.47 322.925C551.195 322.8 550.978 322.615 550.817 322.371C550.658 322.128 550.579 321.827 550.579 321.469C550.579 321.162 550.635 320.907 550.749 320.706C550.863 320.505 551.018 320.344 551.214 320.223C551.411 320.102 551.632 320.011 551.878 319.95C552.127 319.886 552.384 319.839 552.649 319.811C552.969 319.778 553.228 319.748 553.427 319.722C553.626 319.694 553.77 319.651 553.86 319.594C553.952 319.535 553.998 319.444 553.998 319.321V319.3C553.998 319.032 553.919 318.825 553.76 318.678C553.602 318.531 553.373 318.458 553.075 318.458C552.76 318.458 552.51 318.527 552.326 318.664C552.144 318.801 552.02 318.964 551.956 319.151L550.756 318.98C550.851 318.649 551.007 318.372 551.225 318.149C551.443 317.924 551.709 317.756 552.024 317.645C552.339 317.531 552.687 317.474 553.068 317.474C553.331 317.474 553.592 317.505 553.853 317.567C554.113 317.628 554.351 317.73 554.567 317.872C554.782 318.012 554.955 318.202 555.085 318.444C555.218 318.685 555.284 318.987 555.284 319.349V323H554.048V322.251H554.006C553.927 322.402 553.817 322.544 553.675 322.677C553.536 322.807 553.359 322.912 553.146 322.993C552.935 323.071 552.688 323.11 552.404 323.11ZM552.738 322.165C552.996 322.165 553.22 322.115 553.409 322.013C553.598 321.909 553.744 321.771 553.846 321.601C553.95 321.43 554.002 321.245 554.002 321.043V320.401C553.962 320.434 553.893 320.464 553.796 320.493C553.701 320.521 553.595 320.546 553.476 320.567C553.358 320.589 553.241 320.608 553.125 320.624C553.009 320.641 552.908 320.655 552.823 320.667C552.631 320.693 552.46 320.736 552.308 320.795C552.157 320.854 552.037 320.937 551.949 321.043C551.862 321.147 551.818 321.282 551.818 321.448C551.818 321.685 551.904 321.864 552.077 321.984C552.25 322.105 552.47 322.165 552.738 322.165ZM556.577 323V317.545H557.823V318.455H557.88C557.979 318.14 558.15 317.897 558.391 317.727C558.635 317.554 558.913 317.467 559.226 317.467C559.297 317.467 559.376 317.471 559.464 317.478C559.554 317.483 559.628 317.491 559.687 317.503V318.685C559.633 318.666 559.546 318.65 559.428 318.636C559.312 318.619 559.2 318.611 559.091 318.611C558.856 318.611 558.646 318.662 558.459 318.763C558.274 318.863 558.128 319.001 558.022 319.179C557.915 319.357 557.862 319.561 557.862 319.793V323H556.577ZM561.506 325.045C561.331 325.045 561.169 325.031 561.02 325.003C560.873 324.977 560.756 324.946 560.668 324.911L560.967 323.909C561.154 323.964 561.321 323.99 561.467 323.987C561.614 323.985 561.743 323.939 561.854 323.849C561.968 323.761 562.064 323.614 562.142 323.408L562.252 323.114L560.274 317.545H561.638L562.895 321.665H562.952L564.212 317.545H565.58L563.396 323.661C563.294 323.949 563.159 324.197 562.991 324.403C562.823 324.611 562.617 324.77 562.373 324.879C562.131 324.99 561.843 325.045 561.506 325.045Z" fill="white"/>
<rect x="174" y="161" width="182" height="10" rx="5" fill="#D0D6DD"/>
<rect x="174" y="103" width="261" height="10" rx="5" fill="#D0D6DD"/>
<rect x="174" y="136" width="216" height="10" rx="5" fill="#D0D6DD"/>
<rect x="174" y="211" width="124" height="10" rx="5" fill="#D0D6DD"/>
<rect x="174" y="186" width="216" height="10" rx="5" fill="#D0D6DD"/>
<rect x="174" y="78" width="124" height="16" rx="6" fill="#D0D6DD"/>
</g>
<rect x="0.5" y="0.5" width="597" height="344" rx="5.5" stroke="#D0D6DD"/>
<defs>
<clipPath id="clip0_3658_98840">
<rect width="598" height="345" rx="6" fill="white"/>
</clipPath>
</defs>
</svg>
