<svg width="598" height="392" viewBox="0 0 598 392" fill="none" xmlns="http://www.w3.org/2000/svg">
<g clip-path="url(#clip0_3742_108084)">
<mask id="path-3-inside-1_3742_108084" fill="white">
<path d="M0 0H598V32H0V0Z"/>
</mask>
<path d="M0 0H598V32H0V0Z" fill="white"/>
<path d="M598 31H0V33H598V31Z" fill="#D0D6DD" mask="url(#path-3-inside-1_3742_108084)"/>
<mask id="path-5-inside-2_3742_108084" fill="white">
<path d="M0 32H100V367H0V32Z"/>
</mask>
<path d="M0 32H100V367H0V32Z" fill="white"/>
<path d="M99 32V367H101V32H99Z" fill="#D0D6DD" mask="url(#path-5-inside-2_3742_108084)"/>
<mask id="path-7-inside-3_3742_108084" fill="white">
<path d="M100 32H598V81H100V32Z"/>
</mask>
<path d="M100 32H598V81H100V32Z" fill="#EDF0F2"/>
<path d="M598 80H100V82H598V80Z" fill="#D0D6DD" mask="url(#path-7-inside-3_3742_108084)"/>
<rect width="498" height="311" transform="translate(100 81)" fill="white"/>
<rect x="109" y="91" width="152" height="55" rx="6" fill="#D0D6DD"/>
<rect x="270" y="91" width="153" height="55" rx="6" fill="#D0D6DD"/>
<rect x="432" y="91" width="152" height="55" rx="6" fill="#D0D6DD"/>
<rect x="109" y="168" width="60" height="10" rx="5" fill="#D0D6DD"/>
<rect x="109" y="199" width="70.5" height="16" rx="6" fill="#D0D6DD"/>
<rect x="202.5" y="199" width="70.5" height="16" rx="6" fill="#D0D6DD"/>
<rect x="296" y="199" width="70.5" height="16" rx="6" fill="#D0D6DD"/>
<rect x="389.5" y="199" width="70.5" height="16" rx="6" fill="#D0D6DD"/>
<rect x="483" y="199" width="101" height="16" rx="6" fill="white"/>
<rect x="109" y="233" width="76.5" height="16" rx="6" fill="#EDF0F2"/>
<rect x="208.5" y="233" width="76.5" height="16" rx="6" fill="#EDF0F2"/>
<rect x="308" y="233" width="76.5" height="16" rx="6" fill="#EDF0F2"/>
<rect x="407.5" y="233" width="76.5" height="16" rx="6" fill="#EDF0F2"/>
<rect x="506.5" y="226.5" width="78" height="29" rx="6.5" fill="white"/>
<rect x="506.5" y="226.5" width="78" height="29" rx="6.5" stroke="#D0D6DD"/>
<path d="M520.694 245H519.288L521.848 237.727H523.475L526.039 245H524.632L522.69 239.219H522.633L520.694 245ZM520.74 242.148H524.576V243.207H520.74V242.148ZM529.153 245.107C528.609 245.107 528.141 244.987 527.75 244.748C527.362 244.509 527.063 244.179 526.852 243.757C526.644 243.333 526.539 242.846 526.539 242.294C526.539 241.74 526.646 241.251 526.859 240.827C527.072 240.401 527.373 240.07 527.761 239.833C528.152 239.594 528.613 239.474 529.146 239.474C529.589 239.474 529.98 239.556 530.321 239.719C530.665 239.88 530.938 240.109 531.142 240.405C531.345 240.698 531.461 241.042 531.49 241.435H530.261C530.211 241.172 530.093 240.953 529.906 240.778C529.721 240.6 529.474 240.511 529.164 240.511C528.901 240.511 528.67 240.582 528.471 240.724C528.272 240.864 528.117 241.065 528.006 241.328C527.897 241.591 527.843 241.906 527.843 242.273C527.843 242.644 527.897 242.964 528.006 243.232C528.115 243.497 528.268 243.701 528.464 243.846C528.663 243.988 528.896 244.059 529.164 244.059C529.353 244.059 529.522 244.023 529.672 243.952C529.823 243.879 529.95 243.774 530.051 243.636C530.153 243.499 530.223 243.332 530.261 243.136H531.49C531.459 243.522 531.345 243.864 531.149 244.162C530.952 244.458 530.685 244.69 530.346 244.858C530.008 245.024 529.61 245.107 529.153 245.107ZM535.269 239.545V240.54H532.133V239.545H535.269ZM532.907 238.239H534.193V243.359C534.193 243.532 534.219 243.665 534.271 243.757C534.326 243.847 534.397 243.909 534.484 243.942C534.572 243.975 534.669 243.991 534.775 243.991C534.856 243.991 534.929 243.986 534.996 243.974C535.064 243.962 535.116 243.951 535.152 243.942L535.368 244.947C535.3 244.97 535.202 244.996 535.074 245.025C534.948 245.053 534.794 245.07 534.612 245.075C534.29 245.084 534 245.036 533.742 244.929C533.484 244.82 533.279 244.652 533.128 244.425C532.979 244.197 532.905 243.913 532.907 243.572V238.239ZM536.344 245V239.545H537.63V245H536.344ZM536.99 238.771C536.787 238.771 536.612 238.704 536.465 238.569C536.318 238.432 536.245 238.267 536.245 238.075C536.245 237.881 536.318 237.717 536.465 237.582C536.612 237.444 536.787 237.376 536.99 237.376C537.196 237.376 537.372 237.444 537.516 237.582C537.663 237.717 537.736 237.881 537.736 238.075C537.736 238.267 537.663 238.432 537.516 238.569C537.372 238.704 537.196 238.771 536.99 238.771ZM541.331 245.107C540.798 245.107 540.336 244.989 539.946 244.755C539.555 244.521 539.252 244.193 539.037 243.771C538.824 243.35 538.717 242.857 538.717 242.294C538.717 241.731 538.824 241.237 539.037 240.813C539.252 240.389 539.555 240.06 539.946 239.826C540.336 239.592 540.798 239.474 541.331 239.474C541.863 239.474 542.325 239.592 542.716 239.826C543.106 240.06 543.408 240.389 543.621 240.813C543.837 241.237 543.944 241.731 543.944 242.294C543.944 242.857 543.837 243.35 543.621 243.771C543.408 244.193 543.106 244.521 542.716 244.755C542.325 244.989 541.863 245.107 541.331 245.107ZM541.338 244.077C541.627 244.077 541.868 243.997 542.062 243.839C542.256 243.678 542.401 243.462 542.496 243.192C542.593 242.923 542.641 242.622 542.641 242.29C542.641 241.957 542.593 241.655 542.496 241.385C542.401 241.113 542.256 240.896 542.062 240.735C541.868 240.574 541.627 240.494 541.338 240.494C541.042 240.494 540.796 240.574 540.599 240.735C540.405 240.896 540.26 241.113 540.162 241.385C540.068 241.655 540.02 241.957 540.02 242.29C540.02 242.622 540.068 242.923 540.162 243.192C540.26 243.462 540.405 243.678 540.599 243.839C540.796 243.997 541.042 244.077 541.338 244.077ZM546.321 241.804V245H545.036V239.545H546.264V240.472H546.328C546.454 240.167 546.654 239.924 546.928 239.744C547.205 239.564 547.547 239.474 547.955 239.474C548.331 239.474 548.659 239.555 548.938 239.716C549.22 239.877 549.438 240.11 549.592 240.415C549.748 240.721 549.825 241.091 549.822 241.527V245H548.537V241.726C548.537 241.361 548.442 241.076 548.253 240.87C548.066 240.664 547.807 240.561 547.475 240.561C547.25 240.561 547.05 240.611 546.875 240.71C546.702 240.807 546.566 240.948 546.467 241.133C546.37 241.317 546.321 241.541 546.321 241.804ZM555.44 240.987L554.268 241.115C554.235 240.997 554.177 240.885 554.094 240.781C554.014 240.677 553.905 240.593 553.768 240.529C553.63 240.465 553.462 240.433 553.263 240.433C552.996 240.433 552.771 240.491 552.589 240.607C552.409 240.723 552.32 240.874 552.322 241.058C552.32 241.217 552.378 241.346 552.496 241.445C552.617 241.545 552.816 241.626 553.093 241.69L554.023 241.889C554.54 242 554.923 242.177 555.174 242.418C555.427 242.66 555.555 242.976 555.558 243.366C555.555 243.71 555.455 244.013 555.256 244.276C555.059 244.536 554.786 244.74 554.435 244.886C554.085 245.033 553.683 245.107 553.228 245.107C552.56 245.107 552.023 244.967 551.616 244.688C551.209 244.406 550.966 244.014 550.888 243.512L552.141 243.391C552.198 243.638 552.319 243.823 552.504 243.949C552.688 244.074 552.929 244.137 553.224 244.137C553.53 244.137 553.775 244.074 553.96 243.949C554.147 243.823 554.24 243.668 554.24 243.484C554.24 243.327 554.18 243.198 554.059 243.097C553.941 242.995 553.756 242.917 553.505 242.862L552.575 242.667C552.051 242.558 551.664 242.375 551.413 242.116C551.162 241.856 551.038 241.527 551.04 241.129C551.038 240.793 551.129 240.502 551.314 240.256C551.501 240.007 551.76 239.815 552.092 239.68C552.425 239.543 552.81 239.474 553.246 239.474C553.885 239.474 554.388 239.611 554.755 239.883C555.124 240.155 555.353 240.523 555.44 240.987Z" fill="#4B61DD"/>
<path d="M567 239.5L570 242.5L573 239.5H567Z" fill="#4B61DD"/>
<rect x="109" y="273" width="76.5" height="16" rx="6" fill="#EDF0F2"/>
<rect x="208.5" y="273" width="76.5" height="16" rx="6" fill="#EDF0F2"/>
<rect x="308" y="273" width="76.5" height="16" rx="6" fill="#EDF0F2"/>
<rect x="407.5" y="273" width="76.5" height="16" rx="6" fill="#EDF0F2"/>
<rect x="506.5" y="266.5" width="78" height="29" rx="6.5" fill="white"/>
<rect x="506.5" y="266.5" width="78" height="29" rx="6.5" stroke="#D0D6DD"/>
<path d="M520.694 285H519.288L521.848 277.727H523.475L526.039 285H524.632L522.69 279.219H522.633L520.694 285ZM520.74 282.148H524.576V283.207H520.74V282.148ZM529.153 285.107C528.609 285.107 528.141 284.987 527.75 284.748C527.362 284.509 527.063 284.179 526.852 283.757C526.644 283.333 526.539 282.846 526.539 282.294C526.539 281.74 526.646 281.251 526.859 280.827C527.072 280.401 527.373 280.07 527.761 279.833C528.152 279.594 528.613 279.474 529.146 279.474C529.589 279.474 529.98 279.556 530.321 279.719C530.665 279.88 530.938 280.109 531.142 280.405C531.345 280.698 531.461 281.042 531.49 281.435H530.261C530.211 281.172 530.093 280.953 529.906 280.778C529.721 280.6 529.474 280.511 529.164 280.511C528.901 280.511 528.67 280.582 528.471 280.724C528.272 280.864 528.117 281.065 528.006 281.328C527.897 281.591 527.843 281.906 527.843 282.273C527.843 282.644 527.897 282.964 528.006 283.232C528.115 283.497 528.268 283.701 528.464 283.846C528.663 283.988 528.896 284.059 529.164 284.059C529.353 284.059 529.522 284.023 529.672 283.952C529.823 283.879 529.95 283.774 530.051 283.636C530.153 283.499 530.223 283.332 530.261 283.136H531.49C531.459 283.522 531.345 283.864 531.149 284.162C530.952 284.458 530.685 284.69 530.346 284.858C530.008 285.024 529.61 285.107 529.153 285.107ZM535.269 279.545V280.54H532.133V279.545H535.269ZM532.907 278.239H534.193V283.359C534.193 283.532 534.219 283.665 534.271 283.757C534.326 283.847 534.397 283.909 534.484 283.942C534.572 283.975 534.669 283.991 534.775 283.991C534.856 283.991 534.929 283.986 534.996 283.974C535.064 283.962 535.116 283.951 535.152 283.942L535.368 284.947C535.3 284.97 535.202 284.996 535.074 285.025C534.948 285.053 534.794 285.07 534.612 285.075C534.29 285.084 534 285.036 533.742 284.929C533.484 284.82 533.279 284.652 533.128 284.425C532.979 284.197 532.905 283.913 532.907 283.572V278.239ZM536.344 285V279.545H537.63V285H536.344ZM536.99 278.771C536.787 278.771 536.612 278.704 536.465 278.569C536.318 278.432 536.245 278.267 536.245 278.075C536.245 277.881 536.318 277.717 536.465 277.582C536.612 277.444 536.787 277.376 536.99 277.376C537.196 277.376 537.372 277.444 537.516 277.582C537.663 277.717 537.736 277.881 537.736 278.075C537.736 278.267 537.663 278.432 537.516 278.569C537.372 278.704 537.196 278.771 536.99 278.771ZM541.331 285.107C540.798 285.107 540.336 284.989 539.946 284.755C539.555 284.521 539.252 284.193 539.037 283.771C538.824 283.35 538.717 282.857 538.717 282.294C538.717 281.731 538.824 281.237 539.037 280.813C539.252 280.389 539.555 280.06 539.946 279.826C540.336 279.592 540.798 279.474 541.331 279.474C541.863 279.474 542.325 279.592 542.716 279.826C543.106 280.06 543.408 280.389 543.621 280.813C543.837 281.237 543.944 281.731 543.944 282.294C543.944 282.857 543.837 283.35 543.621 283.771C543.408 284.193 543.106 284.521 542.716 284.755C542.325 284.989 541.863 285.107 541.331 285.107ZM541.338 284.077C541.627 284.077 541.868 283.997 542.062 283.839C542.256 283.678 542.401 283.462 542.496 283.192C542.593 282.923 542.641 282.622 542.641 282.29C542.641 281.957 542.593 281.655 542.496 281.385C542.401 281.113 542.256 280.896 542.062 280.735C541.868 280.574 541.627 280.494 541.338 280.494C541.042 280.494 540.796 280.574 540.599 280.735C540.405 280.896 540.26 281.113 540.162 281.385C540.068 281.655 540.02 281.957 540.02 282.29C540.02 282.622 540.068 282.923 540.162 283.192C540.26 283.462 540.405 283.678 540.599 283.839C540.796 283.997 541.042 284.077 541.338 284.077ZM546.321 281.804V285H545.036V279.545H546.264V280.472H546.328C546.454 280.167 546.654 279.924 546.928 279.744C547.205 279.564 547.547 279.474 547.955 279.474C548.331 279.474 548.659 279.555 548.938 279.716C549.22 279.877 549.438 280.11 549.592 280.415C549.748 280.721 549.825 281.091 549.822 281.527V285H548.537V281.726C548.537 281.361 548.442 281.076 548.253 280.87C548.066 280.664 547.807 280.561 547.475 280.561C547.25 280.561 547.05 280.611 546.875 280.71C546.702 280.807 546.566 280.948 546.467 281.133C546.37 281.317 546.321 281.541 546.321 281.804ZM555.44 280.987L554.268 281.115C554.235 280.997 554.177 280.885 554.094 280.781C554.014 280.677 553.905 280.593 553.768 280.529C553.63 280.465 553.462 280.433 553.263 280.433C552.996 280.433 552.771 280.491 552.589 280.607C552.409 280.723 552.32 280.874 552.322 281.058C552.32 281.217 552.378 281.346 552.496 281.445C552.617 281.545 552.816 281.626 553.093 281.69L554.023 281.889C554.54 282 554.923 282.177 555.174 282.418C555.427 282.66 555.555 282.976 555.558 283.366C555.555 283.71 555.455 284.013 555.256 284.276C555.059 284.536 554.786 284.74 554.435 284.886C554.085 285.033 553.683 285.107 553.228 285.107C552.56 285.107 552.023 284.967 551.616 284.688C551.209 284.406 550.966 284.014 550.888 283.512L552.141 283.391C552.198 283.638 552.319 283.823 552.504 283.949C552.688 284.074 552.929 284.137 553.224 284.137C553.53 284.137 553.775 284.074 553.96 283.949C554.147 283.823 554.24 283.668 554.24 283.484C554.24 283.327 554.18 283.198 554.059 283.097C553.941 282.995 553.756 282.917 553.505 282.862L552.575 282.667C552.051 282.558 551.664 282.375 551.413 282.116C551.162 281.856 551.038 281.527 551.04 281.129C551.038 280.793 551.129 280.502 551.314 280.256C551.501 280.007 551.76 279.815 552.092 279.68C552.425 279.543 552.81 279.474 553.246 279.474C553.885 279.474 554.388 279.611 554.755 279.883C555.124 280.155 555.353 280.523 555.44 280.987Z" fill="#4B61DD"/>
<path d="M567 279.5L570 282.5L573 279.5H567Z" fill="#4B61DD"/>
<rect x="109" y="313" width="76.5" height="16" rx="6" fill="#EDF0F2"/>
<rect x="208.5" y="313" width="76.5" height="16" rx="6" fill="#EDF0F2"/>
<rect x="308" y="313" width="76.5" height="16" rx="6" fill="#EDF0F2"/>
<rect x="407.5" y="313" width="76.5" height="16" rx="6" fill="#EDF0F2"/>
<rect x="506.5" y="306.5" width="78" height="29" rx="6.5" fill="white"/>
<rect x="506.5" y="306.5" width="78" height="29" rx="6.5" stroke="#D0D6DD"/>
<path d="M520.694 325H519.288L521.848 317.727H523.475L526.039 325H524.632L522.69 319.219H522.633L520.694 325ZM520.74 322.148H524.576V323.207H520.74V322.148ZM529.153 325.107C528.609 325.107 528.141 324.987 527.75 324.748C527.362 324.509 527.063 324.179 526.852 323.757C526.644 323.333 526.539 322.846 526.539 322.294C526.539 321.74 526.646 321.251 526.859 320.827C527.072 320.401 527.373 320.07 527.761 319.833C528.152 319.594 528.613 319.474 529.146 319.474C529.589 319.474 529.98 319.556 530.321 319.719C530.665 319.88 530.938 320.109 531.142 320.405C531.345 320.698 531.461 321.042 531.49 321.435H530.261C530.211 321.172 530.093 320.953 529.906 320.778C529.721 320.6 529.474 320.511 529.164 320.511C528.901 320.511 528.67 320.582 528.471 320.724C528.272 320.864 528.117 321.065 528.006 321.328C527.897 321.591 527.843 321.906 527.843 322.273C527.843 322.644 527.897 322.964 528.006 323.232C528.115 323.497 528.268 323.701 528.464 323.846C528.663 323.988 528.896 324.059 529.164 324.059C529.353 324.059 529.522 324.023 529.672 323.952C529.823 323.879 529.95 323.774 530.051 323.636C530.153 323.499 530.223 323.332 530.261 323.136H531.49C531.459 323.522 531.345 323.864 531.149 324.162C530.952 324.458 530.685 324.69 530.346 324.858C530.008 325.024 529.61 325.107 529.153 325.107ZM535.269 319.545V320.54H532.133V319.545H535.269ZM532.907 318.239H534.193V323.359C534.193 323.532 534.219 323.665 534.271 323.757C534.326 323.847 534.397 323.909 534.484 323.942C534.572 323.975 534.669 323.991 534.775 323.991C534.856 323.991 534.929 323.986 534.996 323.974C535.064 323.962 535.116 323.951 535.152 323.942L535.368 324.947C535.3 324.97 535.202 324.996 535.074 325.025C534.948 325.053 534.794 325.07 534.612 325.075C534.29 325.084 534 325.036 533.742 324.929C533.484 324.82 533.279 324.652 533.128 324.425C532.979 324.197 532.905 323.913 532.907 323.572V318.239ZM536.344 325V319.545H537.63V325H536.344ZM536.99 318.771C536.787 318.771 536.612 318.704 536.465 318.569C536.318 318.432 536.245 318.267 536.245 318.075C536.245 317.881 536.318 317.717 536.465 317.582C536.612 317.444 536.787 317.376 536.99 317.376C537.196 317.376 537.372 317.444 537.516 317.582C537.663 317.717 537.736 317.881 537.736 318.075C537.736 318.267 537.663 318.432 537.516 318.569C537.372 318.704 537.196 318.771 536.99 318.771ZM541.331 325.107C540.798 325.107 540.336 324.989 539.946 324.755C539.555 324.521 539.252 324.193 539.037 323.771C538.824 323.35 538.717 322.857 538.717 322.294C538.717 321.731 538.824 321.237 539.037 320.813C539.252 320.389 539.555 320.06 539.946 319.826C540.336 319.592 540.798 319.474 541.331 319.474C541.863 319.474 542.325 319.592 542.716 319.826C543.106 320.06 543.408 320.389 543.621 320.813C543.837 321.237 543.944 321.731 543.944 322.294C543.944 322.857 543.837 323.35 543.621 323.771C543.408 324.193 543.106 324.521 542.716 324.755C542.325 324.989 541.863 325.107 541.331 325.107ZM541.338 324.077C541.627 324.077 541.868 323.997 542.062 323.839C542.256 323.678 542.401 323.462 542.496 323.192C542.593 322.923 542.641 322.622 542.641 322.29C542.641 321.957 542.593 321.655 542.496 321.385C542.401 321.113 542.256 320.896 542.062 320.735C541.868 320.574 541.627 320.494 541.338 320.494C541.042 320.494 540.796 320.574 540.599 320.735C540.405 320.896 540.26 321.113 540.162 321.385C540.068 321.655 540.02 321.957 540.02 322.29C540.02 322.622 540.068 322.923 540.162 323.192C540.26 323.462 540.405 323.678 540.599 323.839C540.796 323.997 541.042 324.077 541.338 324.077ZM546.321 321.804V325H545.036V319.545H546.264V320.472H546.328C546.454 320.167 546.654 319.924 546.928 319.744C547.205 319.564 547.547 319.474 547.955 319.474C548.331 319.474 548.659 319.555 548.938 319.716C549.22 319.877 549.438 320.11 549.592 320.415C549.748 320.721 549.825 321.091 549.822 321.527V325H548.537V321.726C548.537 321.361 548.442 321.076 548.253 320.87C548.066 320.664 547.807 320.561 547.475 320.561C547.25 320.561 547.05 320.611 546.875 320.71C546.702 320.807 546.566 320.948 546.467 321.133C546.37 321.317 546.321 321.541 546.321 321.804ZM555.44 320.987L554.268 321.115C554.235 320.997 554.177 320.885 554.094 320.781C554.014 320.677 553.905 320.593 553.768 320.529C553.63 320.465 553.462 320.433 553.263 320.433C552.996 320.433 552.771 320.491 552.589 320.607C552.409 320.723 552.32 320.874 552.322 321.058C552.32 321.217 552.378 321.346 552.496 321.445C552.617 321.545 552.816 321.626 553.093 321.69L554.023 321.889C554.54 322 554.923 322.177 555.174 322.418C555.427 322.66 555.555 322.976 555.558 323.366C555.555 323.71 555.455 324.013 555.256 324.276C555.059 324.536 554.786 324.74 554.435 324.886C554.085 325.033 553.683 325.107 553.228 325.107C552.56 325.107 552.023 324.967 551.616 324.688C551.209 324.406 550.966 324.014 550.888 323.512L552.141 323.391C552.198 323.638 552.319 323.823 552.504 323.949C552.688 324.074 552.929 324.137 553.224 324.137C553.53 324.137 553.775 324.074 553.96 323.949C554.147 323.823 554.24 323.668 554.24 323.484C554.24 323.327 554.18 323.198 554.059 323.097C553.941 322.995 553.756 322.917 553.505 322.862L552.575 322.667C552.051 322.558 551.664 322.375 551.413 322.116C551.162 321.856 551.038 321.527 551.04 321.129C551.038 320.793 551.129 320.502 551.314 320.256C551.501 320.007 551.76 319.815 552.092 319.68C552.425 319.543 552.81 319.474 553.246 319.474C553.885 319.474 554.388 319.611 554.755 319.883C555.124 320.155 555.353 320.523 555.44 320.987Z" fill="#4B61DD"/>
<path d="M567 319.5L570 322.5L573 319.5H567Z" fill="#4B61DD"/>
<rect x="482" y="168" width="102" height="10" rx="5" fill="#D0D6DD"/>
<rect x="109" y="46" width="114" height="18" rx="6" fill="#D0D6DD"/>
<rect x="524" y="46" width="61" height="18" rx="6" fill="#D0D6DD"/>
</g>
<rect x="0.5" y="0.5" width="597" height="391" rx="5.5" stroke="#D0D6DD"/>
<defs>
<clipPath id="clip0_3742_108084">
<rect width="598" height="392" rx="6" fill="white"/>
</clipPath>
</defs>
</svg>
