<svg width="598" height="367" viewBox="0 0 598 367" fill="none" xmlns="http://www.w3.org/2000/svg">
<rect x="0.5" y="0.5" width="597" height="366" rx="5.5" stroke="#7B8699"/>
<mask id="path-2-inside-1_3648_109648" fill="white">
<path d="M0 0H598V32H0V0Z"/>
</mask>
<path d="M0 0H598V32H0V0Z" fill="#8B95A5"/>
<path d="M598 31H0V33H598V31Z" fill="#7B8699" mask="url(#path-2-inside-1_3648_109648)"/>
<mask id="path-4-inside-2_3648_109648" fill="white">
<path d="M0 32H100V367H0V32Z"/>
</mask>
<path d="M0 32H100V367H0V32Z" fill="#8B95A5"/>
<path d="M99 32V367H101V32H99Z" fill="#7B8699" mask="url(#path-4-inside-2_3648_109648)"/>
<mask id="path-6-inside-3_3648_109648" fill="white">
<path d="M100 32H598V56H100V32Z"/>
</mask>
<path d="M100 32H598V56H100V32Z" fill="#626B79"/>
<path d="M598 55H100V57H598V55Z" fill="#626B79" mask="url(#path-6-inside-3_3648_109648)"/>
<rect x="100.5" y="56.5" width="497" height="310" fill="#8B95A5"/>
<rect x="100.5" y="56.5" width="497" height="310" stroke="#7B8699"/>
<g filter="url(#filter0_dd_3648_109648)">
<g clip-path="url(#clip0_3648_109648)">
<rect x="161" y="69" width="314" height="191" rx="6" fill="white"/>
<rect x="160.5" y="68.5" width="315" height="45" fill="#F2F4F7"/>
<rect x="160.5" y="68.5" width="315" height="45" stroke="#D0D6DD"/>
<rect x="441" y="83" width="16" height="16" rx="6" fill="#D0D6DD"/>
<rect x="177" y="86" width="100" height="13" rx="6" fill="#D0D6DD"/>
<rect x="178" y="175" width="192" height="8" rx="4" fill="#D0D6DD"/>
<rect x="178" y="135" width="216" height="8" rx="4" fill="#D0D6DD"/>
<rect x="178" y="155" width="150" height="8" rx="4" fill="#D0D6DD"/>
<path d="M335.963 225H335.083C335.031 224.747 334.94 224.524 334.809 224.332C334.681 224.141 334.525 223.98 334.341 223.849C334.158 223.717 333.956 223.617 333.733 223.551C333.511 223.485 333.279 223.452 333.037 223.452C332.597 223.452 332.198 223.563 331.841 223.786C331.485 224.008 331.203 224.336 330.992 224.769C330.783 225.202 330.679 225.734 330.679 226.364C330.679 226.993 330.783 227.525 330.992 227.958C331.203 228.391 331.485 228.719 331.841 228.942C332.198 229.164 332.597 229.276 333.037 229.276C333.279 229.276 333.511 229.242 333.733 229.176C333.956 229.11 334.158 229.012 334.341 228.881C334.525 228.749 334.681 228.587 334.809 228.395C334.94 228.201 335.031 227.978 335.083 227.727H335.963C335.897 228.099 335.776 228.432 335.601 228.725C335.426 229.019 335.208 229.268 334.948 229.474C334.687 229.678 334.395 229.833 334.071 229.94C333.749 230.046 333.404 230.099 333.037 230.099C332.417 230.099 331.865 229.948 331.382 229.645C330.9 229.342 330.52 228.911 330.243 228.352C329.966 227.794 329.827 227.131 329.827 226.364C329.827 225.597 329.966 224.934 330.243 224.375C330.52 223.816 330.9 223.385 331.382 223.082C331.865 222.779 332.417 222.628 333.037 222.628C333.404 222.628 333.749 222.681 334.071 222.788C334.395 222.894 334.687 223.05 334.948 223.256C335.208 223.46 335.426 223.709 335.601 224.002C335.776 224.293 335.897 224.626 335.963 225ZM338.878 230.128C338.532 230.128 338.219 230.063 337.937 229.933C337.655 229.8 337.432 229.609 337.266 229.361C337.1 229.11 337.017 228.807 337.017 228.452C337.017 228.139 337.079 227.886 337.202 227.692C337.325 227.495 337.49 227.341 337.695 227.23C337.901 227.119 338.129 227.036 338.377 226.982C338.628 226.925 338.88 226.88 339.134 226.847C339.465 226.804 339.734 226.772 339.94 226.751C340.148 226.727 340.3 226.688 340.394 226.634C340.491 226.579 340.54 226.484 340.54 226.349V226.321C340.54 225.971 340.444 225.698 340.252 225.504C340.063 225.31 339.775 225.213 339.389 225.213C338.989 225.213 338.676 225.301 338.448 225.476C338.221 225.651 338.061 225.838 337.969 226.037L337.173 225.753C337.316 225.421 337.505 225.163 337.742 224.979C337.981 224.792 338.241 224.661 338.523 224.588C338.807 224.512 339.086 224.474 339.361 224.474C339.536 224.474 339.737 224.496 339.965 224.538C340.194 224.579 340.416 224.663 340.629 224.79C340.844 224.918 341.023 225.111 341.165 225.369C341.307 225.627 341.378 225.973 341.378 226.406V230H340.54V229.261H340.497C340.441 229.38 340.346 229.506 340.213 229.641C340.081 229.776 339.904 229.891 339.684 229.986C339.464 230.08 339.195 230.128 338.878 230.128ZM339.006 229.375C339.337 229.375 339.617 229.31 339.844 229.18C340.074 229.049 340.246 228.881 340.362 228.675C340.481 228.469 340.54 228.253 340.54 228.026V227.259C340.504 227.301 340.426 227.34 340.306 227.376C340.187 227.409 340.05 227.438 339.894 227.464C339.74 227.488 339.589 227.509 339.443 227.528C339.298 227.545 339.181 227.559 339.091 227.571C338.873 227.599 338.67 227.646 338.48 227.71C338.293 227.771 338.142 227.865 338.026 227.99C337.912 228.113 337.855 228.281 337.855 228.494C337.855 228.786 337.963 229.006 338.178 229.155C338.396 229.302 338.672 229.375 339.006 229.375ZM343.746 226.719V230H342.908V224.545H343.717V225.398H343.788C343.916 225.121 344.11 224.898 344.371 224.73C344.631 224.56 344.967 224.474 345.379 224.474C345.749 224.474 346.072 224.55 346.349 224.702C346.626 224.851 346.841 225.078 346.995 225.384C347.149 225.687 347.226 226.07 347.226 226.534V230H346.388V226.591C346.388 226.162 346.277 225.829 346.054 225.589C345.831 225.348 345.526 225.227 345.138 225.227C344.87 225.227 344.631 225.285 344.42 225.401C344.212 225.517 344.048 225.687 343.927 225.909C343.806 226.132 343.746 226.402 343.746 226.719ZM350.973 230.114C350.462 230.114 350.021 229.993 349.652 229.751C349.283 229.51 348.999 229.177 348.8 228.754C348.601 228.33 348.502 227.846 348.502 227.301C348.502 226.747 348.603 226.258 348.807 225.835C349.013 225.408 349.299 225.076 349.666 224.837C350.036 224.595 350.467 224.474 350.959 224.474C351.343 224.474 351.688 224.545 351.996 224.688C352.304 224.83 352.556 225.028 352.752 225.284C352.949 225.54 353.071 225.838 353.118 226.179H352.28C352.216 225.93 352.074 225.71 351.854 225.518C351.636 225.324 351.343 225.227 350.973 225.227C350.646 225.227 350.36 225.312 350.114 225.483C349.87 225.651 349.679 225.889 349.542 226.197C349.407 226.502 349.34 226.861 349.34 227.273C349.34 227.694 349.406 228.061 349.539 228.374C349.673 228.686 349.863 228.929 350.107 229.102C350.353 229.274 350.642 229.361 350.973 229.361C351.191 229.361 351.389 229.323 351.566 229.247C351.744 229.171 351.894 229.062 352.017 228.92C352.14 228.778 352.228 228.608 352.28 228.409H353.118C353.071 228.731 352.954 229.021 352.767 229.279C352.582 229.535 352.337 229.738 352.031 229.89C351.728 230.039 351.376 230.114 350.973 230.114ZM356.63 230.114C356.105 230.114 355.651 229.998 355.27 229.766C354.891 229.531 354.599 229.205 354.393 228.786C354.189 228.364 354.088 227.874 354.088 227.315C354.088 226.757 354.189 226.264 354.393 225.838C354.599 225.41 354.885 225.076 355.252 224.837C355.622 224.595 356.052 224.474 356.545 224.474C356.829 224.474 357.11 224.522 357.387 224.616C357.664 224.711 357.916 224.865 358.143 225.078C358.37 225.289 358.551 225.568 358.686 225.916C358.821 226.264 358.889 226.693 358.889 227.202V227.557H354.684V226.832H358.036C358.036 226.525 357.975 226.25 357.852 226.009C357.731 225.767 357.558 225.576 357.333 225.437C357.111 225.297 356.848 225.227 356.545 225.227C356.211 225.227 355.922 225.31 355.678 225.476C355.437 225.639 355.251 225.852 355.121 226.115C354.991 226.378 354.926 226.66 354.926 226.96V227.443C354.926 227.855 354.997 228.204 355.139 228.491C355.283 228.775 355.483 228.991 355.739 229.141C355.994 229.287 356.292 229.361 356.63 229.361C356.85 229.361 357.049 229.33 357.227 229.268C357.407 229.205 357.562 229.11 357.692 228.984C357.822 228.857 357.923 228.698 357.994 228.509L358.803 228.736C358.718 229.01 358.575 229.252 358.374 229.46C358.173 229.666 357.924 229.827 357.628 229.943C357.332 230.057 356.999 230.114 356.63 230.114ZM361.002 222.727V230H360.164V222.727H361.002Z" fill="#626B79"/>
<rect x="385.5" y="211.5" width="74" height="29" rx="6.5" fill="#4B61DD"/>
<rect x="385.5" y="211.5" width="74" height="29" rx="6.5" stroke="#4B61DD"/>
<path d="M403.712 230H402.306L404.866 222.727H406.492L409.056 230H407.65L405.708 224.219H405.651L403.712 230ZM403.758 227.148H407.593V228.207H403.758V227.148ZM409.957 232.045V224.545H411.222V225.447H411.296C411.362 225.315 411.456 225.174 411.577 225.025C411.697 224.873 411.861 224.744 412.067 224.638C412.273 224.529 412.536 224.474 412.855 224.474C413.277 224.474 413.656 224.582 413.995 224.798C414.336 225.011 414.606 225.327 414.805 225.746C415.006 226.162 415.107 226.674 415.107 227.28C415.107 227.879 415.008 228.388 414.812 228.807C414.615 229.226 414.348 229.545 414.009 229.766C413.671 229.986 413.287 230.096 412.859 230.096C412.546 230.096 412.287 230.044 412.081 229.94C411.875 229.835 411.709 229.71 411.584 229.563C411.461 229.414 411.365 229.273 411.296 229.141H411.243V232.045H409.957ZM411.218 227.273C411.218 227.625 411.268 227.934 411.367 228.2C411.469 228.465 411.615 228.672 411.804 228.821C411.996 228.968 412.228 229.041 412.5 229.041C412.784 229.041 413.022 228.965 413.214 228.814C413.406 228.66 413.55 228.451 413.647 228.185C413.746 227.918 413.796 227.614 413.796 227.273C413.796 226.934 413.748 226.634 413.651 226.371C413.554 226.108 413.409 225.902 413.217 225.753C413.026 225.604 412.786 225.529 412.5 225.529C412.225 225.529 411.992 225.601 411.8 225.746C411.609 225.89 411.463 226.093 411.364 226.353C411.267 226.613 411.218 226.92 411.218 227.273ZM416.207 232.045V224.545H417.472V225.447H417.546C417.612 225.315 417.706 225.174 417.827 225.025C417.947 224.873 418.111 224.744 418.317 224.638C418.523 224.529 418.786 224.474 419.105 224.474C419.527 224.474 419.906 224.582 420.245 224.798C420.586 225.011 420.856 225.327 421.055 225.746C421.256 226.162 421.357 226.674 421.357 227.28C421.357 227.879 421.258 228.388 421.062 228.807C420.865 229.226 420.598 229.545 420.259 229.766C419.921 229.986 419.537 230.096 419.109 230.096C418.796 230.096 418.537 230.044 418.331 229.94C418.125 229.835 417.959 229.71 417.834 229.563C417.711 229.414 417.615 229.273 417.546 229.141H417.493V232.045H416.207ZM417.468 227.273C417.468 227.625 417.518 227.934 417.617 228.2C417.719 228.465 417.865 228.672 418.054 228.821C418.246 228.968 418.478 229.041 418.75 229.041C419.034 229.041 419.272 228.965 419.464 228.814C419.656 228.66 419.8 228.451 419.897 228.185C419.996 227.918 420.046 227.614 420.046 227.273C420.046 226.934 419.998 226.634 419.901 226.371C419.804 226.108 419.659 225.902 419.467 225.753C419.276 225.604 419.036 225.529 418.75 225.529C418.475 225.529 418.242 225.601 418.05 225.746C417.859 225.89 417.713 226.093 417.614 226.353C417.517 226.613 417.468 226.92 417.468 227.273ZM422.457 230V224.545H423.704V225.455H423.761C423.86 225.14 424.031 224.897 424.272 224.727C424.516 224.554 424.794 224.467 425.107 224.467C425.178 224.467 425.257 224.471 425.344 224.478C425.434 224.483 425.509 224.491 425.568 224.503V225.685C425.514 225.666 425.427 225.65 425.309 225.636C425.193 225.619 425.08 225.611 424.972 225.611C424.737 225.611 424.527 225.662 424.339 225.763C424.155 225.863 424.009 226.001 423.903 226.179C423.796 226.357 423.743 226.561 423.743 226.793V230H422.457ZM428.577 230.107C428.044 230.107 427.583 229.989 427.192 229.755C426.801 229.521 426.498 229.193 426.283 228.771C426.07 228.35 425.963 227.857 425.963 227.294C425.963 226.731 426.07 226.237 426.283 225.813C426.498 225.389 426.801 225.06 427.192 224.826C427.583 224.592 428.044 224.474 428.577 224.474C429.11 224.474 429.571 224.592 429.962 224.826C430.352 225.06 430.654 225.389 430.867 225.813C431.083 226.237 431.191 226.731 431.191 227.294C431.191 227.857 431.083 228.35 430.867 228.771C430.654 229.193 430.352 229.521 429.962 229.755C429.571 229.989 429.11 230.107 428.577 230.107ZM428.584 229.077C428.873 229.077 429.114 228.997 429.308 228.839C429.503 228.678 429.647 228.462 429.742 228.192C429.839 227.923 429.887 227.622 429.887 227.29C429.887 226.957 429.839 226.655 429.742 226.385C429.647 226.113 429.503 225.896 429.308 225.735C429.114 225.574 428.873 225.494 428.584 225.494C428.288 225.494 428.042 225.574 427.845 225.735C427.651 225.896 427.506 226.113 427.409 226.385C427.314 226.655 427.267 226.957 427.267 227.29C427.267 227.622 427.314 227.923 427.409 228.192C427.506 228.462 427.651 228.678 427.845 228.839C428.042 228.997 428.288 229.077 428.584 229.077ZM436.968 224.545L435.026 230H433.605L431.663 224.545H433.034L434.287 228.597H434.344L435.601 224.545H436.968ZM440.087 230.107C439.54 230.107 439.068 229.993 438.67 229.766C438.275 229.536 437.971 229.212 437.757 228.793C437.544 228.371 437.438 227.875 437.438 227.305C437.438 226.744 437.544 226.251 437.757 225.827C437.973 225.401 438.274 225.07 438.659 224.833C439.045 224.594 439.499 224.474 440.02 224.474C440.356 224.474 440.673 224.529 440.971 224.638C441.272 224.744 441.537 224.91 441.767 225.135C441.999 225.36 442.181 225.646 442.314 225.994C442.446 226.34 442.512 226.752 442.512 227.23V227.624H438.042V226.758H441.28C441.278 226.512 441.225 226.293 441.12 226.101C441.016 225.907 440.871 225.754 440.684 225.643C440.499 225.531 440.283 225.476 440.037 225.476C439.775 225.476 439.544 225.54 439.345 225.668C439.146 225.793 438.991 225.959 438.88 226.165C438.771 226.368 438.715 226.592 438.713 226.836V227.592C438.713 227.91 438.771 228.182 438.887 228.409C439.003 228.634 439.165 228.807 439.373 228.928C439.582 229.046 439.825 229.105 440.105 229.105C440.292 229.105 440.461 229.079 440.613 229.027C440.764 228.973 440.895 228.893 441.007 228.789C441.118 228.685 441.202 228.556 441.259 228.402L442.459 228.537C442.383 228.854 442.239 229.131 442.026 229.368C441.815 229.602 441.545 229.785 441.216 229.915C440.887 230.043 440.511 230.107 440.087 230.107Z" fill="white"/>
</g>
<rect x="160.5" y="68.5" width="315" height="192" rx="6.5" stroke="#8B95A5"/>
</g>
<rect x="109" y="39" width="60" height="10" rx="5" fill="#8B95A5"/>
<rect x="528" y="39" width="60" height="10" rx="5" fill="#8B95A5"/>
<defs>
<filter id="filter0_dd_3648_109648" x="148" y="66" width="340" height="217" filterUnits="userSpaceOnUse" color-interpolation-filters="sRGB">
<feFlood flood-opacity="0" result="BackgroundImageFix"/>
<feColorMatrix in="SourceAlpha" type="matrix" values="0 0 0 0 0 0 0 0 0 0 0 0 0 0 0 0 0 0 127 0" result="hardAlpha"/>
<feMorphology radius="2" operator="erode" in="SourceAlpha" result="effect1_dropShadow_3648_109648"/>
<feOffset dy="4"/>
<feGaussianBlur stdDeviation="3"/>
<feColorMatrix type="matrix" values="0 0 0 0 0 0 0 0 0 0 0 0 0 0 0 0 0 0 0.05 0"/>
<feBlend mode="normal" in2="BackgroundImageFix" result="effect1_dropShadow_3648_109648"/>
<feColorMatrix in="SourceAlpha" type="matrix" values="0 0 0 0 0 0 0 0 0 0 0 0 0 0 0 0 0 0 127 0" result="hardAlpha"/>
<feMorphology radius="3" operator="erode" in="SourceAlpha" result="effect2_dropShadow_3648_109648"/>
<feOffset dy="10"/>
<feGaussianBlur stdDeviation="7.5"/>
<feColorMatrix type="matrix" values="0 0 0 0 0 0 0 0 0 0 0 0 0 0 0 0 0 0 0.1 0"/>
<feBlend mode="normal" in2="effect1_dropShadow_3648_109648" result="effect2_dropShadow_3648_109648"/>
<feBlend mode="normal" in="SourceGraphic" in2="effect2_dropShadow_3648_109648" result="shape"/>
</filter>
<clipPath id="clip0_3648_109648">
<rect x="161" y="69" width="314" height="191" rx="6" fill="white"/>
</clipPath>
</defs>
</svg>
