<svg width="598" height="392" viewBox="0 0 598 392" fill="none" xmlns="http://www.w3.org/2000/svg">
<g clip-path="url(#clip0_3648_109427)">
<mask id="path-3-inside-1_3648_109427" fill="white">
<path d="M0 0H598V32H0V0Z"/>
</mask>
<path d="M0 0H598V32H0V0Z" fill="white"/>
<path d="M598 31H0V33H598V31Z" fill="#D0D6DD" mask="url(#path-3-inside-1_3648_109427)"/>
<mask id="path-5-inside-2_3648_109427" fill="white">
<path d="M0 32H100V367H0V32Z"/>
</mask>
<path d="M0 32H100V367H0V32Z" fill="white"/>
<path d="M99 32V367H101V32H99Z" fill="#D0D6DD" mask="url(#path-5-inside-2_3648_109427)"/>
<mask id="path-7-inside-3_3648_109427" fill="white">
<path d="M100 32H598V81H100V32Z"/>
</mask>
<path d="M100 32H598V81H100V32Z" fill="#EDF0F2"/>
<path d="M598 80H100V82H598V80Z" fill="#D0D6DD" mask="url(#path-7-inside-3_3648_109427)"/>
<rect width="498" height="311" transform="translate(100 81)" fill="white"/>
<rect x="109" y="91" width="152" height="55" rx="6" fill="#D0D6DD"/>
<rect x="270" y="91" width="153" height="55" rx="6" fill="#D0D6DD"/>
<rect x="432" y="91" width="152" height="55" rx="6" fill="#D0D6DD"/>
<rect x="109" y="168" width="60" height="10" rx="5" fill="#D0D6DD"/>
<rect x="109" y="199" width="60" height="10" rx="5" fill="#D0D6DD"/>
<rect x="192" y="199" width="60" height="10" rx="5" fill="#D0D6DD"/>
<rect x="275" y="199" width="60" height="10" rx="5" fill="#D0D6DD"/>
<rect x="358" y="199" width="60" height="10" rx="5" fill="#D0D6DD"/>
<rect x="441" y="199" width="60" height="10" rx="5" fill="#D0D6DD"/>
<rect x="524" y="199" width="60" height="10" rx="5" fill="#D0D6DD"/>
<rect x="109" y="221" width="60" height="10" rx="5" fill="#EDF0F2"/>
<rect x="192" y="221" width="60" height="10" rx="5" fill="#EDF0F2"/>
<rect x="275" y="221" width="60" height="10" rx="5" fill="#EDF0F2"/>
<rect x="358" y="221" width="60" height="10" rx="5" fill="#EDF0F2"/>
<rect x="441" y="221" width="60" height="10" rx="5" fill="#EDF0F2"/>
<rect x="524" y="221" width="60" height="10" rx="5" fill="#EDF0F2"/>
<rect x="109" y="243" width="60" height="10" rx="5" fill="#EDF0F2"/>
<rect x="192" y="243" width="60" height="10" rx="5" fill="#EDF0F2"/>
<rect x="275" y="243" width="60" height="10" rx="5" fill="#EDF0F2"/>
<rect x="358" y="243" width="60" height="10" rx="5" fill="#EDF0F2"/>
<rect x="441" y="243" width="60" height="10" rx="5" fill="#EDF0F2"/>
<rect x="524" y="243" width="60" height="10" rx="5" fill="#EDF0F2"/>
<rect x="109" y="265" width="60" height="10" rx="5" fill="#EDF0F2"/>
<rect x="192" y="265" width="60" height="10" rx="5" fill="#EDF0F2"/>
<rect x="275" y="265" width="60" height="10" rx="5" fill="#EDF0F2"/>
<rect x="358" y="265" width="60" height="10" rx="5" fill="#EDF0F2"/>
<rect x="441" y="265" width="60" height="10" rx="5" fill="#EDF0F2"/>
<rect x="524" y="265" width="60" height="10" rx="5" fill="#EDF0F2"/>
<rect x="109" y="287" width="60" height="10" rx="5" fill="#EDF0F2"/>
<rect x="192" y="287" width="60" height="10" rx="5" fill="#EDF0F2"/>
<rect x="275" y="287" width="60" height="10" rx="5" fill="#EDF0F2"/>
<rect x="358" y="287" width="60" height="10" rx="5" fill="#EDF0F2"/>
<rect x="441" y="287" width="60" height="10" rx="5" fill="#EDF0F2"/>
<rect x="524" y="287" width="60" height="10" rx="5" fill="#EDF0F2"/>
<rect x="482" y="168" width="102" height="10" rx="5" fill="#D0D6DD"/>
<rect x="109" y="46" width="114" height="18" rx="6" fill="#D0D6DD"/>
<rect x="456" y="41" width="128" height="28" rx="6" fill="#4B61DD"/>
<path d="M479.179 54.1811H477.851C477.813 53.9633 477.743 53.7704 477.641 53.6023C477.539 53.4318 477.413 53.2874 477.261 53.169C477.11 53.0507 476.937 52.9619 476.743 52.9027C476.551 52.8411 476.344 52.8104 476.121 52.8104C475.726 52.8104 475.376 52.9098 475.07 53.1087C474.765 53.3052 474.526 53.594 474.353 53.9751C474.18 54.3539 474.094 54.8168 474.094 55.3636C474.094 55.92 474.18 56.3887 474.353 56.7699C474.528 57.1487 474.767 57.4351 475.07 57.6293C475.376 57.821 475.725 57.9169 476.118 57.9169C476.336 57.9169 476.539 57.8885 476.729 57.8317C476.92 57.7725 477.092 57.6861 477.243 57.5724C477.397 57.4588 477.526 57.3191 477.631 57.1534C477.737 56.9877 477.81 56.7983 477.851 56.5852L479.179 56.5923C479.129 56.938 479.021 57.2623 478.856 57.5653C478.692 57.8684 478.478 58.1359 478.213 58.3679C477.948 58.5975 477.638 58.7775 477.282 58.9077C476.927 59.0355 476.533 59.0994 476.1 59.0994C475.461 59.0994 474.89 58.9515 474.388 58.6555C473.886 58.3596 473.491 57.9323 473.202 57.3736C472.913 56.8149 472.769 56.1449 472.769 55.3636C472.769 54.58 472.915 53.91 473.206 53.3537C473.497 52.795 473.894 52.3677 474.395 52.0717C474.897 51.7758 475.465 51.6278 476.1 51.6278C476.505 51.6278 476.881 51.6847 477.229 51.7983C477.577 51.9119 477.887 52.0788 478.16 52.299C478.432 52.5168 478.656 52.7843 478.831 53.1016C479.008 53.4164 479.124 53.7763 479.179 54.1811ZM480.328 59V53.5455H481.575V54.4545H481.632C481.731 54.1397 481.902 53.897 482.143 53.7266C482.387 53.5537 482.665 53.4673 482.978 53.4673C483.049 53.4673 483.128 53.4709 483.216 53.478C483.306 53.4827 483.38 53.491 483.439 53.5028V54.6854C483.385 54.6664 483.298 54.6499 483.18 54.6357C483.064 54.6191 482.952 54.6108 482.843 54.6108C482.608 54.6108 482.398 54.6617 482.211 54.7635C482.026 54.8629 481.88 55.0014 481.774 55.179C481.667 55.3565 481.614 55.5613 481.614 55.7933V59H480.328ZM486.483 59.1065C485.937 59.1065 485.464 58.9929 485.067 58.7656C484.671 58.536 484.367 58.2116 484.154 57.7926C483.941 57.3712 483.834 56.8752 483.834 56.3047C483.834 55.7436 483.941 55.2512 484.154 54.8274C484.369 54.4013 484.67 54.0698 485.056 53.8331C485.442 53.594 485.895 53.4744 486.416 53.4744C486.752 53.4744 487.069 53.5289 487.368 53.6378C487.668 53.7443 487.934 53.91 488.163 54.1349C488.395 54.3598 488.577 54.6463 488.71 54.9943C488.843 55.34 488.909 55.7519 488.909 56.2301V56.6243H484.438V55.7578H487.677C487.674 55.5116 487.621 55.2926 487.517 55.1009C487.413 54.9067 487.267 54.754 487.08 54.6428C486.895 54.5315 486.68 54.4759 486.434 54.4759C486.171 54.4759 485.94 54.5398 485.741 54.6676C485.542 54.7931 485.387 54.9588 485.276 55.1648C485.167 55.3684 485.112 55.5921 485.109 55.8359V56.5923C485.109 56.9096 485.167 57.1818 485.283 57.4091C485.399 57.634 485.561 57.8068 485.77 57.9276C485.978 58.0459 486.222 58.1051 486.501 58.1051C486.688 58.1051 486.858 58.0791 487.009 58.027C487.161 57.9725 487.292 57.8932 487.403 57.7891C487.515 57.6849 487.599 57.5559 487.655 57.402L488.856 57.5369C488.78 57.8542 488.635 58.1312 488.422 58.3679C488.212 58.6023 487.942 58.7846 487.613 58.9148C487.284 59.0426 486.907 59.1065 486.483 59.1065ZM491.566 59.1101C491.22 59.1101 490.909 59.0485 490.632 58.9254C490.357 58.8 490.14 58.6153 489.979 58.3714C489.82 58.1276 489.741 57.8269 489.741 57.4695C489.741 57.1617 489.798 56.9072 489.911 56.706C490.025 56.5047 490.18 56.3438 490.376 56.223C490.573 56.1023 490.794 56.0111 491.04 55.9496C491.289 55.8857 491.546 55.8395 491.811 55.8111C492.131 55.7779 492.39 55.7483 492.589 55.7223C492.788 55.6939 492.932 55.6513 493.022 55.5945C493.114 55.5353 493.161 55.4441 493.161 55.321V55.2997C493.161 55.0322 493.081 54.825 492.923 54.6783C492.764 54.5315 492.536 54.4581 492.237 54.4581C491.922 54.4581 491.673 54.5268 491.488 54.6641C491.306 54.8014 491.183 54.9635 491.119 55.1506L489.918 54.9801C490.013 54.6487 490.169 54.3717 490.387 54.1491C490.605 53.9242 490.871 53.7562 491.186 53.6449C491.501 53.5312 491.849 53.4744 492.23 53.4744C492.493 53.4744 492.754 53.5052 493.015 53.5668C493.275 53.6283 493.513 53.7301 493.729 53.8722C493.944 54.0118 494.117 54.2024 494.247 54.4439C494.38 54.6854 494.446 54.9872 494.446 55.3494V59H493.21V58.2507H493.168C493.089 58.4022 492.979 58.5443 492.837 58.6768C492.698 58.8071 492.521 58.9124 492.308 58.9929C492.098 59.071 491.85 59.1101 491.566 59.1101ZM491.9 58.1655C492.158 58.1655 492.382 58.1146 492.571 58.0128C492.76 57.9086 492.906 57.7713 493.008 57.6009C493.112 57.4304 493.164 57.2446 493.164 57.0433V56.4006C493.124 56.4337 493.055 56.4645 492.958 56.4929C492.863 56.5213 492.757 56.5462 492.638 56.5675C492.52 56.5888 492.403 56.6077 492.287 56.6243C492.171 56.6409 492.07 56.6551 491.985 56.6669C491.793 56.6929 491.622 56.7356 491.47 56.7947C491.319 56.8539 491.199 56.9368 491.112 57.0433C491.024 57.1475 490.98 57.2824 490.98 57.4482C490.98 57.6849 491.067 57.8636 491.239 57.9844C491.412 58.1051 491.632 58.1655 491.9 58.1655ZM498.462 53.5455V54.5398H495.327V53.5455H498.462ZM496.101 52.2386H497.386V57.3594C497.386 57.5322 497.412 57.6648 497.464 57.7571C497.519 57.8471 497.59 57.9086 497.678 57.9418C497.765 57.9749 497.862 57.9915 497.969 57.9915C498.049 57.9915 498.123 57.9856 498.189 57.9737C498.258 57.9619 498.31 57.9512 498.345 57.9418L498.562 58.9467C498.493 58.9704 498.395 58.9964 498.267 59.0249C498.142 59.0533 497.988 59.0698 497.805 59.0746C497.483 59.084 497.193 59.0355 496.935 58.929C496.677 58.8201 496.473 58.652 496.321 58.4247C496.172 58.1974 496.098 57.9134 496.101 57.5724V52.2386ZM501.894 59.1065C501.347 59.1065 500.874 58.9929 500.477 58.7656C500.081 58.536 499.777 58.2116 499.564 57.7926C499.351 57.3712 499.244 56.8752 499.244 56.3047C499.244 55.7436 499.351 55.2512 499.564 54.8274C499.78 54.4013 500.08 54.0698 500.466 53.8331C500.852 53.594 501.305 53.4744 501.826 53.4744C502.162 53.4744 502.48 53.5289 502.778 53.6378C503.079 53.7443 503.344 53.91 503.573 54.1349C503.805 54.3598 503.988 54.6463 504.12 54.9943C504.253 55.34 504.319 55.7519 504.319 56.2301V56.6243H499.848V55.7578H503.087C503.084 55.5116 503.031 55.2926 502.927 55.1009C502.823 54.9067 502.677 54.754 502.49 54.6428C502.306 54.5315 502.09 54.4759 501.844 54.4759C501.581 54.4759 501.35 54.5398 501.151 54.6676C500.953 54.7931 500.798 54.9588 500.686 55.1648C500.577 55.3684 500.522 55.5921 500.519 55.8359V56.5923C500.519 56.9096 500.577 57.1818 500.693 57.4091C500.809 57.634 500.972 57.8068 501.18 57.9276C501.388 58.0459 501.632 58.1051 501.911 58.1051C502.098 58.1051 502.268 58.0791 502.419 58.027C502.571 57.9725 502.702 57.8932 502.813 57.7891C502.925 57.6849 503.009 57.5559 503.066 57.402L504.266 57.5369C504.19 57.8542 504.046 58.1312 503.833 58.3679C503.622 58.6023 503.352 58.7846 503.023 58.9148C502.694 59.0426 502.317 59.1065 501.894 59.1065ZM512.198 54.9872L511.026 55.1151C510.993 54.9967 510.935 54.8854 510.852 54.7812C510.772 54.6771 510.663 54.593 510.526 54.5291C510.388 54.4652 510.22 54.4332 510.021 54.4332C509.754 54.4332 509.529 54.4912 509.347 54.6072C509.167 54.7232 509.078 54.8736 509.08 55.0582C509.078 55.2169 509.136 55.3459 509.254 55.4453C509.375 55.5447 509.574 55.6264 509.851 55.6903L510.781 55.8892C511.297 56.0005 511.681 56.1768 511.932 56.4183C512.185 56.6598 512.313 56.9759 512.315 57.3665C512.313 57.7098 512.212 58.0128 512.013 58.2756C511.817 58.536 511.544 58.7396 511.193 58.8864C510.843 59.0331 510.44 59.1065 509.986 59.1065C509.318 59.1065 508.781 58.9669 508.374 58.6875C507.966 58.4058 507.724 58.014 507.646 57.5121L508.899 57.3913C508.956 57.6375 509.077 57.8234 509.261 57.9489C509.446 58.0743 509.686 58.1371 509.982 58.1371C510.288 58.1371 510.533 58.0743 510.717 57.9489C510.904 57.8234 510.998 57.6683 510.998 57.4837C510.998 57.3274 510.938 57.1984 510.817 57.0966C510.698 56.9948 510.514 56.9167 510.263 56.8622L509.332 56.6669C508.809 56.558 508.422 56.3745 508.171 56.1165C507.92 55.8561 507.796 55.527 507.798 55.1293C507.796 54.7931 507.887 54.5019 508.072 54.2557C508.259 54.0071 508.518 53.8153 508.849 53.6804C509.183 53.5431 509.568 53.4744 510.004 53.4744C510.643 53.4744 511.146 53.6106 511.513 53.8828C511.882 54.1551 512.111 54.5232 512.198 54.9872ZM516.852 56.706V53.5455H518.137V59H516.891V58.0305H516.834C516.711 58.3359 516.509 58.5857 516.227 58.7798C515.948 58.974 515.603 59.071 515.194 59.071C514.836 59.071 514.52 58.9917 514.245 58.8331C513.973 58.6721 513.76 58.4389 513.606 58.1335C513.452 57.8258 513.375 57.4541 513.375 57.0185V53.5455H514.661V56.8196C514.661 57.1652 514.756 57.4399 514.945 57.6435C515.134 57.8471 515.383 57.9489 515.691 57.9489C515.88 57.9489 516.064 57.9027 516.241 57.8104C516.419 57.718 516.564 57.5807 516.678 57.3984C516.794 57.2138 516.852 56.983 516.852 56.706ZM519.516 59V51.7273H520.802V54.4474H520.855C520.921 54.3149 521.015 54.174 521.135 54.0249C521.256 53.8733 521.42 53.7443 521.626 53.6378C521.831 53.5289 522.094 53.4744 522.414 53.4744C522.835 53.4744 523.215 53.5821 523.554 53.7976C523.895 54.0107 524.165 54.3267 524.363 54.7457C524.565 55.1624 524.665 55.6738 524.665 56.2798C524.665 56.8788 524.567 57.3878 524.371 57.8068C524.174 58.2259 523.907 58.5455 523.568 58.7656C523.229 58.9858 522.846 59.0959 522.417 59.0959C522.105 59.0959 521.846 59.0438 521.64 58.9396C521.434 58.8355 521.268 58.71 521.143 58.5632C521.019 58.4141 520.924 58.2732 520.855 58.1406H520.78V59H519.516ZM520.777 56.2727C520.777 56.6255 520.827 56.9344 520.926 57.1996C521.028 57.4647 521.173 57.6719 521.363 57.821C521.555 57.9678 521.787 58.0412 522.059 58.0412C522.343 58.0412 522.581 57.9654 522.773 57.8139C522.964 57.66 523.109 57.4505 523.206 57.1854C523.305 56.9179 523.355 56.6136 523.355 56.2727C523.355 55.9342 523.306 55.6335 523.209 55.3707C523.112 55.108 522.968 54.902 522.776 54.7528C522.584 54.6037 522.345 54.5291 522.059 54.5291C521.784 54.5291 521.551 54.6013 521.359 54.7457C521.167 54.8902 521.022 55.0926 520.922 55.353C520.825 55.6134 520.777 55.92 520.777 56.2727ZM530.069 54.9872L528.897 55.1151C528.864 54.9967 528.806 54.8854 528.723 54.7812C528.643 54.6771 528.534 54.593 528.397 54.5291C528.259 54.4652 528.091 54.4332 527.892 54.4332C527.625 54.4332 527.4 54.4912 527.218 54.6072C527.038 54.7232 526.949 54.8736 526.951 55.0582C526.949 55.2169 527.007 55.3459 527.125 55.4453C527.246 55.5447 527.445 55.6264 527.722 55.6903L528.652 55.8892C529.168 56.0005 529.552 56.1768 529.803 56.4183C530.056 56.6598 530.184 56.9759 530.186 57.3665C530.184 57.7098 530.083 58.0128 529.885 58.2756C529.688 58.536 529.415 58.7396 529.064 58.8864C528.714 59.0331 528.311 59.1065 527.857 59.1065C527.189 59.1065 526.652 58.9669 526.245 58.6875C525.837 58.4058 525.595 58.014 525.517 57.5121L526.77 57.3913C526.827 57.6375 526.948 57.8234 527.132 57.9489C527.317 58.0743 527.557 58.1371 527.853 58.1371C528.159 58.1371 528.404 58.0743 528.588 57.9489C528.775 57.8234 528.869 57.6683 528.869 57.4837C528.869 57.3274 528.809 57.1984 528.688 57.0966C528.569 56.9948 528.385 56.9167 528.134 56.8622L527.203 56.6669C526.68 56.558 526.293 56.3745 526.042 56.1165C525.791 55.8561 525.667 55.527 525.669 55.1293C525.667 54.7931 525.758 54.5019 525.943 54.2557C526.13 54.0071 526.389 53.8153 526.721 53.6804C527.054 53.5431 527.439 53.4744 527.875 53.4744C528.514 53.4744 529.017 53.6106 529.384 53.8828C529.753 54.1551 529.982 54.5232 530.069 54.9872ZM533.626 59.1065C533.081 59.1065 532.614 58.987 532.223 58.7479C531.835 58.5088 531.535 58.1785 531.325 57.7571C531.116 57.3333 531.012 56.8456 531.012 56.294C531.012 55.7401 531.119 55.2512 531.332 54.8274C531.545 54.4013 531.845 54.0698 532.234 53.8331C532.624 53.594 533.086 53.4744 533.619 53.4744C534.061 53.4744 534.453 53.5561 534.794 53.7195C535.137 53.8804 535.411 54.1089 535.614 54.4048C535.818 54.6984 535.934 55.0417 535.962 55.4347H534.734C534.684 55.1719 534.566 54.9529 534.379 54.7777C534.194 54.6001 533.946 54.5114 533.636 54.5114C533.374 54.5114 533.143 54.5824 532.944 54.7244C532.745 54.8641 532.59 55.0653 532.479 55.3281C532.37 55.5909 532.315 55.9058 532.315 56.2727C532.315 56.6444 532.37 56.964 532.479 57.2315C532.588 57.4967 532.74 57.7015 532.937 57.8459C533.136 57.9879 533.369 58.0589 533.636 58.0589C533.826 58.0589 533.995 58.0234 534.144 57.9524C534.296 57.879 534.422 57.7737 534.524 57.6364C534.626 57.4991 534.696 57.3321 534.734 57.1357H535.962C535.932 57.5215 535.818 57.8636 535.621 58.1619C535.425 58.4579 535.157 58.6899 534.819 58.858C534.48 59.0237 534.083 59.1065 533.626 59.1065ZM537.018 59V53.5455H538.264V54.4545H538.321C538.421 54.1397 538.591 53.897 538.833 53.7266C539.076 53.5537 539.355 53.4673 539.667 53.4673C539.738 53.4673 539.817 53.4709 539.905 53.478C539.995 53.4827 540.07 53.491 540.129 53.5028V54.6854C540.074 54.6664 539.988 54.6499 539.869 54.6357C539.753 54.6191 539.641 54.6108 539.532 54.6108C539.298 54.6108 539.087 54.6617 538.9 54.7635C538.715 54.8629 538.57 55.0014 538.463 55.179C538.357 55.3565 538.303 55.5613 538.303 55.7933V59H537.018ZM540.983 59V53.5455H542.268V59H540.983ZM541.629 52.7713C541.425 52.7713 541.25 52.7038 541.104 52.5689C540.957 52.4316 540.883 52.267 540.883 52.0753C540.883 51.8812 540.957 51.7166 541.104 51.5817C541.25 51.4444 541.425 51.3757 541.629 51.3757C541.835 51.3757 542.01 51.4444 542.155 51.5817C542.301 51.7166 542.375 51.8812 542.375 52.0753C542.375 52.267 542.301 52.4316 542.155 52.5689C542.01 52.7038 541.835 52.7713 541.629 52.7713ZM543.59 61.0455V53.5455H544.854V54.4474H544.929C544.995 54.3149 545.089 54.174 545.21 54.0249C545.33 53.8733 545.494 53.7443 545.7 53.6378C545.906 53.5289 546.168 53.4744 546.488 53.4744C546.909 53.4744 547.289 53.5821 547.628 53.7976C547.969 54.0107 548.239 54.3267 548.438 54.7457C548.639 55.1624 548.739 55.6738 548.739 56.2798C548.739 56.8788 548.641 57.3878 548.445 57.8068C548.248 58.2259 547.981 58.5455 547.642 58.7656C547.304 58.9858 546.92 59.0959 546.491 59.0959C546.179 59.0959 545.92 59.0438 545.714 58.9396C545.508 58.8355 545.342 58.71 545.217 58.5632C545.094 58.4141 544.998 58.2732 544.929 58.1406H544.876V61.0455H543.59ZM544.851 56.2727C544.851 56.6255 544.901 56.9344 545 57.1996C545.102 57.4647 545.247 57.6719 545.437 57.821C545.629 57.9678 545.861 58.0412 546.133 58.0412C546.417 58.0412 546.655 57.9654 546.847 57.8139C547.038 57.66 547.183 57.4505 547.28 57.1854C547.379 56.9179 547.429 56.6136 547.429 56.2727C547.429 55.9342 547.38 55.6335 547.283 55.3707C547.186 55.108 547.042 54.902 546.85 54.7528C546.658 54.6037 546.419 54.5291 546.133 54.5291C545.858 54.5291 545.625 54.6013 545.433 54.7457C545.241 54.8902 545.096 55.0926 544.996 55.353C544.899 55.6134 544.851 55.92 544.851 56.2727ZM552.564 53.5455V54.5398H549.428V53.5455H552.564ZM550.202 52.2386H551.488V57.3594C551.488 57.5322 551.514 57.6648 551.566 57.7571C551.621 57.8471 551.692 57.9086 551.779 57.9418C551.867 57.9749 551.964 57.9915 552.07 57.9915C552.151 57.9915 552.224 57.9856 552.29 57.9737C552.359 57.9619 552.411 57.9512 552.447 57.9418L552.663 58.9467C552.595 58.9704 552.496 58.9964 552.369 59.0249C552.243 59.0533 552.089 59.0698 551.907 59.0746C551.585 59.084 551.295 59.0355 551.037 58.929C550.779 58.8201 550.574 58.652 550.423 58.4247C550.273 58.1974 550.2 57.9134 550.202 57.5724V52.2386ZM553.639 59V53.5455H554.925V59H553.639ZM554.285 52.7713C554.082 52.7713 553.907 52.7038 553.76 52.5689C553.613 52.4316 553.54 52.267 553.54 52.0753C553.54 51.8812 553.613 51.7166 553.76 51.5817C553.907 51.4444 554.082 51.3757 554.285 51.3757C554.491 51.3757 554.666 51.4444 554.811 51.5817C554.958 51.7166 555.031 51.8812 555.031 52.0753C555.031 52.267 554.958 52.4316 554.811 52.5689C554.666 52.7038 554.491 52.7713 554.285 52.7713ZM558.626 59.1065C558.093 59.1065 557.631 58.9893 557.241 58.755C556.85 58.5206 556.547 58.1927 556.332 57.7713C556.119 57.3499 556.012 56.8575 556.012 56.294C556.012 55.7306 556.119 55.237 556.332 54.8132C556.547 54.3894 556.85 54.0604 557.241 53.826C557.631 53.5916 558.093 53.4744 558.626 53.4744C559.158 53.4744 559.62 53.5916 560.011 53.826C560.401 54.0604 560.703 54.3894 560.916 54.8132C561.132 55.237 561.239 55.7306 561.239 56.294C561.239 56.8575 561.132 57.3499 560.916 57.7713C560.703 58.1927 560.401 58.5206 560.011 58.755C559.62 58.9893 559.158 59.1065 558.626 59.1065ZM558.633 58.0767C558.922 58.0767 559.163 57.9974 559.357 57.8388C559.551 57.6778 559.696 57.4624 559.79 57.1925C559.888 56.9226 559.936 56.6219 559.936 56.2905C559.936 55.9567 559.888 55.6548 559.79 55.3849C559.696 55.1127 559.551 54.8961 559.357 54.7351C559.163 54.5741 558.922 54.4936 558.633 54.4936C558.337 54.4936 558.091 54.5741 557.894 54.7351C557.7 54.8961 557.554 55.1127 557.457 55.3849C557.363 55.6548 557.315 55.9567 557.315 56.2905C557.315 56.6219 557.363 56.9226 557.457 57.1925C557.554 57.4624 557.7 57.6778 557.894 57.8388C558.091 57.9974 558.337 58.0767 558.633 58.0767ZM563.616 55.804V59H562.33V53.5455H563.559V54.4723H563.623C563.749 54.1669 563.949 53.9242 564.223 53.7443C564.5 53.5644 564.842 53.4744 565.249 53.4744C565.626 53.4744 565.954 53.5549 566.233 53.7159C566.515 53.8769 566.733 54.1101 566.887 54.4155C567.043 54.7209 567.12 55.0914 567.117 55.527V59H565.832V55.7259C565.832 55.3613 565.737 55.076 565.548 54.87C565.361 54.6641 565.102 54.5611 564.77 54.5611C564.545 54.5611 564.345 54.6108 564.17 54.7102C563.997 54.8073 563.861 54.9482 563.762 55.1328C563.664 55.3175 563.616 55.5412 563.616 55.804Z" fill="white"/>
</g>
<rect x="0.5" y="0.5" width="597" height="391" rx="5.5" stroke="#D0D6DD"/>
<defs>
<clipPath id="clip0_3648_109427">
<rect width="598" height="392" rx="6" fill="white"/>
</clipPath>
</defs>
</svg>
