<svg width="598" height="367" viewBox="0 0 598 367" fill="none" xmlns="http://www.w3.org/2000/svg">
<g clip-path="url(#clip0_3648_109754)">
<mask id="path-3-inside-1_3648_109754" fill="white">
<path d="M0 0H598V32H0V0Z"/>
</mask>
<path d="M0 0H598V32H0V0Z" fill="white"/>
<path d="M598 31H0V33H598V31Z" fill="#D0D6DD" mask="url(#path-3-inside-1_3648_109754)"/>
<mask id="path-5-inside-2_3648_109754" fill="white">
<path d="M0 32H100V367H0V32Z"/>
</mask>
<path d="M0 32H100V367H0V32Z" fill="white"/>
<path d="M99 32V367H101V32H99Z" fill="#D0D6DD" mask="url(#path-5-inside-2_3648_109754)"/>
<mask id="path-7-inside-3_3648_109754" fill="white">
<path d="M100 32H598V56H100V32Z"/>
</mask>
<path d="M100 32H598V56H100V32Z" fill="#EDF0F2"/>
<path d="M598 55H100V57H598V55Z" fill="#D0D6DD" mask="url(#path-7-inside-3_3648_109754)"/>
<rect width="498" height="311" transform="translate(100 56)" fill="white"/>
<rect x="109" y="39" width="60" height="10" rx="5" fill="#D0D6DD"/>
<rect x="528" y="39" width="60" height="10" rx="5" fill="#D0D6DD"/>
</g>
<rect x="0.5" y="0.5" width="597" height="366" rx="5.5" stroke="#D0D6DD"/>
<rect x="124" y="72" width="60" height="6" rx="3" fill="#D0D6DD"/>
<rect x="123.5" y="81.5" width="267" height="21" rx="4.5" fill="white" stroke="#D0D6DD"/>
<rect x="124" y="113" width="60" height="6" rx="3" fill="#D0D6DD"/>
<rect x="123.5" y="122.5" width="267" height="21" rx="4.5" fill="white" stroke="#D0D6DD"/>
<rect x="124" y="154" width="60" height="6" rx="3" fill="#D0D6DD"/>
<rect x="123.5" y="163.5" width="267" height="21" rx="4.5" fill="white" stroke="#D0D6DD"/>
<rect x="124" y="195" width="60" height="6" rx="3" fill="#D0D6DD"/>
<rect x="123.5" y="204.5" width="267" height="21" rx="4.5" fill="white" stroke="#D0D6DD"/>
<path d="M272.963 253H272.083C272.031 252.747 271.94 252.524 271.809 252.332C271.681 252.141 271.525 251.98 271.341 251.849C271.158 251.717 270.956 251.617 270.733 251.551C270.511 251.485 270.279 251.452 270.037 251.452C269.597 251.452 269.198 251.563 268.841 251.786C268.485 252.008 268.203 252.336 267.992 252.769C267.783 253.202 267.679 253.734 267.679 254.364C267.679 254.993 267.783 255.525 267.992 255.958C268.203 256.391 268.485 256.719 268.841 256.942C269.198 257.164 269.597 257.276 270.037 257.276C270.279 257.276 270.511 257.242 270.733 257.176C270.956 257.11 271.158 257.012 271.341 256.881C271.525 256.749 271.681 256.587 271.809 256.395C271.94 256.201 272.031 255.978 272.083 255.727H272.963C272.897 256.099 272.776 256.432 272.601 256.725C272.426 257.019 272.208 257.268 271.948 257.474C271.687 257.678 271.395 257.833 271.071 257.94C270.749 258.046 270.404 258.099 270.037 258.099C269.417 258.099 268.865 257.948 268.382 257.645C267.9 257.342 267.52 256.911 267.243 256.352C266.966 255.794 266.827 255.131 266.827 254.364C266.827 253.597 266.966 252.934 267.243 252.375C267.52 251.816 267.9 251.385 268.382 251.082C268.865 250.779 269.417 250.628 270.037 250.628C270.404 250.628 270.749 250.681 271.071 250.788C271.395 250.894 271.687 251.05 271.948 251.256C272.208 251.46 272.426 251.709 272.601 252.002C272.776 252.293 272.897 252.626 272.963 253ZM275.878 258.128C275.532 258.128 275.219 258.063 274.937 257.933C274.655 257.8 274.432 257.609 274.266 257.361C274.1 257.11 274.017 256.807 274.017 256.452C274.017 256.139 274.079 255.886 274.202 255.692C274.325 255.495 274.49 255.341 274.695 255.23C274.901 255.119 275.129 255.036 275.377 254.982C275.628 254.925 275.88 254.88 276.134 254.847C276.465 254.804 276.734 254.772 276.94 254.751C277.148 254.727 277.3 254.688 277.394 254.634C277.491 254.579 277.54 254.484 277.54 254.349V254.321C277.54 253.971 277.444 253.698 277.252 253.504C277.063 253.31 276.775 253.213 276.389 253.213C275.989 253.213 275.676 253.301 275.448 253.476C275.221 253.651 275.061 253.838 274.969 254.037L274.173 253.753C274.316 253.421 274.505 253.163 274.742 252.979C274.981 252.792 275.241 252.661 275.523 252.588C275.807 252.512 276.086 252.474 276.361 252.474C276.536 252.474 276.737 252.496 276.965 252.538C277.194 252.579 277.416 252.663 277.629 252.79C277.844 252.918 278.023 253.111 278.165 253.369C278.307 253.627 278.378 253.973 278.378 254.406V258H277.54V257.261H277.497C277.441 257.38 277.346 257.506 277.213 257.641C277.081 257.776 276.904 257.891 276.684 257.986C276.464 258.08 276.195 258.128 275.878 258.128ZM276.006 257.375C276.337 257.375 276.617 257.31 276.844 257.18C277.074 257.049 277.246 256.881 277.362 256.675C277.481 256.469 277.54 256.253 277.54 256.026V255.259C277.504 255.301 277.426 255.34 277.306 255.376C277.187 255.409 277.05 255.438 276.894 255.464C276.74 255.488 276.589 255.509 276.443 255.528C276.298 255.545 276.181 255.559 276.091 255.571C275.873 255.599 275.67 255.646 275.48 255.71C275.293 255.771 275.142 255.865 275.026 255.99C274.912 256.113 274.855 256.281 274.855 256.494C274.855 256.786 274.963 257.006 275.178 257.155C275.396 257.302 275.672 257.375 276.006 257.375ZM280.746 254.719V258H279.908V252.545H280.717V253.398H280.788C280.916 253.121 281.11 252.898 281.371 252.73C281.631 252.56 281.967 252.474 282.379 252.474C282.749 252.474 283.072 252.55 283.349 252.702C283.626 252.851 283.841 253.078 283.995 253.384C284.149 253.687 284.226 254.07 284.226 254.534V258H283.388V254.591C283.388 254.162 283.277 253.829 283.054 253.589C282.831 253.348 282.526 253.227 282.138 253.227C281.87 253.227 281.631 253.285 281.42 253.401C281.212 253.517 281.048 253.687 280.927 253.909C280.806 254.132 280.746 254.402 280.746 254.719ZM287.973 258.114C287.462 258.114 287.021 257.993 286.652 257.751C286.283 257.51 285.999 257.177 285.8 256.754C285.601 256.33 285.502 255.846 285.502 255.301C285.502 254.747 285.603 254.258 285.807 253.835C286.013 253.408 286.299 253.076 286.666 252.837C287.036 252.595 287.467 252.474 287.959 252.474C288.343 252.474 288.688 252.545 288.996 252.688C289.304 252.83 289.556 253.028 289.752 253.284C289.949 253.54 290.071 253.838 290.118 254.179H289.28C289.216 253.93 289.074 253.71 288.854 253.518C288.636 253.324 288.343 253.227 287.973 253.227C287.646 253.227 287.36 253.312 287.114 253.483C286.87 253.651 286.679 253.889 286.542 254.197C286.407 254.502 286.34 254.861 286.34 255.273C286.34 255.694 286.406 256.061 286.539 256.374C286.673 256.686 286.863 256.929 287.107 257.102C287.353 257.274 287.642 257.361 287.973 257.361C288.191 257.361 288.389 257.323 288.566 257.247C288.744 257.171 288.894 257.062 289.017 256.92C289.14 256.778 289.228 256.608 289.28 256.409H290.118C290.071 256.731 289.954 257.021 289.767 257.279C289.582 257.535 289.337 257.738 289.031 257.89C288.728 258.039 288.376 258.114 287.973 258.114ZM293.63 258.114C293.105 258.114 292.651 257.998 292.27 257.766C291.891 257.531 291.599 257.205 291.393 256.786C291.189 256.364 291.088 255.874 291.088 255.315C291.088 254.757 291.189 254.264 291.393 253.838C291.599 253.41 291.885 253.076 292.252 252.837C292.622 252.595 293.052 252.474 293.545 252.474C293.829 252.474 294.11 252.522 294.387 252.616C294.664 252.711 294.916 252.865 295.143 253.078C295.37 253.289 295.551 253.568 295.686 253.916C295.821 254.264 295.889 254.693 295.889 255.202V255.557H291.684V254.832H295.036C295.036 254.525 294.975 254.25 294.852 254.009C294.731 253.767 294.558 253.576 294.333 253.437C294.111 253.297 293.848 253.227 293.545 253.227C293.211 253.227 292.922 253.31 292.678 253.476C292.437 253.639 292.251 253.852 292.121 254.115C291.991 254.378 291.926 254.66 291.926 254.96V255.443C291.926 255.855 291.997 256.204 292.139 256.491C292.283 256.775 292.483 256.991 292.739 257.141C292.994 257.287 293.292 257.361 293.63 257.361C293.85 257.361 294.049 257.33 294.227 257.268C294.407 257.205 294.562 257.11 294.692 256.984C294.822 256.857 294.923 256.698 294.994 256.509L295.803 256.736C295.718 257.01 295.575 257.252 295.374 257.46C295.173 257.666 294.924 257.827 294.628 257.943C294.332 258.057 293.999 258.114 293.63 258.114ZM298.002 250.727V258H297.164V250.727H298.002Z" fill="#626B79"/>
<rect x="322.5" y="239.5" width="68" height="29" rx="6.5" fill="#4B61DD"/>
<rect x="322.5" y="239.5" width="68" height="29" rx="6.5" stroke="#4B61DD"/>
<path d="M344.041 252.727C344.008 252.416 343.868 252.175 343.622 252.002C343.378 251.829 343.061 251.743 342.67 251.743C342.395 251.743 342.16 251.784 341.963 251.867C341.767 251.95 341.617 252.062 341.512 252.205C341.408 252.347 341.355 252.509 341.353 252.691C341.353 252.843 341.387 252.974 341.456 253.085C341.527 253.196 341.623 253.291 341.743 253.369C341.864 253.445 341.998 253.509 342.145 253.561C342.291 253.613 342.439 253.657 342.588 253.692L343.27 253.863C343.545 253.927 343.809 254.013 344.062 254.122C344.318 254.231 344.546 254.368 344.748 254.534C344.951 254.7 345.112 254.9 345.23 255.134C345.349 255.369 345.408 255.643 345.408 255.958C345.408 256.384 345.299 256.759 345.081 257.084C344.864 257.406 344.549 257.658 344.137 257.84C343.727 258.02 343.231 258.11 342.649 258.11C342.083 258.11 341.592 258.022 341.175 257.847C340.761 257.672 340.436 257.416 340.202 257.08C339.97 256.744 339.845 256.335 339.826 255.852H341.122C341.141 256.105 341.219 256.316 341.356 256.484C341.493 256.652 341.672 256.777 341.892 256.86C342.115 256.943 342.364 256.984 342.638 256.984C342.925 256.984 343.176 256.942 343.391 256.857C343.609 256.769 343.779 256.648 343.902 256.494C344.025 256.338 344.088 256.156 344.091 255.947C344.088 255.758 344.033 255.602 343.924 255.479C343.815 255.353 343.662 255.249 343.466 255.166C343.271 255.081 343.044 255.005 342.784 254.939L341.956 254.726C341.357 254.572 340.884 254.339 340.536 254.026C340.19 253.711 340.017 253.294 340.017 252.773C340.017 252.344 340.133 251.969 340.365 251.647C340.6 251.325 340.918 251.075 341.321 250.898C341.723 250.718 342.179 250.628 342.688 250.628C343.204 250.628 343.656 250.718 344.044 250.898C344.435 251.075 344.742 251.323 344.964 251.64C345.187 251.955 345.301 252.317 345.309 252.727H344.041ZM350.002 255.706V252.545H351.288V258H350.041V257.031H349.985C349.861 257.336 349.659 257.586 349.377 257.78C349.098 257.974 348.753 258.071 348.344 258.071C347.986 258.071 347.67 257.992 347.396 257.833C347.124 257.672 346.91 257.439 346.757 257.134C346.603 256.826 346.526 256.454 346.526 256.018V252.545H347.811V255.82C347.811 256.165 347.906 256.44 348.095 256.643C348.285 256.847 348.533 256.949 348.841 256.949C349.03 256.949 349.214 256.903 349.392 256.81C349.569 256.718 349.715 256.581 349.828 256.398C349.944 256.214 350.002 255.983 350.002 255.706ZM352.667 258V250.727H353.952V253.447H354.005C354.072 253.315 354.165 253.174 354.286 253.025C354.407 252.873 354.57 252.744 354.776 252.638C354.982 252.529 355.245 252.474 355.564 252.474C355.986 252.474 356.366 252.582 356.704 252.798C357.045 253.011 357.315 253.327 357.514 253.746C357.715 254.162 357.816 254.674 357.816 255.28C357.816 255.879 357.717 256.388 357.521 256.807C357.324 257.226 357.057 257.545 356.718 257.766C356.38 257.986 355.996 258.096 355.568 258.096C355.255 258.096 354.996 258.044 354.79 257.94C354.584 257.835 354.418 257.71 354.293 257.563C354.17 257.414 354.074 257.273 354.005 257.141H353.931V258H352.667ZM353.927 255.273C353.927 255.625 353.977 255.934 354.076 256.2C354.178 256.465 354.324 256.672 354.513 256.821C354.705 256.968 354.937 257.041 355.209 257.041C355.493 257.041 355.731 256.965 355.923 256.814C356.115 256.66 356.259 256.451 356.356 256.185C356.456 255.918 356.505 255.614 356.505 255.273C356.505 254.934 356.457 254.634 356.36 254.371C356.263 254.108 356.118 253.902 355.926 253.753C355.735 253.604 355.496 253.529 355.209 253.529C354.935 253.529 354.701 253.601 354.51 253.746C354.318 253.89 354.172 254.093 354.073 254.353C353.976 254.613 353.927 254.92 353.927 255.273ZM358.909 258V252.545H360.137V253.472H360.201C360.315 253.16 360.503 252.916 360.766 252.741C361.029 252.563 361.342 252.474 361.707 252.474C362.076 252.474 362.387 252.564 362.641 252.744C362.896 252.922 363.076 253.165 363.181 253.472H363.237C363.358 253.169 363.562 252.928 363.848 252.748C364.137 252.566 364.479 252.474 364.874 252.474C365.376 252.474 365.786 252.633 366.103 252.95C366.42 253.268 366.579 253.73 366.579 254.339V258H365.29V254.538C365.29 254.199 365.2 253.952 365.02 253.795C364.84 253.637 364.62 253.558 364.36 253.558C364.049 253.558 363.807 253.655 363.632 253.849C363.459 254.04 363.372 254.29 363.372 254.598V258H362.112V254.484C362.112 254.203 362.026 253.978 361.856 253.81C361.688 253.642 361.468 253.558 361.195 253.558C361.011 253.558 360.843 253.605 360.691 253.7C360.54 253.792 360.419 253.923 360.329 254.094C360.239 254.262 360.194 254.458 360.194 254.683V258H358.909ZM367.883 258V252.545H369.169V258H367.883ZM368.529 251.771C368.326 251.771 368.151 251.704 368.004 251.569C367.857 251.432 367.784 251.267 367.784 251.075C367.784 250.881 367.857 250.717 368.004 250.582C368.151 250.444 368.326 250.376 368.529 250.376C368.735 250.376 368.911 250.444 369.055 250.582C369.202 250.717 369.275 250.881 369.275 251.075C369.275 251.267 369.202 251.432 369.055 251.569C368.911 251.704 368.735 251.771 368.529 251.771ZM373.214 252.545V253.54H370.079V252.545H373.214ZM370.853 251.239H372.138V256.359C372.138 256.532 372.164 256.665 372.216 256.757C372.271 256.847 372.342 256.909 372.43 256.942C372.517 256.975 372.614 256.991 372.721 256.991C372.801 256.991 372.875 256.986 372.941 256.974C373.01 256.962 373.062 256.951 373.097 256.942L373.314 257.947C373.245 257.97 373.147 257.996 373.019 258.025C372.894 258.053 372.74 258.07 372.557 258.075C372.235 258.084 371.945 258.036 371.687 257.929C371.429 257.82 371.224 257.652 371.073 257.425C370.924 257.197 370.85 256.913 370.853 256.572V251.239Z" fill="white"/>
<defs>
<clipPath id="clip0_3648_109754">
<rect width="598" height="367" rx="6" fill="white"/>
</clipPath>
</defs>
</svg>
